<svg width="14" height="14" viewBox="0 0 14 14" fill="none" xmlns="http://www.w3.org/2000/svg">
<path d="M0.479893 0.479889C0.395339 0.564467 0.343902 0.676551 0.334911 0.795807C0.325921 0.915063 0.359975 1.03359 0.430893 1.12989L0.479893 1.18689L3.16989 3.87689C1.8585 4.79581 0.922281 6.15665 0.532893 7.70989C0.504221 7.83731 0.526542 7.97088 0.595083 8.08206C0.663624 8.19323 0.772943 8.27317 0.899663 8.30479C1.02638 8.3364 1.16044 8.31718 1.27317 8.25123C1.3859 8.18528 1.46835 8.07784 1.50289 7.95189C1.84866 6.57333 2.70041 5.37531 3.88889 4.59589L5.09589 5.80289C4.61172 6.3062 4.34428 6.97934 4.35105 7.67769C4.35781 8.37605 4.63823 9.04388 5.13207 9.53772C5.6259 10.0315 6.29374 10.312 6.99209 10.3187C7.69044 10.3255 8.36359 10.0581 8.86689 9.57389L12.8129 13.5199C12.9021 13.6087 13.0216 13.6607 13.1474 13.6653C13.2733 13.6699 13.3962 13.6268 13.4917 13.5447C13.5872 13.4626 13.6482 13.3475 13.6625 13.2224C13.6768 13.0973 13.6434 12.9714 13.5689 12.8699L13.5199 12.8129L9.44489 8.73689V8.73589L8.64489 7.93689L6.73189 6.02389L4.81289 4.10489L4.05789 3.34989L1.18689 0.479889C1.09313 0.386154 0.965975 0.333496 0.833393 0.333496C0.700811 0.333496 0.573657 0.386154 0.479893 0.479889ZM5.80289 6.50989L8.15889 8.86689C7.8442 9.16895 7.42364 9.33564 6.98746 9.33117C6.55128 9.32671 6.13422 9.15145 5.82578 8.84301C5.51733 8.53456 5.34208 8.11751 5.33761 7.68132C5.33315 7.24514 5.50083 6.82458 5.80289 6.50989ZM6.99989 2.66689C6.33289 2.66689 5.68589 2.76489 5.07389 2.94989L5.89889 3.77389C7.32531 3.49134 8.80575 3.76773 10.0341 4.54589C11.2625 5.32406 12.1449 6.5445 12.4989 7.95489C12.5334 8.08084 12.6159 8.18828 12.7286 8.25423C12.8413 8.32018 12.9754 8.3394 13.1021 8.30779C13.2288 8.27617 13.3382 8.19623 13.4067 8.08506C13.4752 7.97389 13.4976 7.84031 13.4689 7.71289C13.1072 6.27118 12.2741 4.99164 11.1021 4.07744C9.93012 3.16324 8.48629 2.66678 6.99989 2.66689ZM7.12989 5.00689L9.66389 7.53989C9.63142 6.87832 9.35402 6.25248 8.88566 5.78412C8.4173 5.31576 7.79146 5.03936 7.12989 5.00689Z" fill="#1F51C6"/>
</svg>
