<svg width="12" height="8" viewBox="0 0 12 8" fill="none" xmlns="http://www.w3.org/2000/svg">
<path d="M0.983885 4.625V4.628C0.967043 4.69151 0.937848 4.75109 0.897968 4.80331C0.858088 4.85553 0.808306 4.89938 0.751467 4.93235C0.694628 4.96532 0.631849 4.98677 0.566717 4.99546C0.501585 5.00415 0.43538 4.99991 0.371885 4.983C-0.0591151 4.869 0.0168849 4.372 0.0168849 4.372L0.034885 4.31C0.034885 4.31 0.0608849 4.226 0.0818849 4.165C0.338506 3.44549 0.716284 2.77516 1.19888 2.183C2.09588 1.089 3.60489 0 5.99989 0C8.39489 0 9.90388 1.089 10.8019 2.183C11.2845 2.77516 11.6623 3.44549 11.9189 4.165C11.9404 4.22684 11.9604 4.28919 11.9789 4.352L11.9819 4.365V4.369L11.9829 4.371C12.0146 4.49827 11.995 4.6329 11.9284 4.74588C11.8618 4.85886 11.7535 4.94114 11.6267 4.97498C11.5 5.00883 11.3651 4.99153 11.251 4.92681C11.1369 4.86209 11.0528 4.75513 11.0169 4.629L11.0159 4.625L11.0079 4.6C10.9512 4.42299 10.8844 4.24938 10.8079 4.08C10.6041 3.62678 10.3419 3.20217 10.0279 2.817C9.28588 1.912 8.04388 1 5.99989 1C3.95589 1 2.71488 1.912 1.97188 2.817C1.56439 3.31748 1.24484 3.88352 1.02688 4.491C1.01453 4.52711 1.00286 4.56345 0.991885 4.6L0.983885 4.625ZM3.49988 5.5C3.49988 4.83696 3.76328 4.20107 4.23212 3.73223C4.70096 3.26339 5.33684 3 5.99989 3C6.66293 3 7.29881 3.26339 7.76765 3.73223C8.23649 4.20107 8.49988 4.83696 8.49988 5.5C8.49988 6.16304 8.23649 6.79893 7.76765 7.26777C7.29881 7.73661 6.66293 8 5.99989 8C5.33684 8 4.70096 7.73661 4.23212 7.26777C3.76328 6.79893 3.49988 6.16304 3.49988 5.5Z" fill="#1F51C6"/>
</svg>
