<svg width="187" height="192" viewBox="0 0 187 192" fill="none" xmlns="http://www.w3.org/2000/svg">
<path d="M96.6568 192C142.914 192 180.412 190.256 180.412 188.104C180.412 185.953 142.914 184.209 96.6568 184.209C50.4 184.209 12.9014 185.953 12.9014 188.104C12.9014 190.256 50.4 192 96.6568 192Z" fill="#108ED6" fill-opacity="0.07"/>
<path d="M170.619 33.4277H52.8369C51.2367 33.4277 49.9395 34.723 49.9395 36.3208V150.65C49.9395 152.248 51.2367 153.543 52.8369 153.543H170.619C172.219 153.543 173.517 152.248 173.517 150.65V36.3208C173.517 34.723 172.219 33.4277 170.619 33.4277Z" fill="white" stroke="#263238" stroke-width="0.5" stroke-linecap="round" stroke-linejoin="round"/>
<path d="M170.699 33.4238H52.7652C52.0165 33.4238 51.2984 33.7205 50.7686 34.2487C50.2388 34.777 49.9406 35.4935 49.9395 36.2411V41.2145H173.504V36.2411C173.503 35.4972 173.208 34.7838 172.682 34.2561C172.157 33.7285 171.444 33.4294 170.699 33.4238Z" fill="#108ED6" fill-opacity="0.28" stroke="#263238" stroke-width="0.5" stroke-linecap="round" stroke-linejoin="round"/>
<path d="M55.8693 37.1844C55.8702 37.4145 55.8026 37.6396 55.6752 37.8313C55.5478 38.023 55.3663 38.1726 55.1537 38.2612C54.941 38.3499 54.7069 38.3735 54.4808 38.3291C54.2547 38.2847 54.0469 38.1744 53.8837 38.012C53.7205 37.8496 53.6092 37.6425 53.5639 37.417C53.5187 37.1914 53.5415 36.9575 53.6295 36.7448C53.7174 36.5322 53.8666 36.3504 54.0582 36.2225C54.2497 36.0946 54.4749 36.0264 54.7053 36.0264C55.0129 36.0275 55.3077 36.1497 55.5257 36.3665C55.7436 36.5833 55.8671 36.8773 55.8693 37.1844Z" fill="white" stroke="#263238" stroke-width="0.5" stroke-linecap="round" stroke-linejoin="round"/>
<path d="M60.7489 37.1844C60.7498 37.4145 60.6822 37.6396 60.5548 37.8313C60.4274 38.023 60.2459 38.1726 60.0333 38.2612C59.8207 38.3499 59.5865 38.3735 59.3604 38.3291C59.1344 38.2847 58.9265 38.1744 58.7633 38.012C58.6001 37.8496 58.4888 37.6425 58.4436 37.417C58.3983 37.1914 58.4211 36.9575 58.5091 36.7448C58.5971 36.5322 58.7463 36.3504 58.9378 36.2225C59.1293 36.0946 59.3545 36.0264 59.5849 36.0264C59.8929 36.0264 60.1884 36.1482 60.4065 36.3653C60.6247 36.5824 60.7478 36.8769 60.7489 37.1844Z" fill="white" stroke="#263238" stroke-width="0.5" stroke-linecap="round" stroke-linejoin="round"/>
<path d="M65.6286 37.1844C65.6294 37.4147 65.5618 37.64 65.4342 37.8318C65.3066 38.0235 65.1248 38.1732 64.912 38.2617C64.6991 38.3501 64.4647 38.3735 64.2385 38.3288C64.0123 38.2841 63.8045 38.1733 63.6415 38.0105C63.4784 37.8477 63.3675 37.6402 63.3227 37.4144C63.2779 37.1885 63.3013 36.9545 63.3899 36.7419C63.4786 36.5294 63.6284 36.3479 63.8205 36.2205C64.0126 36.0931 64.2382 36.0255 64.4688 36.0264C64.776 36.0275 65.0704 36.1499 65.2877 36.3668C65.5049 36.5837 65.6275 36.8776 65.6286 37.1844Z" fill="white" stroke="#263238" stroke-width="0.5" stroke-linecap="round" stroke-linejoin="round"/>
<path d="M113.615 55.3982V47.5106H111.996V46.6221H116.213V47.5106H114.594V55.3982H113.615Z" fill="#263238"/>
<path d="M116.821 48.7399C116.821 47.3965 117.487 46.5332 118.828 46.5332C120.169 46.5332 120.852 47.3754 120.852 48.7399V53.2753C120.852 54.606 120.186 55.4819 118.828 55.4819C117.47 55.4819 116.821 54.606 116.821 53.2753V48.7399ZM117.786 53.3258C117.786 54.1302 118.128 54.5892 118.828 54.5892C119.528 54.5892 119.87 54.126 119.87 53.3258V48.6935C119.87 47.9018 119.545 47.4302 118.828 47.4302C118.111 47.4302 117.786 47.906 117.786 48.6935V53.3258Z" fill="#263238"/>
<path d="M123.839 46.6221C125.205 46.6221 125.834 47.4643 125.834 48.8035V53.2294C125.834 54.5685 125.205 55.3982 123.839 55.3982H121.781V46.6221H123.839ZM123.839 54.5054C124.543 54.5054 124.88 54.0843 124.88 53.2673V48.7529C124.88 47.9486 124.543 47.5106 123.826 47.5106H122.772V54.5054H123.839Z" fill="#263238"/>
<path d="M127.727 53.6295L127.39 55.3982H126.487L128.174 46.6221H129.591L131.278 55.3982H130.3L129.958 53.6295H127.727ZM127.854 52.7872H129.815L128.819 47.7338L127.854 52.7872Z" fill="#263238"/>
<path d="M132.978 52.2482L131.118 46.6221H132.134L133.505 50.9343L134.884 46.6221H135.812L133.944 52.2482V55.3982H132.978V52.2482Z" fill="#263238"/>
<path d="M57.6491 46.8613V46.9876H57.1556V46.8318C57.1556 46.4107 56.9954 46.1664 56.62 46.1664C56.2446 46.1664 56.0886 46.4149 56.0886 46.8276C56.0886 47.8719 57.6533 47.973 57.6533 49.2827C57.6533 49.986 57.3159 50.445 56.6031 50.445C55.8904 50.445 55.553 49.986 55.553 49.2827V49.0174H56.0422V49.329C56.0422 49.7501 56.2151 49.9944 56.5863 49.9944C56.9574 49.9944 57.1345 49.7501 57.1345 49.329C57.1345 48.2931 55.5741 48.192 55.5741 46.8823C55.5741 46.1622 55.9072 45.7158 56.6074 45.7158C57.3075 45.7158 57.6491 46.1538 57.6491 46.8613Z" fill="#263238"/>
<path d="M60.167 46.866V47.2871H59.6735V46.8407C59.6735 46.4196 59.509 46.167 59.1295 46.167C58.7499 46.167 58.5812 46.4196 58.5812 46.8407V49.3043C58.5812 49.7254 58.7541 49.9739 59.1295 49.9739C59.5048 49.9739 59.6735 49.7212 59.6735 49.3043V48.6979H60.167V49.2748C60.167 49.9823 59.8338 50.4455 59.1168 50.4455C58.3998 50.4455 58.0667 49.9823 58.0667 49.2748V46.866C58.0667 46.1627 58.3998 45.6953 59.1168 45.6953C59.8338 45.6953 60.167 46.1627 60.167 46.866Z" fill="#263238"/>
<path d="M61.1623 48.3058V50.4114H60.6436V45.7412H61.1623V47.8468H62.3095V45.7412H62.8282V50.3988H62.3095V48.2932L61.1623 48.3058Z" fill="#263238"/>
<path d="M65.0212 47.8047V48.2721H63.8825V49.9271H65.2827V50.3988H63.3638V45.7412H65.2827V46.2129H63.8825V47.8047H65.0212Z" fill="#263238"/>
<path d="M66.8558 45.7412C67.5812 45.7412 67.9144 46.1623 67.9144 46.8993V49.2491C67.9144 49.9608 67.5812 50.3988 66.8558 50.3988H65.7634V45.7412H66.8558ZM66.8558 49.9271C67.2311 49.9271 67.4083 49.6955 67.4083 49.2702V46.874C67.4083 46.4529 67.2311 46.2129 66.8515 46.2129H66.2906V49.9271H66.8558Z" fill="#263238"/>
<path d="M68.9098 49.3039C68.9098 49.725 69.0743 49.9734 69.4539 49.9734C69.8334 49.9734 69.9937 49.7208 69.9937 49.3039V45.7412H70.4829V49.2744C70.4829 49.9819 70.154 50.4535 69.437 50.4535C68.72 50.4535 68.3953 49.9819 68.3953 49.2744V45.7412H68.9098V49.3039Z" fill="#263238"/>
<path d="M70.9805 50.3988V45.7412H71.5034V49.9271H72.8362V50.3988H70.9805Z" fill="#263238"/>
<path d="M74.8902 47.8047V48.2721H73.7473V49.9271H75.1475V50.3988H73.2285V45.7412H75.1475V46.2129H73.7473V47.8047H74.8902Z" fill="#263238"/>
<path d="M87.7199 60.8428V60.9818C87.7443 61.1681 87.7083 61.3573 87.6173 61.5218C87.5262 61.6862 87.3848 61.8172 87.2138 61.8956C87.3869 61.9773 87.5294 62.112 87.6205 62.2802C87.7115 62.4483 87.7463 62.6412 87.7199 62.8305V63.159C87.7199 63.4382 87.6088 63.706 87.4111 63.9034C87.2134 64.1009 86.9452 64.2118 86.6655 64.2118C86.3859 64.2118 86.1177 64.1009 85.92 63.9034C85.7223 63.706 85.6112 63.4382 85.6112 63.159V62.8305C85.584 62.6401 85.6195 62.446 85.7123 62.2774C85.8051 62.1088 85.9502 61.9748 86.1257 61.8956C85.9518 61.8202 85.8075 61.6901 85.7146 61.5251C85.6217 61.3601 85.5854 61.1693 85.6112 60.9818V60.8428C85.6112 60.5636 85.7223 60.2958 85.92 60.0984C86.1177 59.901 86.3859 59.79 86.6655 59.79C86.9452 59.79 87.2134 59.901 87.4111 60.0984C87.6088 60.2958 87.7199 60.5636 87.7199 60.8428ZM86.1173 60.8428V61.0576C86.1173 61.4787 86.3239 61.6809 86.674 61.6809C87.024 61.6809 87.2307 61.4871 87.2307 61.0576V60.8428C87.2307 60.388 87.024 60.1817 86.674 60.1817C86.3239 60.1817 86.1173 60.4007 86.1173 60.8555V60.8428ZM86.1173 62.7589V63.1337C86.1173 63.5885 86.3197 63.8033 86.674 63.8033C87.0282 63.8033 87.2265 63.5885 87.2307 63.1337V62.7589C87.2307 62.3378 87.0409 62.123 86.674 62.123C86.3071 62.123 86.1173 62.342 86.1173 62.7716V62.7589Z" fill="#263238"/>
<path d="M88.6436 61.1963V61.8111H88.167V61.1963H88.6436ZM88.6436 63.6093V64.2199H88.167V63.6093H88.6436Z" fill="#263238"/>
<path d="M89.1116 60.864C89.1116 60.186 89.449 59.748 90.128 59.748C90.807 59.748 91.1444 60.1692 91.1444 60.864V63.1465C91.1444 63.8245 90.8112 64.2666 90.128 64.2666C89.4448 64.2666 89.1116 63.8245 89.1116 63.1465V60.864ZM89.6008 63.1759C89.6008 63.5971 89.7695 63.816 90.128 63.816C90.4865 63.816 90.651 63.576 90.651 63.1759V60.8387C90.651 60.4176 90.4865 60.1944 90.128 60.1944C89.7695 60.1944 89.6008 60.4345 89.6008 60.8387V63.1759Z" fill="#263238"/>
<path d="M91.5747 60.864C91.5747 60.186 91.9121 59.748 92.5911 59.748C93.2701 59.748 93.6075 60.1692 93.6075 60.864V63.1465C93.6075 63.8245 93.2744 64.2666 92.5911 64.2666C91.9079 64.2666 91.5747 63.8245 91.5747 63.1465V60.864ZM92.0639 63.1759C92.0639 63.5971 92.2326 63.816 92.5911 63.816C92.9496 63.816 93.1141 63.576 93.1141 63.1759V60.8387C93.1141 60.4176 92.9496 60.1944 92.5911 60.1944C92.2326 60.1944 92.0639 60.4345 92.0639 60.8387V63.1759Z" fill="#263238"/>
<path d="M98.774 60.5985C98.5875 60.7113 98.3759 60.7764 98.1582 60.788V60.3669C98.3335 60.3713 98.5048 60.3149 98.6432 60.2075C98.7816 60.1 98.8784 59.948 98.9173 59.7773H99.2758V64.2033H98.7866L98.774 60.5985Z" fill="#263238"/>
<path d="M99.9717 60.864C99.9717 60.186 100.305 59.748 100.984 59.748C101.663 59.748 102.005 60.1692 102.005 60.864V63.1465C102.005 63.8245 101.667 64.2666 100.984 64.2666C100.301 64.2666 99.9717 63.8245 99.9717 63.1465V60.864ZM100.457 63.1759C100.457 63.5971 100.63 63.816 100.984 63.816C101.338 63.816 101.511 63.576 101.511 63.1759V60.8387C101.511 60.4176 101.347 60.1944 100.984 60.1944C100.621 60.1944 100.457 60.4345 100.457 60.8387V63.1759Z" fill="#263238"/>
<path d="M102.945 61.1963V61.8111H102.473V61.1963H102.945ZM102.945 63.6093V64.2199H102.473V63.6093H102.945Z" fill="#263238"/>
<path d="M103.417 60.864C103.417 60.186 103.751 59.748 104.43 59.748C105.109 59.748 105.45 60.1692 105.45 60.864V63.1465C105.45 63.8245 105.113 64.2666 104.43 64.2666C103.746 64.2666 103.417 63.8245 103.417 63.1465V60.864ZM103.902 63.1759C103.902 63.5971 104.075 63.816 104.43 63.816C104.784 63.816 104.957 63.576 104.957 63.1759V60.8387C104.957 60.4176 104.788 60.1944 104.43 60.1944C104.071 60.1944 103.902 60.4345 103.902 60.8387V63.1759Z" fill="#263238"/>
<path d="M105.88 60.864C105.88 60.186 106.214 59.748 106.893 59.748C107.572 59.748 107.913 60.1692 107.913 60.864V63.1465C107.913 63.8245 107.576 64.2666 106.893 64.2666C106.209 64.2666 105.88 63.8245 105.88 63.1465V60.864ZM106.365 63.1759C106.365 63.5971 106.538 63.816 106.893 63.816C107.247 63.816 107.42 63.576 107.42 63.1759V60.8387C107.42 60.4176 107.255 60.1944 106.893 60.1944C106.53 60.1944 106.365 60.4345 106.365 60.8387V63.1759Z" fill="#263238"/>
<path d="M113.392 60.5985C113.205 60.7113 112.994 60.7764 112.776 60.788V60.3669C112.951 60.3713 113.123 60.3149 113.261 60.2075C113.4 60.1 113.496 59.948 113.535 59.7773H113.881V64.2033H113.392V60.5985Z" fill="#263238"/>
<path d="M116.622 60.8679C116.622 62.2029 115.121 62.6829 115.112 63.702V63.7736H116.567V64.22H114.627V63.841C114.627 62.4134 116.129 62.1355 116.129 60.8932C116.129 60.4384 115.977 60.1983 115.606 60.1983C115.235 60.1983 115.087 60.4552 115.087 60.8469V61.2385H114.627V60.8805C114.627 60.2025 114.935 59.752 115.623 59.752C116.31 59.752 116.622 60.1941 116.622 60.8679Z" fill="#263238"/>
<path d="M117.554 61.1963V61.8111H117.078V61.1963H117.554ZM117.554 63.6093V64.2199H117.078V63.6093H117.554Z" fill="#263238"/>
<path d="M118.023 60.864C118.023 60.186 118.356 59.748 119.035 59.748C119.714 59.748 120.056 60.1692 120.056 60.864V63.1465C120.056 63.8245 119.718 64.2666 119.035 64.2666C118.352 64.2666 118.023 63.8245 118.023 63.1465V60.864ZM118.508 63.1759C118.508 63.5971 118.681 63.816 119.035 63.816C119.389 63.816 119.562 63.576 119.562 63.1759V60.8387C119.562 60.4176 119.393 60.1944 119.035 60.1944C118.676 60.1944 118.508 60.4345 118.508 60.8387V63.1759Z" fill="#263238"/>
<path d="M120.486 60.864C120.486 60.186 120.819 59.748 121.498 59.748C122.177 59.748 122.518 60.1692 122.518 60.864V63.1465C122.518 63.8245 122.181 64.2666 121.498 64.2666C120.815 64.2666 120.486 63.8245 120.486 63.1465V60.864ZM120.971 63.1759C120.971 63.5971 121.144 63.816 121.498 63.816C121.852 63.816 122.025 63.576 122.025 63.1759V60.8387C122.025 60.4176 121.861 60.1944 121.498 60.1944C121.135 60.1944 120.971 60.4345 120.971 60.8387V63.1759Z" fill="#263238"/>
<path d="M129.642 60.8679C129.642 62.2029 128.14 62.6829 128.132 63.702V63.7736H129.591V64.22H127.647V63.841C127.647 62.4134 129.144 62.1355 129.144 60.8932C129.144 60.4384 128.992 60.1983 128.625 60.1983C128.259 60.1983 128.107 60.4552 128.107 60.8469V61.2385H127.647V60.8805C127.647 60.2025 127.955 59.752 128.638 59.752C129.321 59.752 129.642 60.1941 129.642 60.8679Z" fill="#263238"/>
<path d="M130.57 61.1963V61.8111H130.097V61.1963H130.57ZM130.57 63.6093V64.2199H130.097V63.6093H130.57Z" fill="#263238"/>
<path d="M131.038 60.864C131.038 60.186 131.375 59.748 132.054 59.748C132.733 59.748 133.071 60.1692 133.071 60.864V63.1465C133.071 63.8245 132.737 64.2666 132.054 64.2666C131.371 64.2666 131.038 63.8245 131.038 63.1465V60.864ZM131.527 63.1759C131.527 63.5971 131.7 63.816 132.054 63.816C132.409 63.816 132.577 63.576 132.577 63.1759V60.8387C132.577 60.4176 132.413 60.1944 132.054 60.1944C131.696 60.1944 131.527 60.4345 131.527 60.8387V63.1759Z" fill="#263238"/>
<path d="M133.501 60.864C133.501 60.186 133.838 59.748 134.517 59.748C135.196 59.748 135.538 60.1692 135.538 60.864V63.1465C135.538 63.8245 135.201 64.2666 134.517 64.2666C133.834 64.2666 133.501 63.8245 133.501 63.1465V60.864ZM133.99 63.1759C133.99 63.5971 134.163 63.816 134.517 63.816C134.872 63.816 135.04 63.576 135.04 63.1759V60.8387C135.04 60.4176 134.876 60.1944 134.517 60.1944C134.159 60.1944 133.99 60.4345 133.99 60.8387V63.1759Z" fill="#263238"/>
<path d="M143.522 63.3271V64.2199H143.037V63.3271H141.607V62.8807L142.982 59.7939H143.522V62.8807H143.876V63.3271H143.522ZM142.062 62.8807H143.037V60.6993L142.062 62.8807Z" fill="#263238"/>
<path d="M144.728 61.1963V61.8111H144.256V61.1963H144.728ZM144.728 63.6093V64.2199H144.256V63.6093H144.728Z" fill="#263238"/>
<path d="M145.196 60.864C145.196 60.186 145.533 59.748 146.212 59.748C146.891 59.748 147.229 60.1692 147.229 60.864V63.1465C147.229 63.8245 146.896 64.2666 146.212 64.2666C145.529 64.2666 145.196 63.8245 145.196 63.1465V60.864ZM145.685 63.1759C145.685 63.5971 145.858 63.816 146.212 63.816C146.567 63.816 146.735 63.576 146.735 63.1759V60.8387C146.735 60.4176 146.571 60.1944 146.212 60.1944C145.854 60.1944 145.685 60.4345 145.685 60.8387V63.1759Z" fill="#263238"/>
<path d="M147.663 60.864C147.663 60.186 147.997 59.748 148.676 59.748C149.355 59.748 149.696 60.1692 149.696 60.864V63.1465C149.696 63.8245 149.359 64.2666 148.676 64.2666C147.992 64.2666 147.663 63.8245 147.663 63.1465V60.864ZM148.148 63.1759C148.148 63.5971 148.321 63.816 148.676 63.816C149.03 63.816 149.203 63.576 149.203 63.1759V60.8387C149.203 60.4176 149.034 60.1944 148.676 60.1944C148.317 60.1944 148.148 60.4345 148.148 60.8387V63.1759Z" fill="#263238"/>
<path d="M158.599 60.8556V60.9398H158.135V60.8261C158.135 60.405 157.971 60.1944 157.612 60.1944C157.254 60.1944 157.073 60.4345 157.073 60.9061V61.9C157.124 61.7534 157.222 61.6276 157.351 61.5417C157.48 61.4558 157.634 61.4145 157.79 61.4241C158.359 61.4241 158.612 61.8452 158.612 62.4769V63.1465C158.612 63.8245 158.275 64.2666 157.596 64.2666C156.917 64.2666 156.579 63.8245 156.579 63.1465V60.8893C156.579 60.186 156.895 59.748 157.596 59.748C158.296 59.748 158.599 60.1818 158.599 60.8556ZM157.056 62.5148V63.1759C157.056 63.5971 157.22 63.816 157.579 63.816C157.937 63.816 158.106 63.576 158.106 63.1759V62.5148C158.106 62.1147 157.937 61.8747 157.579 61.8747C157.22 61.8747 157.056 62.1147 157.056 62.5148Z" fill="#263238"/>
<path d="M159.548 61.1963V61.8111H159.072V61.1963H159.548ZM159.548 63.6093V64.2199H159.072V63.6093H159.548Z" fill="#263238"/>
<path d="M160.008 60.864C160.008 60.186 160.345 59.748 161.02 59.748C161.695 59.748 162.041 60.1692 162.041 60.864V63.1465C162.041 63.8245 161.707 64.2666 161.02 64.2666C160.333 64.2666 160.008 63.8245 160.008 63.1465V60.864ZM160.497 63.1759C160.497 63.5971 160.666 63.816 161.02 63.816C161.374 63.816 161.547 63.576 161.547 63.1759V60.8387C161.547 60.4176 161.383 60.1944 161.02 60.1944C160.657 60.1944 160.497 60.4345 160.497 60.8387V63.1759Z" fill="#263238"/>
<path d="M162.479 60.864C162.479 60.186 162.817 59.748 163.496 59.748C164.175 59.748 164.512 60.1692 164.512 60.864V63.1465C164.512 63.8245 164.179 64.2666 163.496 64.2666C162.813 64.2666 162.479 63.8245 162.479 63.1465V60.864ZM162.969 63.1759C162.969 63.5971 163.137 63.816 163.496 63.816C163.854 63.816 164.019 63.576 164.019 63.1759V60.8387C164.019 60.4176 163.854 60.1944 163.496 60.1944C163.137 60.1944 162.969 60.4345 162.969 60.8387V63.1759Z" fill="#263238"/>
<path d="M96.9605 113.571H83.4561V126.276H96.9605V113.571Z" stroke="#ADADAD" stroke-width="0.5" stroke-miterlimit="10"/>
<path d="M110.857 113.571H97.3525V126.276H110.857V113.571Z" stroke="#ADADAD" stroke-width="0.5" stroke-miterlimit="10"/>
<path d="M124.754 113.571H111.249V126.276H124.754V113.571Z" stroke="#ADADAD" stroke-width="0.5" stroke-miterlimit="10"/>
<path d="M138.65 113.571H125.146V126.276H138.65V113.571Z" stroke="#ADADAD" stroke-width="0.5" stroke-miterlimit="10"/>
<path d="M152.547 113.571H139.043V126.276H152.547V113.571Z" stroke="#ADADAD" stroke-width="0.5" stroke-miterlimit="10"/>
<path d="M166.503 113.571H152.999V126.276H166.503V113.571Z" stroke="#ADADAD" stroke-width="0.5" stroke-miterlimit="10"/>
<path d="M55.6836 66.8945H77.5514" stroke="#ADADAD" stroke-width="0.5" stroke-miterlimit="10"/>
<path d="M55.6836 69.2861H77.5514" stroke="#ADADAD" stroke-width="0.5" stroke-miterlimit="10"/>
<path d="M55.6836 71.6777H77.5514" stroke="#ADADAD" stroke-width="0.5" stroke-miterlimit="10"/>
<path d="M55.6836 74.0742H77.5514" stroke="#ADADAD" stroke-width="0.5" stroke-miterlimit="10"/>
<path d="M55.6836 76.4658H77.5514" stroke="#ADADAD" stroke-width="0.5" stroke-miterlimit="10"/>
<path d="M55.6836 78.8584H77.5514" stroke="#ADADAD" stroke-width="0.5" stroke-miterlimit="10"/>
<path d="M55.6836 81.25H77.5514" stroke="#ADADAD" stroke-width="0.5" stroke-miterlimit="10"/>
<path d="M55.6836 83.6416H77.5514" stroke="#ADADAD" stroke-width="0.5" stroke-miterlimit="10"/>
<path d="M55.6836 120.187H77.5514" stroke="#ADADAD" stroke-width="0.5" stroke-miterlimit="10"/>
<path d="M55.6836 122.578H77.5514" stroke="#ADADAD" stroke-width="0.5" stroke-miterlimit="10"/>
<path d="M55.6836 124.971H77.5514" stroke="#ADADAD" stroke-width="0.5" stroke-miterlimit="10"/>
<path d="M55.6836 127.366H77.5514" stroke="#ADADAD" stroke-width="0.5" stroke-miterlimit="10"/>
<path d="M55.6836 129.759H77.5514" stroke="#ADADAD" stroke-width="0.5" stroke-miterlimit="10"/>
<path d="M55.6836 132.15H77.5514" stroke="#ADADAD" stroke-width="0.5" stroke-miterlimit="10"/>
<path d="M55.6836 134.543H77.5514" stroke="#ADADAD" stroke-width="0.5" stroke-miterlimit="10"/>
<path d="M55.6836 136.938H77.5514" stroke="#ADADAD" stroke-width="0.5" stroke-miterlimit="10"/>
<path d="M96.9605 66.9023H83.4561V79.6075H96.9605V66.9023Z" stroke="#ADADAD" stroke-width="0.5" stroke-miterlimit="10"/>
<path d="M110.857 66.9023H97.3525V79.6075H110.857V66.9023Z" fill="#108ED6" fill-opacity="0.28" stroke="#ADADAD" stroke-width="0.5" stroke-miterlimit="10"/>
<path d="M124.754 66.9023H111.249V79.6075H124.754V66.9023Z" fill="#108ED6" fill-opacity="0.28" stroke="#ADADAD" stroke-width="0.5" stroke-miterlimit="10"/>
<path d="M138.65 66.9023H125.146V79.6075H138.65V66.9023Z" stroke="#ADADAD" stroke-width="0.5" stroke-miterlimit="10"/>
<path d="M152.547 66.9023H139.043V79.6075H152.547V66.9023Z" stroke="#ADADAD" stroke-width="0.5" stroke-miterlimit="10"/>
<path d="M166.503 66.9023H152.999V79.6075H166.503V66.9023Z" stroke="#ADADAD" stroke-width="0.5" stroke-miterlimit="10"/>
<path d="M99.7229 70.5244H109.166" stroke="white" stroke-width="0.5" stroke-miterlimit="10"/>
<path d="M99.7229 71.96H109.166" stroke="white" stroke-width="0.5" stroke-miterlimit="10"/>
<path d="M99.7229 73.3965H109.166" stroke="white" stroke-width="0.5" stroke-miterlimit="10"/>
<path d="M99.7229 74.832H109.166" stroke="white" stroke-width="0.5" stroke-miterlimit="10"/>
<path d="M99.7229 76.2637H109.166" stroke="white" stroke-width="0.5" stroke-miterlimit="10"/>
<path d="M96.9605 82.4463H83.4561V95.1514H96.9605V82.4463Z" stroke="#ADADAD" stroke-width="0.5" stroke-miterlimit="10"/>
<path d="M110.857 82.4463H97.3525V95.1514H110.857V82.4463Z" fill="#108ED6" fill-opacity="0.28" stroke="#ADADAD" stroke-width="0.5" stroke-miterlimit="10"/>
<path d="M124.754 82.4463H111.249V95.1514H124.754V82.4463Z" stroke="#ADADAD" stroke-width="0.5" stroke-miterlimit="10"/>
<path d="M138.65 82.4463H125.146V95.1514H138.65V82.4463Z" stroke="#ADADAD" stroke-width="0.5" stroke-miterlimit="10"/>
<path d="M152.547 82.4463H139.043V95.1514H152.547V82.4463Z" stroke="#ADADAD" stroke-width="0.5" stroke-miterlimit="10"/>
<path d="M166.503 82.4463H152.999V95.1514H166.503V82.4463Z" stroke="#ADADAD" stroke-width="0.5" stroke-miterlimit="10"/>
<path d="M99.7229 85.8994H109.166" stroke="white" stroke-width="0.5" stroke-miterlimit="10"/>
<path d="M99.7229 87.335H109.166" stroke="white" stroke-width="0.5" stroke-miterlimit="10"/>
<path d="M99.7229 88.7666H109.166" stroke="white" stroke-width="0.5" stroke-miterlimit="10"/>
<path d="M99.7229 90.2031H109.166" stroke="white" stroke-width="0.5" stroke-miterlimit="10"/>
<path d="M99.7229 91.6387H109.166" stroke="white" stroke-width="0.5" stroke-miterlimit="10"/>
<path d="M96.9605 97.9893H83.4561V110.694H96.9605V97.9893Z" stroke="#ADADAD" stroke-width="0.5" stroke-miterlimit="10"/>
<path d="M110.857 97.9893H97.3525V110.694H110.857V97.9893Z" stroke="#ADADAD" stroke-width="0.5" stroke-miterlimit="10"/>
<path d="M124.754 97.9893H111.249V110.694H124.754V97.9893Z" stroke="#ADADAD" stroke-width="0.5" stroke-miterlimit="10"/>
<path d="M138.65 97.9893H125.146V110.694H138.65V97.9893Z" stroke="#ADADAD" stroke-width="0.5" stroke-miterlimit="10"/>
<path d="M152.547 97.9893H139.043V110.694H152.547V97.9893Z" fill="#108ED6" fill-opacity="0.28" stroke="#ADADAD" stroke-width="0.5" stroke-miterlimit="10"/>
<path d="M166.503 97.9893H152.999V110.694H166.503V97.9893Z" stroke="#ADADAD" stroke-width="0.5" stroke-miterlimit="10"/>
<path d="M141.598 101.477H151.041" stroke="white" stroke-width="0.5" stroke-miterlimit="10"/>
<path d="M141.598 102.912H151.041" stroke="white" stroke-width="0.5" stroke-miterlimit="10"/>
<path d="M141.598 104.349H151.041" stroke="white" stroke-width="0.5" stroke-miterlimit="10"/>
<path d="M141.598 105.78H151.041" stroke="white" stroke-width="0.5" stroke-miterlimit="10"/>
<path d="M141.598 107.216H151.041" stroke="white" stroke-width="0.5" stroke-miterlimit="10"/>
<path d="M96.9605 129.152H83.4561V141.857H96.9605V129.152Z" stroke="#ADADAD" stroke-width="0.5" stroke-miterlimit="10"/>
<path d="M110.857 129.152H97.3525V141.857H110.857V129.152Z" stroke="#ADADAD" stroke-width="0.5" stroke-miterlimit="10"/>
<path d="M124.754 129.152H111.249V141.857H124.754V129.152Z" fill="#108ED6" fill-opacity="0.28" stroke="#ADADAD" stroke-width="0.5" stroke-miterlimit="10"/>
<path d="M138.65 129.152H125.146V141.857H138.65V129.152Z" fill="#108ED6" fill-opacity="0.28" stroke="#ADADAD" stroke-width="0.5" stroke-miterlimit="10"/>
<path d="M152.547 129.152H139.043V141.857H152.547V129.152Z" fill="#108ED6" fill-opacity="0.28" stroke="#ADADAD" stroke-width="0.5" stroke-miterlimit="10"/>
<path d="M166.503 129.152H152.999V141.857H166.503V129.152Z" stroke="#ADADAD" stroke-width="0.5" stroke-miterlimit="10"/>
<path d="M113.476 132.635H122.919" stroke="white" stroke-width="0.5" stroke-miterlimit="10"/>
<path d="M113.476 134.066H122.919" stroke="white" stroke-width="0.5" stroke-miterlimit="10"/>
<path d="M113.476 135.503H122.919" stroke="white" stroke-width="0.5" stroke-miterlimit="10"/>
<path d="M113.476 136.938H122.919" stroke="white" stroke-width="0.5" stroke-miterlimit="10"/>
<path d="M113.476 138.37H122.919" stroke="white" stroke-width="0.5" stroke-miterlimit="10"/>
<path d="M127.229 132.635H136.672" stroke="white" stroke-width="0.5" stroke-miterlimit="10"/>
<path d="M127.229 134.066H136.672" stroke="white" stroke-width="0.5" stroke-miterlimit="10"/>
<path d="M127.229 135.503H136.672" stroke="white" stroke-width="0.5" stroke-miterlimit="10"/>
<path d="M127.229 136.938H136.672" stroke="white" stroke-width="0.5" stroke-miterlimit="10"/>
<path d="M127.229 138.37H136.672" stroke="white" stroke-width="0.5" stroke-miterlimit="10"/>
<path d="M140.983 132.635H150.426" stroke="white" stroke-width="0.5" stroke-miterlimit="10"/>
<path d="M140.983 134.066H150.426" stroke="white" stroke-width="0.5" stroke-miterlimit="10"/>
<path d="M140.983 135.503H150.426" stroke="white" stroke-width="0.5" stroke-miterlimit="10"/>
<path d="M140.983 136.938H150.426" stroke="white" stroke-width="0.5" stroke-miterlimit="10"/>
<path d="M140.983 138.37H150.426" stroke="white" stroke-width="0.5" stroke-miterlimit="10"/>
<path d="M46.0848 40.2969C42.2637 37.4712 37.228 37.7702 34.2041 39.661C31.1801 41.5518 30.2438 44.9545 29.3961 47.2832C27.7091 51.9155 24.0863 54.6696 20.164 57.3437C16.3682 59.942 11.438 63.7489 14.0402 68.9413C15.2169 71.2954 16.6888 72.9124 14.4619 76.7362C12.2351 80.5599 9.89437 82.3286 11.5097 86.0008C13.125 89.6729 15.1916 95.4169 23.8838 93.3577C32.5761 91.2984 35.2289 81.4401 36.1146 77.7763C37.0003 74.1126 41.2557 72.6092 44.3641 69.9773C47.4724 67.3453 47.1645 63.2099 46.2788 60.5653C45.604 58.5355 44.8448 55.6466 47.1687 53.3473L47.4724 53.44C47.4724 53.44 52.1411 51.3344 52.9172 50.05C53.6932 48.7656 49.9016 43.1184 46.0848 40.2969Z" fill="#263238" stroke="#263238" stroke-width="0.5" stroke-linecap="round" stroke-linejoin="round"/>
<path d="M52.8835 65.126C52.8835 65.126 61.9764 72.1376 64.3467 73.6157C66.7169 75.0938 72.4569 77.8606 73.7391 78.8502C75.0212 79.8398 73.0474 84.0805 70.2807 85.6597C67.514 87.2388 64.9413 85.4617 63.461 84.67C61.9807 83.8783 52.0737 77.4647 52.0737 77.4647L52.8835 65.126Z" fill="#108ED6" stroke="#263238" stroke-width="0.5" stroke-linecap="round" stroke-linejoin="round"/>
<path d="M54.912 69.2988L53.3684 78.1381L56.8774 71.1265" stroke="#263238" stroke-width="0.5" stroke-linecap="round" stroke-linejoin="round"/>
<path d="M55.937 111.234C55.937 111.234 53.5667 111.331 50.876 108.863C48.1852 106.395 47.502 105.309 47.502 105.309C47.502 105.309 46.1355 91.5804 46.1355 90.296C46.1355 89.0115 47.2405 82.5979 48.2443 79.4396C49.248 76.2812 51.1122 80.0333 51.1122 80.0333C51.1122 80.0333 53.3854 102.142 53.7818 104.315C54.1783 106.488 55.937 111.234 55.937 111.234Z" fill="#787878" stroke="#263238" stroke-width="0.5" stroke-linecap="round" stroke-linejoin="round"/>
<path d="M47.9995 135.461C47.9995 135.461 45.3003 142.165 45.1948 145.404C45.0894 148.642 45.7558 153.527 43.2548 159.006C40.7538 164.484 38.4089 172.515 38.0166 174.97C37.6244 177.425 39.8723 184.146 41.0364 186.34C42.2004 188.534 41.7449 188.37 40.5092 188.328C39.5858 188.33 38.6783 188.088 37.8785 187.628C37.0786 187.167 36.4149 186.504 35.9543 185.704C34.6384 183.498 35.1445 182.125 34.2673 181.325L33.3647 180.52L32.5887 185.283L31.509 185.094L32.4917 178.95C32.4917 178.95 32.3821 177.556 33.0189 176.958C33.6557 176.36 34.6469 174.541 34.6469 174.541C34.6469 174.541 35.7097 165.929 35.444 160.05C35.1783 154.171 34.9927 150.461 35.6928 148.014C36.3929 145.568 36.4182 144.793 36.5026 142.325C36.5869 139.857 36.5279 136.922 36.5405 136.459C36.5532 135.996 47.9995 135.461 47.9995 135.461Z" fill="white"/>
<mask id="mask0_34_2999" style="mask-type:luminance" maskUnits="userSpaceOnUse" x="31" y="135" width="17" height="54">
<path d="M47.9995 135.461C47.9995 135.461 45.3003 142.165 45.1948 145.404C45.0894 148.642 45.7558 153.527 43.2548 159.006C40.7538 164.484 38.4089 172.515 38.0166 174.97C37.6244 177.425 39.8723 184.146 41.0364 186.34C42.2004 188.534 41.7449 188.37 40.5092 188.328C39.5858 188.33 38.6783 188.088 37.8785 187.628C37.0786 187.167 36.4149 186.504 35.9543 185.704C34.6384 183.498 35.1445 182.125 34.2673 181.325L33.3647 180.52L32.5887 185.283L31.509 185.094L32.4917 178.95C32.4917 178.95 32.3821 177.556 33.0189 176.958C33.6557 176.36 34.6469 174.541 34.6469 174.541C34.6469 174.541 35.7097 165.929 35.444 160.05C35.1783 154.171 34.9927 150.461 35.6928 148.014C36.3929 145.568 36.4182 144.793 36.5026 142.325C36.5869 139.857 36.5279 136.922 36.5405 136.459C36.5532 135.996 47.9995 135.461 47.9995 135.461Z" fill="white"/>
</mask>
<g mask="url(#mask0_34_2999)">
<path opacity="0.2" d="M36.5195 136.467C36.5195 136.804 36.5195 138.472 36.5195 140.308C37.8649 140.586 41.1588 140.957 46.5024 139.626C47.2362 137.36 47.9996 135.461 47.9996 135.461C47.9996 135.461 36.5364 136.004 36.5195 136.467Z" fill="black"/>
</g>
<path d="M47.9995 135.461C47.9995 135.461 45.3003 142.165 45.1948 145.404C45.0894 148.642 45.7558 153.527 43.2548 159.006C40.7538 164.484 38.4089 172.515 38.0166 174.97C37.6244 177.425 39.8723 184.146 41.0364 186.34C42.2004 188.534 41.7449 188.37 40.5092 188.328C39.5858 188.33 38.6783 188.088 37.8785 187.628C37.0786 187.167 36.4149 186.504 35.9543 185.704C34.6384 183.498 35.1445 182.125 34.2673 181.325L33.3647 180.52L32.5887 185.283L31.509 185.094L32.4917 178.95C32.4917 178.95 32.3821 177.556 33.0189 176.958C33.6557 176.36 34.6469 174.541 34.6469 174.541C34.6469 174.541 35.7097 165.929 35.444 160.05C35.1783 154.171 34.9927 150.461 35.6928 148.014C36.3929 145.568 36.4182 144.793 36.5026 142.325C36.5869 139.857 36.5279 136.922 36.5405 136.459C36.5532 135.996 47.9995 135.461 47.9995 135.461Z" fill="#FFC2A6" stroke="#263238" stroke-width="0.5" stroke-linecap="round" stroke-linejoin="round"/>
<path d="M41.0365 186.349L40.9142 186.104C38.2656 186.896 37.1184 184.226 35.7477 181.051C35.0929 179.526 34.2144 178.107 33.1413 176.84C33.0907 176.89 33.0443 176.941 32.9979 176.983C32.3611 177.581 32.4707 178.975 32.4707 178.975L31.488 185.119L32.5677 185.309L33.3437 180.546L34.2463 181.35C35.1446 182.15 34.6385 183.523 35.9333 185.73C36.3939 186.529 37.0576 187.192 37.8575 187.653C38.6573 188.114 39.5648 188.355 40.4882 188.353C41.745 188.378 42.2005 188.547 41.0365 186.349Z" fill="#108ED6" stroke="#263238" stroke-width="0.5" stroke-linecap="round" stroke-linejoin="round"/>
<path d="M31.2688 182.471L31.4291 188.042L32.2009 188.067L32.61 183.907L31.2688 182.471Z" fill="#108ED6" stroke="#263238" stroke-width="0.5" stroke-linecap="round" stroke-linejoin="round"/>
<path d="M26.8446 134.446C26.8446 134.446 28.5738 138.207 27.144 144.031C25.7143 149.855 27.1061 159.01 29.2528 164.796C31.3995 170.582 31.2013 175.825 31.4712 177.068C31.7411 178.31 31.1929 180.765 31.2899 182.471C31.3869 184.176 34.2421 187.048 34.8157 187.991C35.3893 188.935 39.7291 189.082 40.813 189.12C41.8969 189.158 42.0782 188.08 41.3275 187.591C40.5768 187.103 38.9615 184.269 38.9615 184.269C38.9615 184.269 36.5196 178.794 36.2707 176.92C36.0219 175.046 35.1531 164.063 35.5411 161.76C35.9291 159.456 37.2829 146.684 37.7047 143.302C38.1264 139.921 38.4427 135.141 38.4427 135.141L26.8446 134.446Z" fill="white"/>
<mask id="mask1_34_2999" style="mask-type:luminance" maskUnits="userSpaceOnUse" x="26" y="134" width="16" height="56">
<path d="M26.8446 134.446C26.8446 134.446 28.5738 138.207 27.144 144.031C25.7143 149.855 27.1061 159.01 29.2528 164.796C31.3995 170.582 31.2013 175.825 31.4712 177.068C31.7411 178.31 31.1929 180.765 31.2899 182.471C31.3869 184.176 34.2421 187.048 34.8157 187.991C35.3893 188.935 39.7291 189.082 40.813 189.12C41.8969 189.158 42.0782 188.08 41.3275 187.591C40.5768 187.103 38.9615 184.269 38.9615 184.269C38.9615 184.269 36.5196 178.794 36.2707 176.92C36.0219 175.046 35.1531 164.063 35.5411 161.76C35.9291 159.456 37.2829 146.684 37.7047 143.302C38.1264 139.921 38.4427 135.141 38.4427 135.141L26.8446 134.446Z" fill="white"/>
</mask>
<g mask="url(#mask1_34_2999)">
<path opacity="0.2" d="M38.0462 139.896C38.2739 137.39 38.4215 135.141 38.4215 135.141L26.8445 134.446C27.361 135.772 27.6463 137.177 27.688 138.599C29.5943 139.277 32.9852 140.081 38.0462 139.896Z" fill="black"/>
</g>
<path d="M26.8446 134.446C26.8446 134.446 28.5738 138.207 27.144 144.031C25.7143 149.855 27.1061 159.01 29.2528 164.796C31.3995 170.582 31.2013 175.825 31.4712 177.068C31.7411 178.31 31.1929 180.765 31.2899 182.471C31.3869 184.176 34.2421 187.048 34.8157 187.991C35.3893 188.935 39.7291 189.082 40.813 189.12C41.8969 189.158 42.0782 188.08 41.3275 187.591C40.5768 187.103 38.9615 184.269 38.9615 184.269C38.9615 184.269 36.5196 178.794 36.2707 176.92C36.0219 175.046 35.1531 164.063 35.5411 161.76C35.9291 159.456 37.2829 146.684 37.7047 143.302C38.1264 139.921 38.4427 135.141 38.4427 135.141L26.8446 134.446Z" fill="#FFC2A6" stroke="#263238" stroke-width="0.5" stroke-linecap="round" stroke-linejoin="round"/>
<path d="M41.3063 187.591C40.9693 187.316 40.6763 186.991 40.4375 186.627C38.3624 186.526 35.8657 186.29 35.0348 185.528C34.0606 184.639 31.7494 180.407 31.4078 179.775C31.2973 180.669 31.2508 181.57 31.2686 182.471C31.3656 184.155 34.2208 187.048 34.7944 187.991C35.368 188.935 39.7078 189.082 40.7917 189.12C41.8756 189.158 42.0612 188.08 41.3063 187.591Z" fill="#108ED6" stroke="#263238" stroke-width="0.5" stroke-linecap="round" stroke-linejoin="round"/>
<path d="M24.8961 92.0732C24.8961 92.0732 19.561 108.076 19.9532 114.974C20.3455 121.872 24.3057 135.507 24.3057 135.507C24.3057 135.507 33.2004 137.874 39.5267 137.874C43.5589 137.823 47.5597 137.157 51.3905 135.899C51.3905 135.899 54.5536 113.58 53.1703 105.696C52.2993 100.884 50.4116 96.3113 47.6327 92.2838L24.8961 92.0732Z" fill="#263238" stroke="#263238" stroke-width="0.5" stroke-linecap="round" stroke-linejoin="round"/>
<path d="M29.4467 64.5364C29.4467 64.5364 34.5836 62.2666 37.1563 62.2666C39.729 62.2666 45.3593 66.6083 46.2492 67.4C47.1391 68.1917 50.3023 77.1699 50.7957 79.6377C51.2892 82.1054 47.6326 92.9618 47.6326 92.9618C47.6326 92.9618 41.0111 94.3431 36.0682 94.1494C31.1253 93.9557 28.949 93.3577 28.949 93.3577C28.949 93.3577 26.9752 83.4867 25.9968 77.6626C25.0183 71.8386 23.9218 67.977 24.8117 66.5115C25.7015 65.046 29.4467 64.5364 29.4467 64.5364Z" fill="white"/>
<mask id="mask2_34_2999" style="mask-type:luminance" maskUnits="userSpaceOnUse" x="24" y="62" width="27" height="33">
<path d="M29.4467 64.5364C29.4467 64.5364 34.5836 62.2666 37.1563 62.2666C39.729 62.2666 45.3593 66.6083 46.2492 67.4C47.1391 68.1917 50.3023 77.1699 50.7957 79.6377C51.2892 82.1054 47.6326 92.9618 47.6326 92.9618C47.6326 92.9618 41.0111 94.3431 36.0682 94.1494C31.1253 93.9557 28.949 93.3577 28.949 93.3577C28.949 93.3577 26.9752 83.4867 25.9968 77.6626C25.0183 71.8386 23.9218 67.977 24.8117 66.5115C25.7015 65.046 29.4467 64.5364 29.4467 64.5364Z" fill="white"/>
</mask>
<g mask="url(#mask2_34_2999)">
<path opacity="0.3" d="M47.6326 92.9621C47.6326 92.9621 51.2934 82.1057 50.7957 79.6379C50.298 77.1702 47.1391 68.1877 46.2492 67.4002C45.9793 67.156 45.2623 66.5833 44.3261 65.9053L43.6892 66.8275C43.6892 66.8275 46.9789 76.2816 47.0885 79.9495C47.194 83.3732 44.1363 92.4567 43.7145 93.6274C45.992 93.3074 47.6326 92.9621 47.6326 92.9621Z" fill="black"/>
</g>
<path d="M29.4467 64.5364C29.4467 64.5364 34.5836 62.2666 37.1563 62.2666C39.729 62.2666 45.3593 66.6083 46.2492 67.4C47.1391 68.1917 50.3023 77.1699 50.7957 79.6377C51.2892 82.1054 47.6326 92.9618 47.6326 92.9618C47.6326 92.9618 41.0111 94.3431 36.0682 94.1494C31.1253 93.9557 28.949 93.3577 28.949 93.3577C28.949 93.3577 26.9752 83.4867 25.9968 77.6626C25.0183 71.8386 23.9218 67.977 24.8117 66.5115C25.7015 65.046 29.4467 64.5364 29.4467 64.5364Z" stroke="#263238" stroke-width="0.5" stroke-linecap="round" stroke-linejoin="round"/>
<path d="M41.7998 63.7451C41.7998 63.7451 46.9409 72.9255 48.4255 78.6527C49.9101 84.3799 52.3773 108.362 53.4654 109.449C54.2024 110.153 55.0343 110.751 55.9369 111.226C55.9369 111.226 52.9846 95.0383 52.9846 90.1997C52.9846 85.3611 53.7775 66.4108 53.2799 65.3243C52.7822 64.2378 51.1078 64.8316 47.6453 64.4357C44.1827 64.0399 41.7998 63.7451 41.7998 63.7451Z" fill="#108ED6" stroke="#263238" stroke-width="0.5" stroke-linecap="round" stroke-linejoin="round"/>
<path d="M33.3521 61.7617L16.9038 67.99C16.9038 67.99 17.4943 87.1382 17.6925 89.606C17.8907 92.0737 18.8818 93.3581 20.2652 94.3436C21.6485 95.329 22.142 94.1498 22.142 94.1498C22.142 94.1498 19.3753 104.514 17.6925 108.047C16.0097 111.58 16.9038 111.799 16.9038 111.799C16.9038 111.799 23.3271 114.561 27.9748 113.083C32.6225 111.605 34.0058 108.245 34.0058 108.245L31.4205 77.9663C31.4205 77.9663 31.4205 69.2787 31.9139 67.3036C32.4074 65.3286 33.3521 61.7617 33.3521 61.7617Z" fill="#108ED6" stroke="#263238" stroke-width="0.5" stroke-linecap="round" stroke-linejoin="round"/>
<path d="M21.7583 99.321C21.7583 99.321 26.6759 99.46 29.624 98.3398V100.163C27.4364 100.458 25.2308 100.599 23.0236 100.584" stroke="#263238" stroke-width="0.5" stroke-linecap="round" stroke-linejoin="round"/>
<path d="M20.3538 68.0361C20.3538 68.0361 24.7104 70.984 26.1149 75.6162" stroke="#263238" stroke-width="0.5" stroke-linecap="round" stroke-linejoin="round"/>
<path d="M33.3522 61.7614C32.9118 62.1214 32.5091 62.5249 32.1502 62.9658C31.585 63.6691 30.0414 66.9201 29.1094 67.9055C28.1773 68.891 28.6876 69.1057 29.0419 69.0383C29.3962 68.971 32.787 67.775 33.4239 67.4844C33.9556 67.2663 34.4991 67.0779 35.0518 66.9201L40.1424 71.9314L41.5594 66.8485C41.5594 66.8485 46.8608 67.2697 47.4977 67.3412C48.1345 67.4128 48.628 67.0591 48.1345 67.0591C47.6411 67.0591 43.5374 65.0125 42.9723 64.7303C42.4072 64.4482 41.6269 62.7511 39.9315 61.6225C38.236 60.4939 34.5584 60.1401 33.3522 61.7614Z" fill="white" stroke="#263238" stroke-width="0.5" stroke-linecap="round" stroke-linejoin="round"/>
<path d="M40.4966 63.4579L40.1423 71.9308C40.1423 71.9308 34.9801 65.433 34.3264 64.6581C33.8772 63.9965 33.5646 63.252 33.407 62.4683L33.9721 55.124C33.9721 55.124 37.2955 60.4933 38.1475 61.0576C38.9994 61.6219 40.4249 62.7505 40.4966 63.4579Z" fill="white" stroke="#263238" stroke-width="0.5" stroke-linecap="round" stroke-linejoin="round"/>
<path d="M38.1642 61.0576C37.3207 60.4933 33.9889 55.124 33.9889 55.124L33.5671 60.6238C34.2166 61.9335 39.2059 64.8645 40.0368 64.9992C40.1663 65.0232 40.2974 65.0373 40.429 65.0413L40.4965 63.4579C40.4248 62.7505 39.0119 61.6219 38.1642 61.0576Z" fill="#263238" stroke="#263238" stroke-width="0.5" stroke-linecap="round" stroke-linejoin="round"/>
<path d="M46.5782 46.2266C46.5782 46.2266 39.012 50.6778 36.7472 51.7348L35.4819 52.0885C35.4819 52.0885 33.854 49.7597 33.0737 50.2524C32.2935 50.7452 31.8717 52.0169 32.2977 53.1497C32.6757 53.9451 33.2577 54.6265 33.9847 55.1248C33.9847 55.1248 34.0564 58.5148 34.5541 59.7865C35.0517 61.0583 40.2308 64.0946 41.0743 64.2335C41.9178 64.3725 42.7023 64.2335 43.1283 63.4587C43.5542 62.6838 46.2366 59.5044 47.4385 55.1248C48.6405 50.7452 47.9236 46.934 46.5782 46.2266Z" fill="#FFC2A6" stroke="#263238" stroke-width="0.5" stroke-linecap="round" stroke-linejoin="round"/>
<path d="M44.8786 53.3604L45.0937 57.4578L42.8289 56.9609" stroke="#263238" stroke-width="0.5" stroke-linecap="round" stroke-linejoin="round"/>
<path d="M40.0032 57.457C40.0032 57.457 40.4966 58.0887 42.5337 58.7962" stroke="#263238" stroke-width="0.5" stroke-linecap="round" stroke-linejoin="round"/>
<path d="M39.6489 52.8672C39.6489 52.8672 40.2141 54.0674 42.2638 53.642" stroke="#263238" stroke-width="0.5" stroke-linecap="round" stroke-linejoin="round"/>
<path d="M45.6589 54.4883C45.8097 54.7308 46.0405 54.9131 46.3115 55.0038C46.5826 55.0946 46.8768 55.088 47.1435 54.9852" stroke="#263238" stroke-width="0.5" stroke-linecap="round" stroke-linejoin="round"/>
<path d="M40.231 50.8882C40.7564 50.6649 41.3216 50.5498 41.8927 50.5498C42.4637 50.5498 43.0289 50.6649 43.5544 50.8882" stroke="#263238" stroke-width="0.5" stroke-linecap="round" stroke-linejoin="round"/>
<path d="M47.7085 52.5134C47.426 51.7343 46.1565 51.4521 46.1565 51.4521" stroke="#263238" stroke-width="0.5" stroke-linecap="round" stroke-linejoin="round"/>
<path d="M60.572 83.1035L54.2458 84.5227C54.2458 84.5227 46.397 84.1816 45.8108 84.409C45.2245 84.6364 45.7559 86.9652 45.7559 86.9652C44.9037 87.0269 44.0481 87.0269 43.1959 86.9652C42.2301 86.8515 41.7746 87.0241 42.0023 87.6474C42.2301 88.2706 43.1959 88.8391 44.1111 88.8391C45.0473 88.7744 45.9776 88.6421 46.8947 88.4433C46.8947 88.4433 49.2269 89.2855 50.0831 89.2855C50.9392 89.2855 52.1918 88.5486 52.1918 88.5486C52.1918 88.5486 53.727 88.6033 54.5241 88.6623C55.3212 88.7212 56.3419 87.6937 56.3419 87.6937L62.5416 87.5252L60.572 83.1035Z" fill="#FFC2A6" stroke="#263238" stroke-width="0.5" stroke-linecap="round" stroke-linejoin="round"/>
<path d="M44.7604 84.0127C44.7604 84.0127 43.28 84.1264 43.28 84.5812C43.28 85.036 44.4778 88.4429 44.4778 88.4429L46.8649 88.6703C46.8649 88.6703 47.2065 88.5566 46.9197 88.1017C46.5886 87.6787 46.2077 87.2969 45.7852 86.9647L45.8401 84.4085L44.7604 84.0127Z" fill="#FFC2A6" stroke="#263238" stroke-width="0.5" stroke-linecap="round" stroke-linejoin="round"/>
<path d="M47.1982 83.6131C47.1982 83.6131 44.6213 83.3899 44.5243 83.6805C44.4273 83.9711 44.946 88.3128 44.946 88.3128C44.946 88.3128 47.5525 88.8729 47.8983 88.8476C47.9875 88.8371 48.072 88.8017 48.1422 88.7457C48.2123 88.6896 48.2653 88.615 48.2952 88.5304C48.325 88.4458 48.3305 88.3545 48.3111 88.2669C48.2916 88.1793 48.248 88.0989 48.1851 88.0349C47.7635 87.7096 47.3048 87.4354 46.8186 87.2179L47.1982 83.6131Z" fill="#FFC2A6" stroke="#263238" stroke-width="0.5" stroke-linecap="round" stroke-linejoin="round"/>
<path d="M48.687 83.3305C48.687 83.3305 46.127 82.9094 46.0131 83.2168C45.8992 83.5242 46.127 87.8744 46.127 87.8744C46.127 87.8744 48.687 88.6113 49.0244 88.6113C49.1142 88.606 49.2008 88.5757 49.2744 88.5241C49.348 88.4724 49.4058 88.4013 49.4413 88.3187C49.4767 88.2361 49.4885 88.1452 49.4752 88.0564C49.4619 87.9675 49.4241 87.8841 49.366 87.8154C48.9672 87.4635 48.5284 87.1596 48.0586 86.91L48.687 83.3305Z" fill="#FFC2A6" stroke="#263238" stroke-width="0.5" stroke-linecap="round" stroke-linejoin="round"/>
<path d="M55.2831 85.0322C55.2831 85.0322 48.9105 82.6487 48.5731 82.535C48.2356 82.4213 48.0037 82.5939 48.0037 82.8213C48.0037 83.0487 46.9788 87.2304 47.3205 87.5336C47.6621 87.8368 49.7076 88.4432 49.7076 88.4432C49.7076 88.4432 50.2769 88.0432 50.336 87.8747C50.395 87.7063 49.7076 87.2473 49.7076 87.2473L49.8214 85.9839L51.3018 86.4935" fill="#FFC2A6"/>
<path d="M55.2831 85.0322C55.2831 85.0322 48.9105 82.6487 48.5731 82.535C48.2356 82.4213 48.0037 82.5939 48.0037 82.8213C48.0037 83.0487 46.9788 87.2304 47.3205 87.5336C47.6621 87.8368 49.7076 88.4432 49.7076 88.4432C49.7076 88.4432 50.2769 88.0432 50.336 87.8747C50.395 87.7063 49.7076 87.2473 49.7076 87.2473L49.8214 85.9839L51.3018 86.4935" stroke="#263238" stroke-width="0.5" stroke-linecap="round" stroke-linejoin="round"/>
<path d="M55.9075 84.0679C55.9075 84.0679 57.333 85.7523 56.6497 87.5337H58.1259C58.1259 87.5337 58.6952 84.6953 57.3878 83.8994L55.9075 84.0679Z" fill="#263238" stroke="#263238" stroke-width="0.5" stroke-linecap="round" stroke-linejoin="round"/>
<path d="M58.1257 83.2173C58.1257 83.2173 59.1337 84.5312 59.391 88.9403C59.4416 89.7573 70.0571 88.3297 73.0135 87.7612C75.97 87.1927 77.1087 86.0767 77.3365 83.6132C77.5642 81.1496 74.8313 78.6735 72.7858 77.8228C70.7403 76.9721 58.1257 83.2173 58.1257 83.2173Z" fill="#108ED6" stroke="#263238" stroke-width="0.5" stroke-linecap="round" stroke-linejoin="round"/>
<path d="M31.133 48.0783L27.4146 49.9278C27.008 50.13 26.8426 50.623 27.0452 51.029L31.9251 60.8105C32.1277 61.2165 32.6214 61.3816 33.028 61.1794L36.7464 59.3299C37.1529 59.1276 37.3183 58.6346 37.1158 58.2287L32.2359 48.4471C32.0333 48.0412 31.5396 47.876 31.133 48.0783Z" fill="#108ED6" stroke="#263238" stroke-width="0.5" stroke-linecap="round" stroke-linejoin="round"/>
<path d="M28.1899 67.9051L29.181 63.8834L27.0723 57.2424C27.0723 57.2424 28.9828 52.3701 29.3371 51.8774C29.6913 51.3847 30.6023 50.8878 30.9608 51.0351C31.3193 51.1825 31.3151 51.671 30.8216 51.9532C30.4732 52.2011 30.2026 52.5429 30.0414 52.9386L28.9828 56.5434L29.4636 57.3308L30.809 53.2334C30.809 53.2334 34.6975 52.7407 34.9084 52.7407C35.1193 52.7407 35.9712 52.8123 35.5452 53.3766C35.3087 53.7056 34.956 53.9328 34.5583 54.0124H36.1821C36.1821 54.0124 36.7472 54.2946 36.393 54.7199C36.0387 55.1452 33.6389 55.7769 33.6389 55.7769L32.7195 58.6742L34.4866 56.6234L36.2538 56.3412C36.2538 56.3412 37.4558 56.6234 37.2449 57.1203C37.034 57.6172 35.9796 57.3308 35.9796 57.3308L34.9168 57.8951L33.2931 60.843V64.5151C33.2931 65.4331 31.6651 68.7558 31.6651 68.7558L28.1899 67.9051Z" fill="#FFC2A6" stroke="#263238" stroke-width="0.5" stroke-linecap="round" stroke-linejoin="round"/>
<path d="M34.5541 53.9961L32.1502 54.5604L30.8765 58.6579" stroke="#263238" stroke-width="0.5" stroke-linecap="round" stroke-linejoin="round"/>
<path d="M27.3676 66.5957L33.795 68.7687C33.795 68.7687 28.7003 91.2226 27.8905 93.2777C26.6 96.5961 22.024 95.9097 20.143 95.3201C18.262 94.7306 17.1907 91.0753 17.6715 89.5929C18.1523 88.1106 27.3676 66.5957 27.3676 66.5957Z" fill="#108ED6" stroke="#263238" stroke-width="0.5" stroke-linecap="round" stroke-linejoin="round"/>
</svg>
