<svg width="165" height="153" viewBox="0 0 165 153" fill="none" xmlns="http://www.w3.org/2000/svg">
<path d="M15.183 86.5157L13.3101 81.164L15.183 83.4385L13.7116 75.4113L15.9857 81.164L16.7887 69.9258L18.1268 80.6291L19.5982 78.4884V81.164L21.3377 77.5519L20.4008 83.8401L22.0065 82.7697L19.4643 86.2484L15.183 86.5157Z" fill="#14D610"/>
<path d="M21.07 85.1787H14.1127L15.3652 99.2268H19.8175L21.07 85.1787Z" fill="#263238" stroke="#263238" stroke-miterlimit="10" stroke-linecap="round" stroke-linejoin="round"/>
<path d="M34.1175 99.0645H10.4167V149.266H34.1175V99.0645Z" fill="white" stroke="#263238" stroke-miterlimit="10" stroke-linecap="round" stroke-linejoin="round"/>
<path d="M35.4166 99.0645H22.2673V149.266H35.4166V99.0645Z" fill="white" stroke="#263238" stroke-miterlimit="10" stroke-linecap="round" stroke-linejoin="round"/>
<path d="M33.9349 99.0645H22.2673V149.266H33.9349V99.0645Z" fill="#263238" stroke="#263238" stroke-miterlimit="10" stroke-linecap="round" stroke-linejoin="round"/>
<path d="M32.6247 137.597H22.2674V147.877H32.6247V137.597Z" fill="#1F51C6" stroke="#263238" stroke-miterlimit="10" stroke-linecap="round" stroke-linejoin="round"/>
<path d="M32.6247 138.152H22.2674V139.47H32.6247V138.152Z" fill="white" stroke="#263238" stroke-miterlimit="10" stroke-linecap="round" stroke-linejoin="round"/>
<path d="M32.6247 145.72H22.2674V147.038H32.6247V145.72Z" fill="white" stroke="#263238" stroke-miterlimit="10" stroke-linecap="round" stroke-linejoin="round"/>
<path d="M24.2319 137.808V150.807" stroke="#263238" stroke-miterlimit="10" stroke-linecap="round" stroke-linejoin="round"/>
<path d="M27.8435 137.808V150.807" stroke="#263238" stroke-miterlimit="10" stroke-linecap="round" stroke-linejoin="round"/>
<path d="M31.0152 137.808V150.807" stroke="#263238" stroke-miterlimit="10" stroke-linecap="round" stroke-linejoin="round"/>
<path d="M32.6247 100.931H22.2673V116.047H32.6247V100.931Z" fill="#1F51C6" stroke="#263238" stroke-miterlimit="10" stroke-linecap="round" stroke-linejoin="round"/>
<path d="M32.6247 101.562H22.2673V103.06H32.6247V101.562Z" fill="white" stroke="#263238" stroke-miterlimit="10" stroke-linecap="round" stroke-linejoin="round"/>
<path d="M32.6247 111.252H22.2673V112.749H32.6247V111.252Z" fill="white" stroke="#263238" stroke-miterlimit="10" stroke-linecap="round" stroke-linejoin="round"/>
<path d="M24.2318 101.171V115.943" stroke="#263238" stroke-miterlimit="10" stroke-linecap="round" stroke-linejoin="round"/>
<path d="M27.8434 101.171V115.943" stroke="#263238" stroke-miterlimit="10" stroke-linecap="round" stroke-linejoin="round"/>
<path d="M31.0151 101.171V115.943" stroke="#263238" stroke-miterlimit="10" stroke-linecap="round" stroke-linejoin="round"/>
<path d="M32.6247 119.149H22.2673V134.266H32.6247V119.149Z" fill="#1F51C6" stroke="#263238" stroke-miterlimit="10" stroke-linecap="round" stroke-linejoin="round"/>
<path d="M32.6247 119.781H22.2673V121.279H32.6247V119.781Z" fill="white" stroke="#263238" stroke-miterlimit="10" stroke-linecap="round" stroke-linejoin="round"/>
<path d="M32.6247 129.472H22.2673V130.969H32.6247V129.472Z" fill="white" stroke="#263238" stroke-miterlimit="10" stroke-linecap="round" stroke-linejoin="round"/>
<path d="M24.2318 119.39V134.161" stroke="#263238" stroke-miterlimit="10" stroke-linecap="round" stroke-linejoin="round"/>
<path d="M27.8434 119.39V134.161" stroke="#263238" stroke-miterlimit="10" stroke-linecap="round" stroke-linejoin="round"/>
<path d="M31.0151 119.39V134.161" stroke="#263238" stroke-miterlimit="10" stroke-linecap="round" stroke-linejoin="round"/>
<path d="M34.1179 115.838H22.2673V117.556H34.1179V115.838Z" fill="white" stroke="#263238" stroke-miterlimit="10" stroke-linecap="round" stroke-linejoin="round"/>
<path d="M34.1179 134.171H22.2673V135.89H34.1179V134.171Z" fill="white" stroke="#263238" stroke-miterlimit="10" stroke-linecap="round" stroke-linejoin="round"/>
<path d="M34.1179 99.0645V149.266" stroke="#263238" stroke-miterlimit="10" stroke-linecap="round" stroke-linejoin="round"/>
<path d="M20.597 99.0643V149.265H22.2673V100.93H33.9127V99.0459L20.597 99.0643Z" fill="white" stroke="#263238" stroke-miterlimit="10" stroke-linecap="round" stroke-linejoin="round"/>
<path d="M22.2673 100.931V99.0645" stroke="#263238" stroke-miterlimit="10" stroke-linecap="round" stroke-linejoin="round"/>
<path d="M34.0281 76.0039C32.7816 73.608 32.2591 71.8859 32.2591 71.4891C32.2591 70.7049 33.985 70.2341 33.985 70.2341C36.652 68.8221 49.2035 70.8618 54.8515 71.803C60.4994 72.7442 64.422 72.7442 64.422 72.7442C64.422 72.7442 65.2067 72.1164 66.1479 71.3322C67.089 70.5479 71.4824 65.3703 73.2078 64.8995C74.9337 64.4287 76.5026 65.5273 76.5026 65.5273C76.5026 65.5273 79.3266 67.2531 78.8558 67.567C78.385 67.8809 71.482 73.8427 69.7561 74.9409C68.0302 76.039 64.4216 75.5686 61.2841 76.1959C58.5829 76.736 47.6345 77.4035 45.1244 77.6079C45.1244 77.6079 42.6143 78.3922 39.4764 77.1371" fill="#FFC2A6"/>
<mask id="mask0_62_2368" style="mask-type:luminance" maskUnits="userSpaceOnUse" x="32" y="64" width="47" height="14">
<path d="M34.0281 76.0049C32.7816 73.6089 32.2591 71.8869 32.2591 71.4901C32.2591 70.7058 33.985 70.235 33.985 70.235C36.652 68.823 49.2035 70.8628 54.8515 71.804C60.4994 72.7452 64.422 72.7452 64.422 72.7452C64.422 72.7452 65.2067 72.1174 66.1479 71.3332C67.089 70.5489 71.4824 65.3713 73.2078 64.9005C74.9337 64.4297 76.5026 65.5282 76.5026 65.5282C76.5026 65.5282 79.3266 67.2541 78.8558 67.568C78.385 67.8819 71.482 73.8437 69.7561 74.9418C68.0302 76.04 64.4216 75.5696 61.2841 76.1969C58.5829 76.737 47.6345 77.4045 45.1244 77.6089C45.1244 77.6089 42.6143 78.3931 39.4764 77.1381" fill="white"/>
</mask>
<g mask="url(#mask0_62_2368)">
<path d="M76.5026 65.5281C76.5026 65.5281 74.9337 64.43 73.2078 64.9003C71.482 65.3712 67.089 70.5483 66.1479 71.333C65.2067 72.1173 64.422 72.745 64.422 72.745C64.422 72.745 60.4999 72.745 54.8515 71.8038C49.2035 70.8626 36.652 68.8229 33.985 70.2349C33.985 70.2349 32.2591 70.7057 32.2591 71.4899C32.2591 71.6695 32.3677 72.1233 32.6008 72.7861C32.7491 72.8395 32.8351 72.8703 32.8351 72.8703C32.8351 72.8703 35.9695 72.5402 42.7332 72.7052C49.4968 72.8703 65.1464 73.794 66.1474 74.157C66.5994 74.3208 69.6081 73.6349 72.9679 72.4555C75.5221 70.3649 78.5492 67.7718 78.8554 67.5674C79.3266 67.254 76.5026 65.5281 76.5026 65.5281Z" fill="#F08D5F"/>
</g>
<mask id="mask1_62_2368" style="mask-type:luminance" maskUnits="userSpaceOnUse" x="32" y="64" width="47" height="14">
<path d="M34.0281 76.0049C32.7816 73.6089 32.2591 71.8869 32.2591 71.4901C32.2591 70.7058 33.985 70.235 33.985 70.235C36.652 68.823 49.2035 70.8628 54.8515 71.804C60.4994 72.7452 64.422 72.7452 64.422 72.7452C64.422 72.7452 65.2067 72.1174 66.1479 71.3332C67.089 70.5489 71.4824 65.3713 73.2078 64.9005C74.9337 64.4297 76.5026 65.5282 76.5026 65.5282C76.5026 65.5282 79.3266 67.2541 78.8558 67.568C78.385 67.8819 71.482 73.8437 69.7561 74.9418C68.0302 76.04 64.4216 75.5696 61.2841 76.1969C58.5829 76.737 47.6345 77.4045 45.1244 77.6089C45.1244 77.6089 42.6143 78.3931 39.4764 77.1381" fill="white"/>
</mask>
<g mask="url(#mask1_62_2368)">
<path opacity="0.5" d="M76.5026 65.5281C76.5026 65.5281 74.9337 64.43 73.2078 64.9003C71.482 65.3712 67.089 70.5483 66.1479 71.333C65.2067 72.1173 64.422 72.745 64.422 72.745C64.422 72.745 60.4999 72.745 54.8515 71.8038C49.2035 70.8626 36.652 68.8229 33.985 70.2349C33.985 70.2349 32.2591 70.7057 32.2591 71.4899C32.2591 71.6695 32.3677 72.1233 32.6008 72.7861C32.7491 72.8395 32.8351 72.8703 32.8351 72.8703C32.8351 72.8703 35.9695 72.5402 42.7332 72.7052C49.4968 72.8703 65.1464 73.794 66.1474 74.157C66.5994 74.3208 69.6081 73.6349 72.9679 72.4555C75.5221 70.3649 78.5492 67.7718 78.8554 67.5674C79.3266 67.254 76.5026 65.5281 76.5026 65.5281Z" fill="#FFC2A6"/>
</g>
<path d="M34.0281 76.0039C32.7816 73.608 32.2591 71.8859 32.2591 71.4891C32.2591 70.7049 33.985 70.2341 33.985 70.2341C36.652 68.8221 49.2035 70.8618 54.8515 71.803C60.4994 72.7442 64.422 72.7442 64.422 72.7442C64.422 72.7442 65.2067 72.1164 66.1479 71.3322C67.089 70.5479 71.4824 65.3703 73.2078 64.8995C74.9337 64.4287 76.5026 65.5273 76.5026 65.5273C76.5026 65.5273 79.3266 67.2531 78.8558 67.567C78.385 67.8809 71.482 73.8427 69.7561 74.9409C68.0302 76.039 64.4216 75.5686 61.2841 76.1959C58.5829 76.736 47.6345 77.4035 45.1244 77.6079C45.1244 77.6079 42.6143 78.3922 39.4764 77.1371" stroke="#263238" stroke-miterlimit="10" stroke-linecap="round" stroke-linejoin="round"/>
<path d="M95.9935 89.9522C96.569 88.8537 97.7112 88.1699 98.9517 88.1699H127.475C127.475 88.1699 129.537 88.1699 128.918 92.0873C128.3 96.0047 119.846 119.921 117.784 127.138C115.722 134.354 115.31 149.611 115.31 149.611H81.0845C81.085 149.612 83.8269 113.18 95.9935 89.9522Z" fill="#1F51C6"/>
<mask id="mask2_62_2368" style="mask-type:luminance" maskUnits="userSpaceOnUse" x="81" y="88" width="49" height="62">
<path d="M95.9934 89.9513C96.569 88.8527 97.7111 88.1689 98.9517 88.1689H127.475C127.475 88.1689 129.537 88.1689 128.918 92.0863C128.3 96.0038 119.846 119.92 117.784 127.137C115.722 134.353 115.31 149.61 115.31 149.61H81.0845C81.0849 149.611 83.8268 113.179 95.9934 89.9513Z" fill="white"/>
</mask>
<g mask="url(#mask2_62_2368)">
<path opacity="0.16" d="M108.84 88.1699H98.9516C97.7111 88.1699 96.5689 88.8533 95.9933 89.9522C83.8272 113.179 81.0848 149.611 81.0848 149.611H96.4308L100.213 135.24L115.993 138.493C116.105 137.288 116.234 136.061 116.381 134.852L116.038 130.986C116.038 130.986 112.805 127.583 111.784 126.732C110.763 125.881 111.443 124.35 111.273 117.714C111.103 111.077 105.147 106.313 102.935 102.229C100.723 98.1454 104.127 95.593 107.189 91.5092C108.281 90.0536 108.722 88.9674 108.84 88.1699Z" fill="black"/>
</g>
<path d="M95.9935 89.9522C96.569 88.8537 97.7112 88.1699 98.9517 88.1699H127.475C127.475 88.1699 129.537 88.1699 128.918 92.0873C128.3 96.0047 119.846 119.921 117.784 127.138C115.722 134.354 115.31 149.611 115.31 149.611H81.0845C81.085 149.612 83.8269 113.18 95.9935 89.9522Z" stroke="#263238" stroke-miterlimit="10" stroke-linecap="round" stroke-linejoin="round"/>
<path d="M122.527 94.9738C119.643 101.702 113.534 128.327 112.554 149.611H115.31C115.31 149.611 115.723 134.354 117.785 127.138C119.846 119.921 128.3 96.0048 128.918 92.0873C129.537 88.1699 127.475 88.1699 127.475 88.1699C127.475 88.1699 124.839 89.5802 122.527 94.9738Z" fill="#263238" stroke="#263238" stroke-miterlimit="10" stroke-linecap="round" stroke-linejoin="round"/>
<path d="M72.4236 81.5298C72.4236 81.5298 67.8737 78.8627 66.1479 74.1559C64.422 69.4491 79.6405 61.9183 86.2301 61.4475C92.8197 60.9767 94.7025 62.7026 98.6246 69.4491C102.547 76.1956 105.214 85.4523 103.175 90.0022C101.135 94.552 97.6835 95.6502 100.194 99.4158C102.704 103.181 109.764 113.85 109.293 118.87C108.822 123.891 103.959 128.284 96.8988 128.755C89.8388 129.225 80.4252 124.989 72.5805 118.086C64.7359 111.183 66.7756 100.985 69.5996 97.6899C72.4236 94.3951 76.6596 93.14 76.9735 89.8452C77.2869 86.5504 72.4236 81.5298 72.4236 81.5298Z" fill="#263238" stroke="#263238" stroke-miterlimit="10" stroke-linecap="round" stroke-linejoin="round"/>
<path d="M91.8135 74.084C94.2317 78.5825 97.2541 84.6081 98.1974 88.2476C99.8493 94.6182 91.3547 98.6297 93.7143 101.697" stroke="#FFC2A6" stroke-miterlimit="10" stroke-linecap="round" stroke-linejoin="round"/>
<path d="M88.5234 68.1904C88.5234 68.1904 89.4628 69.7931 90.7654 72.157" stroke="#FFC2A6" stroke-miterlimit="10" stroke-linecap="round" stroke-linejoin="round"/>
<path d="M101.197 79.5098C101.474 80.3684 101.662 81.2391 101.737 82.1123" stroke="#FFC2A6" stroke-miterlimit="10" stroke-linecap="round" stroke-linejoin="round"/>
<path d="M90.1749 65.8311C90.1749 65.8311 97.6043 71.3225 100.571 77.8955" stroke="#FFC2A6" stroke-miterlimit="10" stroke-linecap="round" stroke-linejoin="round"/>
<path d="M79.8402 69.9688C74.533 71.4603 66.903 73.8742 67.5235 75.2695" stroke="#FFC2A6" stroke-miterlimit="10" stroke-linecap="round" stroke-linejoin="round"/>
<path d="M84.7479 68.6621C84.7479 68.6621 83.6122 68.9422 81.924 69.3959" stroke="#FFC2A6" stroke-miterlimit="10" stroke-linecap="round" stroke-linejoin="round"/>
<path d="M78.1789 65.8932C80.1276 65.2505 83.3377 64.5145 87.5797 64.6514" stroke="#FFC2A6" stroke-miterlimit="10" stroke-linecap="round" stroke-linejoin="round"/>
<path d="M76.0177 66.7753C76.0177 66.7753 76.5308 66.4901 77.5075 66.1279" stroke="#FFC2A6" stroke-miterlimit="10" stroke-linecap="round" stroke-linejoin="round"/>
<path d="M32.2591 71.4893C32.2591 71.5141 32.2612 71.544 32.2651 71.5786C32.2612 71.544 32.2591 71.5141 32.2591 71.4893ZM34.0281 76.0036C33.0164 74.0584 32.4815 72.5574 32.316 71.8497C32.481 72.557 33.016 74.058 34.0281 76.0036ZM32.2689 71.6034C32.2728 71.6325 32.2771 71.6624 32.2839 71.6979C32.2771 71.6629 32.2732 71.6329 32.2689 71.6034ZM32.2895 71.7244C32.2967 71.7629 32.3053 71.8027 32.3155 71.8476C32.3049 71.8027 32.2967 71.7629 32.2895 71.7244ZM34.0281 76.0036C35.246 78.3453 37.1549 81.33 39.9464 84.3542C45.5944 90.473 61.9114 106.476 63.4804 107.574C65.0493 108.672 64.5785 111.81 63.4804 114.948C62.3822 118.086 58.3028 122.636 58.4597 127.657C58.6166 132.677 60.1856 140.365 60.0286 141.934C59.8717 143.503 55.9496 148.837 55.9496 148.837H96.4279C96.4279 148.837 91.3855 142.428 91.3855 140.231C91.3855 138.035 98.3107 109.928 98.6246 107.888C98.9385 105.848 97.6834 104.436 95.1729 104.279C92.6628 104.123 83.0922 102.083 82.6214 100.514C82.1506 98.9449 85.1315 92.9831 85.1315 92.9831L75.718 93.4539C75.718 93.4539 75.2472 97.5329 74.6198 98.3176C73.9921 99.1023 73.0509 97.5329 70.8547 96.4348C68.658 95.3367 64.422 94.3951 62.8531 93.14C61.2841 91.8849 46.2225 77.7646 46.2225 77.7646" fill="#FFC2A6"/>
<mask id="mask3_62_2368" style="mask-type:luminance" maskUnits="userSpaceOnUse" x="32" y="71" width="67" height="78">
<path d="M32.2591 71.4902C32.2591 71.515 32.2612 71.545 32.2651 71.5796C32.2612 71.545 32.2591 71.515 32.2591 71.4902ZM34.0281 76.0046C33.0164 74.0594 32.4815 72.5584 32.316 71.8507C32.481 72.558 33.016 74.0589 34.0281 76.0046ZM32.2689 71.6044C32.2728 71.6335 32.2771 71.6634 32.2839 71.6989C32.2771 71.6639 32.2732 71.6339 32.2689 71.6044ZM32.2895 71.7254C32.2967 71.7639 32.3053 71.8037 32.3155 71.8486C32.3049 71.8037 32.2967 71.7639 32.2895 71.7254ZM34.0281 76.0046C35.246 78.3462 37.1549 81.331 39.9464 84.3551C45.5944 90.4739 61.9114 106.477 63.4804 107.575C65.0493 108.673 64.5785 111.811 63.4804 114.949C62.3822 118.087 58.3028 122.637 58.4597 127.658C58.6166 132.678 60.1856 140.366 60.0286 141.935C59.8717 143.504 55.9496 148.838 55.9496 148.838H96.4279C96.4279 148.838 91.3855 142.429 91.3855 140.232C91.3855 138.036 98.3107 109.929 98.6246 107.889C98.9385 105.849 97.6834 104.437 95.1729 104.28C92.6628 104.124 83.0922 102.084 82.6214 100.515C82.1506 98.9459 85.1315 92.984 85.1315 92.984L75.718 93.4549C75.718 93.4549 75.2472 97.5339 74.6198 98.3186C73.9921 99.1033 73.0509 97.5339 70.8547 96.4358C68.658 95.3377 64.422 94.396 62.8531 93.141C61.2841 91.8859 46.2225 77.7655 46.2225 77.7655" fill="white"/>
</mask>
<g mask="url(#mask3_62_2368)">
<path d="M65.2546 94.3525C66.0393 95.7205 66.8192 96.9555 66.8192 96.9555C66.8192 96.9555 69.4589 98.4402 70.1187 98.4402C70.7786 98.4402 74.7379 100.585 74.7379 100.585C74.7379 100.585 78.0374 99.7598 76.8824 96.9555C76.6793 96.462 76.1858 95.7769 75.5063 94.979C75.31 96.2242 74.9927 97.8522 74.6198 98.3183C73.9921 99.103 73.0509 97.5336 70.8547 96.4355C69.4196 95.7179 67.1181 95.0671 65.2546 94.3525Z" fill="#108ED6"/>
<path d="M57.2003 88.0003C52.3537 83.5125 46.2225 77.7649 46.2225 77.7649L42.6566 77.25L42.2388 77.4886C42.2388 77.4886 52.302 86.3972 54.4465 87.3867C55.7755 88.0003 56.4708 87.9169 57.2003 88.0003Z" fill="#108ED6"/>
<path d="M62.2766 92.6447C62.1607 92.5425 62.0324 92.4279 61.8917 92.3018C62.0867 92.625 62.1996 92.8307 62.1996 92.8307C62.1996 92.8307 62.2274 92.7576 62.2766 92.6447Z" fill="#108ED6"/>
</g>
<mask id="mask4_62_2368" style="mask-type:luminance" maskUnits="userSpaceOnUse" x="32" y="71" width="67" height="78">
<path d="M32.2591 71.4902C32.2591 71.515 32.2612 71.545 32.2651 71.5796C32.2612 71.545 32.2591 71.515 32.2591 71.4902ZM34.0281 76.0046C33.0164 74.0594 32.4815 72.5584 32.316 71.8507C32.481 72.558 33.016 74.0589 34.0281 76.0046ZM32.2689 71.6044C32.2728 71.6335 32.2771 71.6634 32.2839 71.6989C32.2771 71.6639 32.2732 71.6339 32.2689 71.6044ZM32.2895 71.7254C32.2967 71.7639 32.3053 71.8037 32.3155 71.8486C32.3049 71.8037 32.2967 71.7639 32.2895 71.7254ZM34.0281 76.0046C35.246 78.3462 37.1549 81.331 39.9464 84.3551C45.5944 90.4739 61.9114 106.477 63.4804 107.575C65.0493 108.673 64.5785 111.811 63.4804 114.949C62.3822 118.087 58.3028 122.637 58.4597 127.658C58.6166 132.678 60.1856 140.366 60.0286 141.935C59.8717 143.504 55.9496 148.838 55.9496 148.838H96.4279C96.4279 148.838 91.3855 142.429 91.3855 140.232C91.3855 138.036 98.3107 109.929 98.6246 107.889C98.9385 105.849 97.6834 104.437 95.1729 104.28C92.6628 104.124 83.0922 102.084 82.6214 100.515C82.1506 98.9459 85.1315 92.984 85.1315 92.984L75.718 93.4549C75.718 93.4549 75.2472 97.5339 74.6198 98.3186C73.9921 99.1033 73.0509 97.5339 70.8547 96.4358C68.658 95.3377 64.422 94.396 62.8531 93.141C61.2841 91.8859 46.2225 77.7655 46.2225 77.7655" fill="white"/>
</mask>
<g mask="url(#mask4_62_2368)">
<g opacity="0.5">
<path d="M65.2546 94.3525C66.0393 95.7205 66.8192 96.9555 66.8192 96.9555C66.8192 96.9555 69.4589 98.4402 70.1187 98.4402C70.7786 98.4402 74.7379 100.585 74.7379 100.585C74.7379 100.585 78.0374 99.7598 76.8824 96.9555C76.6793 96.462 76.1858 95.7769 75.5063 94.979C75.31 96.2242 74.9927 97.8522 74.6198 98.3183C73.9921 99.103 73.0509 97.5336 70.8547 96.4355C69.4196 95.7179 67.1181 95.0671 65.2546 94.3525Z" fill="#FFC2A6"/>
<path d="M57.2003 88.0003C52.3537 83.5125 46.2225 77.7649 46.2225 77.7649L42.6566 77.25L42.2388 77.4886C42.2388 77.4886 52.302 86.3972 54.4465 87.3867C55.7755 88.0003 56.4708 87.9169 57.2003 88.0003Z" fill="#FFC2A6"/>
<path d="M62.2766 92.6447C62.1607 92.5425 62.0324 92.4279 61.8917 92.3018C62.0867 92.625 62.1996 92.8307 62.1996 92.8307C62.1996 92.8307 62.2274 92.7576 62.2766 92.6447Z" fill="#FFC2A6"/>
</g>
</g>
<path d="M34.0281 76.0036C35.246 78.3453 37.1549 81.33 39.9464 84.3542C45.5944 90.473 61.9114 106.476 63.4804 107.574C65.0493 108.672 64.5785 111.81 63.4804 114.948C62.3822 118.086 58.3028 122.636 58.4597 127.657C58.6166 132.677 60.1856 140.365 60.0286 141.934C59.8717 143.503 55.9496 148.837 55.9496 148.837H96.4279C96.4279 148.837 91.3855 142.428 91.3855 140.231C91.3855 138.035 98.3107 109.928 98.6246 107.888C98.9385 105.848 97.6834 104.436 95.1729 104.279C92.6628 104.123 83.0922 102.083 82.6214 100.514C82.1506 98.9449 85.1316 92.9831 85.1316 92.9831L75.718 93.4539C75.718 93.4539 75.2472 97.5329 74.6198 98.3176C73.9921 99.1023 73.0509 97.5329 70.8547 96.4348C68.658 95.3367 64.422 94.3951 62.8531 93.14C61.2841 91.8849 46.2225 77.7646 46.2225 77.7646M32.2591 71.4893C32.2591 71.5141 32.2612 71.544 32.2651 71.5786C32.2612 71.544 32.2591 71.5141 32.2591 71.4893ZM34.0281 76.0036C33.0164 74.0584 32.4815 72.5574 32.316 71.8497C32.481 72.557 33.016 74.058 34.0281 76.0036ZM32.2689 71.6034C32.2728 71.6325 32.2771 71.6624 32.2839 71.6979C32.2771 71.6629 32.2732 71.6329 32.2689 71.6034ZM32.2895 71.7244C32.2967 71.7629 32.3053 71.8027 32.3155 71.8476C32.3049 71.8027 32.2967 71.7629 32.2895 71.7244Z" stroke="#263238" stroke-miterlimit="10" stroke-linecap="round" stroke-linejoin="round"/>
<path d="M46.2226 77.7644C46.2226 77.7644 41.213 77.858 38.4134 75.5527" stroke="#263238" stroke-miterlimit="10" stroke-linecap="round" stroke-linejoin="round"/>
<path d="M82.6214 100.514C82.1506 98.9453 85.1316 92.9834 85.1316 92.9834L75.718 93.4542C75.718 93.4542 75.2472 97.5333 74.6198 98.3179C73.9921 99.1026 73.0509 97.5333 70.8547 96.4351C70.6875 96.3513 70.5049 96.2688 70.3159 96.1871L69.745 105.132C69.745 105.132 70.5699 113.792 80.4662 112.142C84.4726 111.474 88.7492 107.9 92.4207 103.883C88.6444 103.184 82.9806 101.712 82.6214 100.514Z" fill="#FFC2A6"/>
<mask id="mask5_62_2368" style="mask-type:luminance" maskUnits="userSpaceOnUse" x="69" y="92" width="24" height="21">
<path d="M82.6214 100.514C82.1506 98.9453 85.1316 92.9834 85.1316 92.9834L75.718 93.4542C75.718 93.4542 75.2472 97.5333 74.6198 98.3179C73.9921 99.1026 73.0509 97.5333 70.8547 96.4351C70.6875 96.3513 70.5049 96.2688 70.3159 96.1871L69.745 105.132C69.745 105.132 70.5699 113.792 80.4662 112.142C84.4726 111.474 88.7492 107.9 92.4207 103.883C88.6444 103.184 82.9806 101.712 82.6214 100.514Z" fill="white"/>
</mask>
<g mask="url(#mask5_62_2368)">
<path d="M82.3555 94.1658C82.3555 94.1658 81.7859 97.355 81.3305 100.886C80.8751 104.417 80.5334 107.036 80.5334 107.036L82.6215 100.515L84.9751 93.5967C84.9751 93.5967 82.6971 93.5967 82.3555 94.1658Z" fill="#108ED6"/>
</g>
<mask id="mask6_62_2368" style="mask-type:luminance" maskUnits="userSpaceOnUse" x="69" y="92" width="24" height="21">
<path d="M82.6214 100.514C82.1506 98.9453 85.1316 92.9834 85.1316 92.9834L75.718 93.4542C75.718 93.4542 75.2472 97.5333 74.6198 98.3179C73.9921 99.1026 73.0509 97.5333 70.8547 96.4351C70.6875 96.3513 70.5049 96.2688 70.3159 96.1871L69.745 105.132C69.745 105.132 70.5699 113.792 80.4662 112.142C84.4726 111.474 88.7492 107.9 92.4207 103.883C88.6444 103.184 82.9806 101.712 82.6214 100.514Z" fill="white"/>
</mask>
<g mask="url(#mask6_62_2368)">
<path opacity="0.5" d="M82.3555 94.1658C82.3555 94.1658 81.7859 97.355 81.3305 100.886C80.8751 104.417 80.5334 107.036 80.5334 107.036L82.6215 100.515L84.9751 93.5967C84.9751 93.5967 82.6971 93.5967 82.3555 94.1658Z" fill="#FFC2A6"/>
</g>
<path d="M82.6214 100.514C82.1506 98.9453 85.1316 92.9834 85.1316 92.9834L75.718 93.4542C75.718 93.4542 75.2472 97.5333 74.6198 98.3179C73.9921 99.1026 73.0509 97.5333 70.8547 96.4351C70.6875 96.3513 70.5049 96.2688 70.3159 96.1871L69.745 105.132C69.745 105.132 70.5699 113.792 80.4662 112.142C84.4726 111.474 88.7492 107.9 92.4207 103.883C88.6444 103.184 82.9806 101.712 82.6214 100.514Z" stroke="#263238" stroke-miterlimit="10" stroke-linecap="round" stroke-linejoin="round"/>
<path d="M74.6199 98.3167C73.9921 99.1014 73.051 97.532 70.8547 96.4339C69.4662 95.7395 67.2636 95.1079 65.4338 94.4198C64.9159 93.1943 64.233 91.5933 63.7943 90.6286C63.0096 88.9027 61.7546 90.0012 61.7546 90.0012C61.7546 90.0012 60.9699 89.2166 60.1856 87.4911C59.4014 85.7653 58.1459 85.9222 56.42 85.6083C54.6941 85.2945 51.0859 81.9997 51.0859 81.9997C51.0859 81.9997 49.3972 80.7348 48.6968 80.0801C47.8865 81.6807 45.9387 84.494 41.733 86.2493C48.4398 93.2589 62.0535 106.575 63.48 107.573C65.0489 108.672 64.5781 111.809 63.48 114.947C62.3819 118.085 58.3024 122.635 58.4593 127.656C58.6163 132.676 60.1852 140.364 60.0283 141.933C59.8884 143.331 56.7591 147.718 56.0805 148.656L57.6751 148.836H65.9764C65.9315 144.63 65.9337 127.455 68.8145 120.595C72.1098 112.751 74.6199 98.3167 74.6199 98.3167Z" fill="#108ED6"/>
<mask id="mask7_62_2368" style="mask-type:luminance" maskUnits="userSpaceOnUse" x="41" y="80" width="34" height="69">
<path d="M74.6199 98.3157C73.9922 99.1004 73.051 97.5311 70.8548 96.4329C69.4663 95.7385 67.2636 95.1069 65.4338 94.4189C64.916 93.1933 64.2331 91.5923 63.7944 90.6276C63.0097 88.9017 61.7546 90.0003 61.7546 90.0003C61.7546 90.0003 60.9699 89.2156 60.1857 87.4902C59.4014 85.7643 58.1459 85.9212 56.4201 85.6074C54.6942 85.2935 51.086 81.9987 51.086 81.9987C51.086 81.9987 49.3973 80.7338 48.6969 80.0791C47.8865 81.6797 45.9387 84.493 41.7331 86.2484C48.4399 93.2579 62.0535 106.574 63.4801 107.572C65.049 108.671 64.5782 111.808 63.4801 114.946C62.3819 118.084 58.3025 122.634 58.4594 127.655C58.6163 132.675 60.1853 140.363 60.0283 141.932C59.8885 143.33 56.7592 147.717 56.0805 148.655L57.6751 148.835H65.9765C65.9316 144.629 65.9337 127.454 68.8146 120.594C72.1098 112.75 74.6199 98.3157 74.6199 98.3157Z" fill="white"/>
</mask>
<g mask="url(#mask7_62_2368)">
<path opacity="0.16" d="M70.8547 96.4339C69.4662 95.7395 67.2636 95.1079 65.4338 94.4198C64.916 93.1943 64.2331 91.5933 63.7943 90.6286C63.0096 88.9027 61.7546 90.0012 61.7546 90.0012C61.7546 90.0012 60.9699 89.2166 60.1856 87.4911C59.4014 85.7653 58.1459 85.9222 56.42 85.6083C54.6942 85.2945 51.0859 81.9997 51.0859 81.9997C51.0859 81.9997 49.3973 80.7348 48.6968 80.0801C48.4266 80.6133 48.0263 81.2825 47.4623 82.0014C50.2666 84.3712 53.3638 86.886 54.4461 87.3855C56.5907 88.3754 57.0858 87.5506 58.7356 88.5405C60.3853 89.5304 62.1997 92.8295 62.1997 92.8295C62.1997 92.8295 63.1897 90.1898 64.0145 92.0046C64.8394 93.8195 66.8189 96.9539 66.8189 96.9539C66.8189 96.9539 69.4585 98.4386 70.1184 98.4386C70.6354 98.4386 73.1716 99.7518 74.2479 100.322C74.4882 99.0715 74.6199 98.3163 74.6199 98.3163C73.9926 99.101 73.051 97.532 70.8547 96.4339Z" fill="black"/>
</g>
<path d="M74.6199 98.3167C73.9921 99.1014 73.051 97.5321 70.8547 96.4339C69.4662 95.7395 67.2636 95.1079 65.4338 94.4198C64.9159 93.1943 64.233 91.5933 63.7943 90.6286C63.0096 88.9027 61.7546 90.0012 61.7546 90.0012C61.7546 90.0012 60.9699 89.2166 60.1856 87.4911C59.4014 85.7653 58.1459 85.9222 56.42 85.6083C54.6941 85.2945 51.0859 81.9997 51.0859 81.9997C51.0859 81.9997 49.3972 80.7348 48.6968 80.0801C47.8865 81.6807 45.9387 84.494 41.733 86.2493C48.4398 93.2589 62.0535 106.575 63.48 107.573C65.0489 108.672 64.5781 111.809 63.48 114.947C62.3819 118.085 58.3024 122.635 58.4593 127.656C58.6163 132.676 60.1852 140.364 60.0283 141.933C59.8884 143.331 56.7591 147.718 56.0805 148.656L57.6751 148.836H65.9764C65.9315 144.63 65.9337 127.455 68.8145 120.595C72.1098 112.751 74.6199 98.3167 74.6199 98.3167Z" stroke="#263238" stroke-miterlimit="10" stroke-linecap="round" stroke-linejoin="round"/>
<path d="M74.7319 97.7722C74.7319 97.7722 72.7816 97.1723 71.5812 98.2221C70.3809 99.2723 68.5806 104.674 67.5304 110.525C66.4802 116.376 68.815 120.596 68.815 120.596C68.815 120.596 71.2815 114.125 72.0315 110.975C72.7816 107.824 74.7319 97.7722 74.7319 97.7722Z" fill="#108ED6"/>
<mask id="mask8_62_2368" style="mask-type:luminance" maskUnits="userSpaceOnUse" x="67" y="97" width="8" height="24">
<path d="M74.7319 97.7732C74.7319 97.7732 72.7816 97.1733 71.5812 98.2231C70.3809 99.2733 68.5806 104.675 67.5304 110.526C66.4802 116.377 68.815 120.596 68.815 120.596C68.815 120.596 71.2815 114.126 72.0315 110.975C72.7816 107.825 74.7319 97.7732 74.7319 97.7732Z" fill="white"/>
</mask>
<g mask="url(#mask8_62_2368)">
<path opacity="0.16" d="M70.9902 98.7235C70.9902 98.7235 72.3992 98.3836 72.9821 98.5777C73.5649 98.7719 74.3423 99.4039 74.3423 99.4039L74.7315 97.7725C74.7315 97.7725 73.8078 97.2662 72.8363 97.4604C71.8647 97.6549 70.9902 98.7235 70.9902 98.7235Z" fill="black"/>
</g>
<path d="M74.7319 97.7722C74.7319 97.7722 72.7816 97.1723 71.5812 98.2221C70.3809 99.2723 68.5806 104.674 67.5304 110.525C66.4802 116.376 68.815 120.596 68.815 120.596C68.815 120.596 71.2815 114.125 72.0315 110.975C72.7816 107.824 74.7319 97.7722 74.7319 97.7722Z" stroke="#263238" stroke-miterlimit="10" stroke-linecap="round" stroke-linejoin="round"/>
<path d="M61.598 98.2823L64.1081 108.48L58.4601 95.6152" stroke="#263238" stroke-miterlimit="10" stroke-linecap="round" stroke-linejoin="round"/>
<path d="M78.137 148.837H96.4279C96.4279 148.837 91.3854 142.428 91.3854 140.231C91.3854 138.035 98.3107 109.928 98.6246 107.888C98.9385 105.848 97.6834 104.436 95.1729 104.279C92.6627 104.122 83.0922 102.083 82.6214 100.514C82.6214 100.514 79.0127 113.222 77.7577 121.851C76.6814 129.251 77.797 144.61 78.137 148.837Z" fill="#108ED6"/>
<mask id="mask9_62_2368" style="mask-type:luminance" maskUnits="userSpaceOnUse" x="77" y="100" width="22" height="49">
<path d="M78.137 148.837H96.4279C96.4279 148.837 91.3854 142.428 91.3854 140.231C91.3854 138.035 98.3107 109.928 98.6246 107.888C98.9385 105.848 97.6834 104.436 95.1729 104.279C92.6627 104.122 83.0922 102.083 82.6214 100.514C82.6214 100.514 79.0127 113.222 77.7577 121.851C76.6814 129.251 77.797 144.61 78.137 148.837Z" fill="white"/>
</mask>
<g mask="url(#mask9_62_2368)">
<path opacity="0.16" d="M95.1729 104.279C93.1156 104.151 86.3194 102.757 83.6733 101.396L84.6333 103.619C84.6333 103.619 87.025 104.985 90.2142 105.555C93.4034 106.125 96.3646 106.01 98.3009 108.858C98.3325 108.904 98.3642 108.953 98.3958 109.001C98.5168 108.453 98.5964 108.067 98.6242 107.888C98.938 105.848 97.683 104.436 95.1729 104.279Z" fill="black"/>
</g>
<path d="M78.137 148.837H96.4279C96.4279 148.837 91.3854 142.428 91.3854 140.231C91.3854 138.035 98.3107 109.928 98.6246 107.888C98.9385 105.848 97.6834 104.436 95.1729 104.279C92.6627 104.122 83.0922 102.083 82.6214 100.514C82.6214 100.514 79.0127 113.222 77.7577 121.851C76.6814 129.251 77.797 144.61 78.137 148.837Z" stroke="#263238" stroke-miterlimit="10" stroke-linecap="round" stroke-linejoin="round"/>
<path d="M82.6214 100.514C82.6214 100.514 77.7829 115.923 77.7576 121.851C77.7576 121.851 84.6337 113.525 85.5343 107.674C86.4344 101.823 82.6214 100.514 82.6214 100.514Z" fill="#108ED6"/>
<mask id="mask10_62_2368" style="mask-type:luminance" maskUnits="userSpaceOnUse" x="77" y="100" width="9" height="22">
<path d="M82.6214 100.513C82.6214 100.513 77.7829 115.922 77.7576 121.85C77.7576 121.85 84.6337 113.524 85.5343 107.673C86.4344 101.822 82.6214 100.513 82.6214 100.513Z" fill="white"/>
</mask>
<g mask="url(#mask10_62_2368)">
<path opacity="0.16" d="M81.7858 102.478C81.7858 102.478 83.95 102.251 85.5442 104.301C85.5442 104.301 84.5953 101.508 82.621 100.513L81.7858 102.478Z" fill="black"/>
</g>
<path d="M82.6214 100.514C82.6214 100.514 77.7829 115.923 77.7576 121.851C77.7576 121.851 84.6337 113.525 85.5343 107.674C86.4344 101.823 82.6214 100.514 82.6214 100.514Z" stroke="#263238" stroke-miterlimit="10" stroke-linecap="round" stroke-linejoin="round"/>
<path d="M134.301 145.941C134.301 145.941 137.845 146.086 140.166 146.421C142.486 146.756 144.834 146.792 144.834 146.792C144.834 146.792 143.565 144.203 142.186 143.472C140.806 142.742 138.335 141.429 136.258 141.72C134.182 142.011 131.216 144.089 131.455 144.774C131.693 145.459 132.812 145.743 134.301 145.941Z" fill="#FFC2A6"/>
<mask id="mask11_62_2368" style="mask-type:luminance" maskUnits="userSpaceOnUse" x="131" y="141" width="14" height="6">
<path d="M134.301 145.941C134.301 145.941 137.845 146.086 140.166 146.421C142.486 146.756 144.834 146.792 144.834 146.792C144.834 146.792 143.565 144.203 142.186 143.472C140.806 142.742 138.335 141.429 136.258 141.72C134.182 142.011 131.216 144.089 131.455 144.774C131.693 145.459 132.812 145.743 134.301 145.941Z" fill="white"/>
</mask>
<g mask="url(#mask11_62_2368)">
<path d="M134.301 145.941C134.301 145.941 137.845 146.086 140.166 146.421C142.486 146.756 144.834 146.792 144.834 146.792C144.834 146.792 143.565 144.203 142.186 143.472C140.806 142.742 138.335 141.429 136.258 141.72C134.182 142.011 131.216 144.089 131.455 144.774C131.693 145.459 132.812 145.743 134.301 145.941Z" fill="#108ED6"/>
</g>
<mask id="mask12_62_2368" style="mask-type:luminance" maskUnits="userSpaceOnUse" x="131" y="141" width="14" height="6">
<path d="M134.301 145.941C134.301 145.941 137.845 146.086 140.166 146.421C142.486 146.756 144.834 146.792 144.834 146.792C144.834 146.792 143.565 144.203 142.186 143.472C140.806 142.742 138.335 141.429 136.258 141.72C134.182 142.011 131.216 144.089 131.455 144.774C131.693 145.459 132.812 145.743 134.301 145.941Z" fill="white"/>
</mask>
<g mask="url(#mask12_62_2368)">
<path opacity="0.5" d="M134.301 145.941C134.301 145.941 137.845 146.086 140.166 146.421C142.486 146.756 144.834 146.792 144.834 146.792C144.834 146.792 143.565 144.203 142.186 143.472C140.806 142.742 138.335 141.429 136.258 141.72C134.182 142.011 131.216 144.089 131.455 144.774C131.693 145.459 132.812 145.743 134.301 145.941Z" fill="#FFC2A6"/>
</g>
<path d="M134.301 145.941C134.301 145.941 137.845 146.086 140.166 146.421C142.486 146.756 144.834 146.792 144.834 146.792C144.834 146.792 143.565 144.203 142.186 143.472C140.806 142.742 138.335 141.429 136.258 141.72C134.182 142.011 131.216 144.089 131.455 144.774C131.693 145.459 132.812 145.743 134.301 145.941Z" stroke="#263238" stroke-miterlimit="10" stroke-linecap="round" stroke-linejoin="round"/>
<path d="M140.17 144.883C140.17 144.883 142.978 143.424 143.683 143.443C144.387 143.461 149.045 146.619 148.813 147.123C148.582 147.628 147.696 147.835 147.341 147.669C146.825 147.427 143.688 146.092 143.688 146.092L141.634 146.574L140.17 144.883Z" fill="#FFC2A6"/>
<mask id="mask13_62_2368" style="mask-type:luminance" maskUnits="userSpaceOnUse" x="140" y="143" width="9" height="5">
<path d="M140.17 144.883C140.17 144.883 142.978 143.424 143.683 143.443C144.387 143.461 149.045 146.619 148.813 147.123C148.582 147.628 147.696 147.835 147.341 147.669C146.825 147.427 143.688 146.092 143.688 146.092L141.634 146.574L140.17 144.883Z" fill="white"/>
</mask>
<g mask="url(#mask13_62_2368)">
<path d="M140.17 144.883C140.17 144.883 142.978 143.424 143.683 143.443C144.387 143.461 149.045 146.619 148.813 147.123C148.582 147.628 147.477 148.037 147.341 147.669C147.205 147.301 143.688 146.092 143.688 146.092L141.634 146.574L140.17 144.883Z" fill="#108ED6"/>
</g>
<mask id="mask14_62_2368" style="mask-type:luminance" maskUnits="userSpaceOnUse" x="140" y="143" width="9" height="5">
<path d="M140.17 144.883C140.17 144.883 142.978 143.424 143.683 143.443C144.387 143.461 149.045 146.619 148.813 147.123C148.582 147.628 147.696 147.835 147.341 147.669C146.825 147.427 143.688 146.092 143.688 146.092L141.634 146.574L140.17 144.883Z" fill="white"/>
</mask>
<g mask="url(#mask14_62_2368)">
<path opacity="0.5" d="M140.17 144.883C140.17 144.883 142.978 143.424 143.683 143.443C144.387 143.461 149.045 146.619 148.813 147.123C148.582 147.628 147.477 148.037 147.341 147.669C147.205 147.301 143.688 146.092 143.688 146.092L141.634 146.574L140.17 144.883Z" fill="#FFC2A6"/>
</g>
<path d="M140.17 144.883C140.17 144.883 142.978 143.424 143.683 143.443C144.387 143.461 149.045 146.619 148.813 147.123C148.582 147.628 147.696 147.835 147.341 147.669C146.825 147.427 143.688 146.092 143.688 146.092L141.634 146.574L140.17 144.883Z" stroke="#263238" stroke-miterlimit="10" stroke-linecap="round" stroke-linejoin="round"/>
<path d="M138.181 142.483C138.181 142.483 141.929 142.362 142.672 142.742C143.416 143.121 146.777 148.88 146.271 149.301C145.765 149.722 144.376 149.594 144.419 149.13C144.462 148.667 141.322 145.575 141.322 145.575L138.88 145.038L138.181 142.483Z" fill="#FFC2A6"/>
<mask id="mask15_62_2368" style="mask-type:luminance" maskUnits="userSpaceOnUse" x="138" y="142" width="9" height="8">
<path d="M138.181 142.484C138.181 142.484 141.929 142.363 142.672 142.743C143.416 143.122 146.777 148.881 146.271 149.302C145.765 149.723 144.376 149.595 144.419 149.131C144.461 148.668 141.321 145.576 141.321 145.576L138.88 145.039L138.181 142.484Z" fill="white"/>
</mask>
<g mask="url(#mask15_62_2368)">
<path d="M138.181 142.484C138.181 142.484 141.929 142.363 142.672 142.743C143.416 143.122 146.777 148.881 146.271 149.302C145.765 149.723 144.376 149.595 144.419 149.131C144.461 148.668 141.321 145.576 141.321 145.576L138.88 145.039L138.181 142.484Z" fill="#108ED6"/>
</g>
<mask id="mask16_62_2368" style="mask-type:luminance" maskUnits="userSpaceOnUse" x="138" y="142" width="9" height="8">
<path d="M138.181 142.484C138.181 142.484 141.929 142.363 142.672 142.743C143.416 143.122 146.777 148.881 146.271 149.302C145.765 149.723 144.376 149.595 144.419 149.131C144.461 148.668 141.321 145.576 141.321 145.576L138.88 145.039L138.181 142.484Z" fill="white"/>
</mask>
<g mask="url(#mask16_62_2368)">
<path opacity="0.5" d="M138.181 142.484C138.181 142.484 141.929 142.363 142.672 142.743C143.416 143.122 146.777 148.881 146.271 149.302C145.765 149.723 144.376 149.595 144.419 149.131C144.461 148.668 141.321 145.576 141.321 145.576L138.88 145.039L138.181 142.484Z" fill="#FFC2A6"/>
</g>
<path d="M138.181 142.483C138.181 142.483 141.929 142.362 142.672 142.742C143.416 143.121 146.777 148.88 146.271 149.301C145.765 149.722 144.376 149.594 144.419 149.13C144.462 148.667 141.322 145.575 141.322 145.575L138.88 145.038L138.181 142.483Z" stroke="#263238" stroke-miterlimit="10" stroke-linecap="round" stroke-linejoin="round"/>
<path d="M135.965 141.709C135.965 141.709 139.757 141.586 140.51 141.971C141.262 142.355 144.664 148.183 144.152 148.609C143.64 149.034 142.234 148.905 142.277 148.436C142.32 147.967 139.143 144.838 139.143 144.838L136.672 144.295L135.965 141.709Z" fill="#FFC2A6"/>
<mask id="mask17_62_2368" style="mask-type:luminance" maskUnits="userSpaceOnUse" x="135" y="141" width="10" height="8">
<path d="M135.965 141.709C135.965 141.709 139.757 141.586 140.51 141.971C141.262 142.355 144.664 148.183 144.152 148.609C143.64 149.034 142.234 148.905 142.277 148.436C142.32 147.967 139.143 144.838 139.143 144.838L136.672 144.295L135.965 141.709Z" fill="white"/>
</mask>
<g mask="url(#mask17_62_2368)">
<path d="M135.965 141.709C135.965 141.709 139.757 141.586 140.51 141.971C141.262 142.355 144.664 148.183 144.152 148.609C143.64 149.034 142.234 148.905 142.277 148.436C142.32 147.967 139.143 144.838 139.143 144.838L136.672 144.295L135.965 141.709Z" fill="#108ED6"/>
</g>
<mask id="mask18_62_2368" style="mask-type:luminance" maskUnits="userSpaceOnUse" x="135" y="141" width="10" height="8">
<path d="M135.965 141.709C135.965 141.709 139.757 141.586 140.51 141.971C141.262 142.355 144.664 148.183 144.152 148.609C143.64 149.034 142.234 148.905 142.277 148.436C142.32 147.967 139.143 144.838 139.143 144.838L136.672 144.295L135.965 141.709Z" fill="white"/>
</mask>
<g mask="url(#mask18_62_2368)">
<path opacity="0.5" d="M135.965 141.709C135.965 141.709 139.757 141.586 140.51 141.971C141.262 142.355 144.664 148.183 144.152 148.609C143.64 149.034 142.234 148.905 142.277 148.436C142.32 147.967 139.143 144.838 139.143 144.838L136.672 144.295L135.965 141.709Z" fill="#FFC2A6"/>
</g>
<path d="M135.965 141.709C135.965 141.709 139.757 141.586 140.51 141.971C141.262 142.355 144.664 148.183 144.152 148.609C143.64 149.034 142.234 148.905 142.277 148.436C142.32 147.967 139.143 144.838 139.143 144.838L136.672 144.295L135.965 141.709Z" stroke="#263238" stroke-miterlimit="10" stroke-linecap="round" stroke-linejoin="round"/>
<path d="M92.8372 119.977C95.5812 124.206 101.093 134.921 102.704 136.129C105.214 138.011 121.993 142.578 123.611 143.83C125.228 145.082 125.113 146.332 126.647 146.788C128.18 147.245 133.919 148.561 136.106 148.763C138.293 148.965 137.315 147.614 137.315 147.614L133.581 145.064L136.837 144.261C136.837 144.261 140.098 148.186 140.709 148.4C141.32 148.613 142.4 148.391 142.329 147.919C142.211 147.143 138.73 140.812 137.495 140.54C136.259 140.269 128.758 141.311 128.758 141.311C128.758 141.311 113.028 130.7 112.745 130.324C112.745 130.324 111.804 127.657 111.019 126.559C110.234 125.46 109.764 125.774 109.764 125.774C109.764 125.774 110.078 124.362 109.607 123.891C109.136 123.42 107.097 121.381 107.097 121.381L107.009 121.502C106.596 120.64 106.158 119.669 105.685 118.557C104.37 115.467 99.7231 106.79 98.9385 105.535C98.3556 104.602 93.4427 103.929 90.9557 103.646" fill="#108ED6"/>
<mask id="mask19_62_2368" style="mask-type:luminance" maskUnits="userSpaceOnUse" x="90" y="103" width="53" height="46">
<path d="M92.8372 119.977C95.5812 124.206 101.093 134.921 102.704 136.129C105.214 138.011 121.993 142.578 123.611 143.83C125.228 145.082 125.113 146.332 126.647 146.788C128.18 147.245 133.919 148.561 136.106 148.763C138.293 148.965 137.315 147.614 137.315 147.614L133.581 145.064L136.837 144.261C136.837 144.261 140.098 148.186 140.709 148.4C141.32 148.613 142.4 148.391 142.329 147.919C142.211 147.143 138.73 140.812 137.495 140.54C136.259 140.269 128.758 141.311 128.758 141.311C128.758 141.311 113.028 130.7 112.745 130.324C112.745 130.324 111.804 127.657 111.019 126.559C110.234 125.46 109.764 125.774 109.764 125.774C109.764 125.774 110.078 124.362 109.607 123.891C109.136 123.42 107.097 121.381 107.097 121.381L107.009 121.502C106.596 120.64 106.158 119.669 105.685 118.557C104.37 115.467 99.7231 106.79 98.9385 105.535C98.3556 104.602 93.4427 103.929 90.9557 103.646" fill="white"/>
</mask>
<g mask="url(#mask19_62_2368)">
<path opacity="0.16" d="M103.768 120.247C105.818 122.07 105.135 122.07 104.679 123.664C104.224 125.259 105.021 123.095 106.957 123.209C108.893 123.323 108.324 125.829 108.096 126.284C107.868 126.739 110.488 127.309 110.032 128.334C109.577 129.359 106.957 130.84 105.476 132.32C103.996 133.801 109.349 129.929 111.171 129.814C111.725 129.78 112.183 129.85 112.567 129.84C112.257 129.021 111.596 127.366 111.019 126.558C110.234 125.459 109.764 125.773 109.764 125.773C109.764 125.773 110.078 124.361 109.607 123.89C109.136 123.419 107.097 121.38 107.097 121.38L107.009 121.501C106.596 120.639 106.158 119.668 105.685 118.556C104.37 115.466 99.7228 106.789 98.9381 105.534C98.3553 104.601 93.4424 103.928 90.9553 103.645L91.1837 105.625L91.2393 105.668C91.2393 105.668 94.3143 106.238 95.3397 106.352C96.3647 106.466 97.6176 107.377 97.5039 108.06C97.3901 108.743 94.4289 111.818 95.3397 112.046C96.251 112.274 97.276 109.768 98.301 110.11C99.326 110.452 101.718 118.425 103.768 120.247Z" fill="black"/>
</g>
<path d="M92.8372 119.977C95.5812 124.206 101.093 134.921 102.704 136.129C105.214 138.011 121.993 142.578 123.611 143.83C125.228 145.082 125.113 146.332 126.647 146.788C128.18 147.245 133.919 148.561 136.106 148.763C138.293 148.965 137.315 147.614 137.315 147.614L133.581 145.064L136.837 144.261C136.837 144.261 140.098 148.186 140.709 148.4C141.32 148.613 142.4 148.391 142.329 147.919C142.211 147.143 138.73 140.812 137.495 140.54C136.259 140.269 128.758 141.311 128.758 141.311C128.758 141.311 113.028 130.7 112.745 130.324C112.745 130.324 111.804 127.657 111.019 126.559C110.234 125.46 109.764 125.774 109.764 125.774C109.764 125.774 110.078 124.362 109.607 123.891C109.136 123.42 107.097 121.381 107.097 121.381L107.009 121.502C106.596 120.64 106.158 119.669 105.685 118.557C104.37 115.467 99.7231 106.79 98.9385 105.535C98.3556 104.602 93.4427 103.929 90.9557 103.646" stroke="#263238" stroke-miterlimit="10" stroke-linecap="round" stroke-linejoin="round"/>
<path d="M92.8804 114.166C92.7633 114.55 92.6645 114.938 92.5888 115.33" stroke="#263238" stroke-miterlimit="10" stroke-linecap="round" stroke-linejoin="round"/>
<path d="M97.0347 107.097C97.0347 107.097 95.0305 109.283 93.6647 112.165" stroke="#263238" stroke-miterlimit="10" stroke-linecap="round" stroke-linejoin="round"/>
<path d="M103.316 131.379C104.472 129.69 106.301 127.5 108.339 126.88" stroke="#263238" stroke-miterlimit="10" stroke-linecap="round" stroke-linejoin="round"/>
<path d="M102.037 133.481C102.037 133.481 102.243 133.08 102.611 132.474" stroke="#263238" stroke-miterlimit="10" stroke-linecap="round" stroke-linejoin="round"/>
<path d="M102.037 130.78C102.037 130.78 104.138 125.529 106.238 124.179C108.339 122.828 107.139 125.529 107.139 125.529" stroke="#263238" stroke-miterlimit="10" stroke-linecap="round" stroke-linejoin="round"/>
<path d="M123.611 143.829C125.229 145.081 125.113 146.331 126.647 146.788C128.18 147.244 133.919 148.561 136.106 148.763C138.294 148.965 137.315 147.614 137.315 147.614L133.581 145.063L136.837 144.261C136.837 144.261 140.099 148.185 140.709 148.399C141.32 148.613 142.482 148.691 142.329 147.918C142.031 146.418 138.73 140.811 137.495 140.54C136.259 140.268 128.758 141.31 128.758 141.31C128.758 141.31 114.427 131.464 112.859 130.41C106.773 130.996 103.87 134.184 102.662 136.094C102.676 136.105 102.691 136.118 102.704 136.128C105.214 138.011 121.993 142.577 123.611 143.829Z" fill="#FFC2A6"/>
<mask id="mask20_62_2368" style="mask-type:luminance" maskUnits="userSpaceOnUse" x="102" y="130" width="41" height="19">
<path d="M123.611 143.829C125.229 145.081 125.113 146.331 126.647 146.788C128.18 147.244 133.919 148.561 136.106 148.763C138.294 148.965 137.315 147.614 137.315 147.614L133.581 145.063L136.837 144.261C136.837 144.261 140.099 148.185 140.709 148.399C141.32 148.613 142.482 148.691 142.329 147.918C142.031 146.418 138.73 140.811 137.495 140.54C136.259 140.268 128.758 141.31 128.758 141.31C128.758 141.31 114.427 131.464 112.859 130.41C106.773 130.996 103.87 134.184 102.662 136.094C102.676 136.105 102.691 136.118 102.704 136.128C105.214 138.011 121.993 142.577 123.611 143.829Z" fill="white"/>
</mask>
<g mask="url(#mask20_62_2368)">
<path d="M142.328 147.919C141.553 146.014 138.73 140.812 137.494 140.541C136.259 140.269 128.758 141.311 128.758 141.311C128.758 141.311 114.427 131.465 112.859 130.411C111.034 130.586 109.501 130.999 108.208 131.538C110.471 132.813 125.55 141.362 127.447 141.752C129.467 142.168 136.202 141.073 137.387 141.868C138.141 142.374 140.369 145.928 141.893 148.45C142.334 148.375 142.485 148.304 142.328 147.919Z" fill="#F08D5F"/>
</g>
<mask id="mask21_62_2368" style="mask-type:luminance" maskUnits="userSpaceOnUse" x="102" y="130" width="41" height="19">
<path d="M123.611 143.829C125.229 145.081 125.113 146.331 126.647 146.788C128.18 147.244 133.919 148.561 136.106 148.763C138.294 148.965 137.315 147.614 137.315 147.614L133.581 145.063L136.837 144.261C136.837 144.261 140.099 148.185 140.709 148.399C141.32 148.613 142.482 148.691 142.329 147.918C142.031 146.418 138.73 140.811 137.495 140.54C136.259 140.268 128.758 141.31 128.758 141.31C128.758 141.31 114.427 131.464 112.859 130.41C106.773 130.996 103.87 134.184 102.662 136.094C102.676 136.105 102.691 136.118 102.704 136.128C105.214 138.011 121.993 142.577 123.611 143.829Z" fill="white"/>
</mask>
<g mask="url(#mask21_62_2368)">
<path opacity="0.5" d="M142.328 147.919C141.116 145.195 138.73 140.812 137.494 140.541C136.259 140.269 128.758 141.311 128.758 141.311C128.758 141.311 114.427 131.465 112.859 130.411C111.034 130.586 109.501 130.999 108.208 131.538C110.471 132.813 125.55 141.362 127.447 141.752C129.467 142.168 136.202 141.073 137.387 141.868C138.141 142.374 140.369 145.928 141.893 148.45C142.334 148.375 142.497 148.298 142.328 147.919Z" fill="#FFC2A6"/>
</g>
<path d="M123.611 143.829C125.229 145.081 125.113 146.331 126.647 146.788C128.18 147.244 133.919 148.561 136.106 148.763C138.294 148.965 137.315 147.614 137.315 147.614L133.581 145.063L136.837 144.261C136.837 144.261 140.099 148.185 140.709 148.399C141.32 148.613 142.482 148.691 142.329 147.918C142.031 146.418 138.73 140.811 137.495 140.54C136.259 140.268 128.758 141.31 128.758 141.31C128.758 141.31 114.427 131.464 112.859 130.41C106.773 130.996 103.87 134.184 102.662 136.094C102.676 136.105 102.691 136.118 102.704 136.128C105.214 138.011 121.993 142.577 123.611 143.829Z" stroke="#263238" stroke-miterlimit="10" stroke-linecap="round" stroke-linejoin="round"/>
<path d="M85.8154 69.1582L72.9364 74.5317C72.9364 74.5317 72.8047 77.8551 71.2828 81.0781C69.7609 84.301 70.6486 90.3925 72.1107 93.68C73.5727 96.9675 80.0156 95.6821 82.3885 95.2724C84.7618 94.8628 87.0662 93.9105 87.0662 93.9105C87.0662 93.9105 89.1696 94.8572 91.2363 93.3289C91.2363 93.3289 84.329 73.9753 85.8154 69.1582Z" fill="#FFC2A6"/>
<mask id="mask22_62_2368" style="mask-type:luminance" maskUnits="userSpaceOnUse" x="70" y="69" width="22" height="27">
<path d="M85.8155 69.1572L72.9365 74.5307C72.9365 74.5307 72.8047 77.8541 71.2828 81.0771C69.761 84.3001 70.6487 90.3915 72.1107 93.679C73.5727 96.9665 80.0157 95.6811 82.3885 95.2715C84.7618 94.8618 87.0662 93.9095 87.0662 93.9095C87.0662 93.9095 89.1697 94.8562 91.2364 93.3279C91.2364 93.3279 84.3291 73.9743 85.8155 69.1572Z" fill="white"/>
</mask>
<g mask="url(#mask22_62_2368)">
<path d="M85.8155 69.1572L72.9365 74.5307C72.9365 74.5307 72.8047 77.8541 71.2828 81.0771C69.761 84.3001 70.6487 90.3915 72.1107 93.679C72.3587 94.2371 72.753 94.6608 73.2439 94.982V94.7331C73.2439 94.7331 70.8522 88.8106 71.3076 85.3935C71.7631 81.9768 73.6993 80.268 73.9272 78.1043C74.1552 75.9401 74.041 74.9151 78.3693 73.3205C82.6973 71.7259 84.5198 70.2455 84.9752 71.8397C85.4306 73.4343 87.2531 83.9126 88.506 86.4185C89.759 88.9243 89.6448 91.5439 87.709 92.6827C86.1482 93.6007 83.774 94.8135 81.4798 95.4288C81.8224 95.3707 82.1307 95.3155 82.3885 95.271C84.7618 94.8614 87.0662 93.9091 87.0662 93.9091C87.0662 93.9091 89.1697 94.8558 91.2364 93.3275C91.2364 93.3275 84.3291 73.9743 85.8155 69.1572Z" fill="#F08D5F"/>
</g>
<mask id="mask23_62_2368" style="mask-type:luminance" maskUnits="userSpaceOnUse" x="70" y="69" width="22" height="27">
<path d="M85.8155 69.1572L72.9365 74.5307C72.9365 74.5307 72.8047 77.8541 71.2828 81.0771C69.761 84.3001 70.6487 90.3915 72.1107 93.679C73.5727 96.9665 80.0157 95.6811 82.3885 95.2715C84.7618 94.8618 87.0662 93.9095 87.0662 93.9095C87.0662 93.9095 89.1697 94.8562 91.2364 93.3279C91.2364 93.3279 84.3291 73.9743 85.8155 69.1572Z" fill="white"/>
</mask>
<g mask="url(#mask23_62_2368)">
<path opacity="0.5" d="M85.8155 69.1572L72.9365 74.5307C72.9365 74.5307 72.8047 77.8541 71.2828 81.0771C69.761 84.3001 70.6487 90.3915 72.1107 93.679C72.3587 94.2371 72.753 94.6608 73.2439 94.982V94.7331C73.2439 94.7331 70.8522 88.8106 71.3076 85.3935C71.7631 81.9768 73.6993 80.268 73.9272 78.1043C74.1552 75.9401 74.041 74.9151 78.3693 73.3205C82.6973 71.7259 84.5198 70.2455 84.9752 71.8397C85.4306 73.4343 87.2531 83.9126 88.506 86.4185C89.759 88.9243 89.6448 91.5439 87.709 92.6827C86.1482 93.6007 83.774 94.8135 81.4798 95.4288C81.8224 95.3707 82.1307 95.3155 82.3885 95.271C84.7618 94.8614 87.0662 93.9091 87.0662 93.9091C87.0662 93.9091 89.1697 94.8558 91.2364 93.3275C91.2364 93.3275 84.3291 73.9743 85.8155 69.1572Z" fill="#FFC2A6"/>
</g>
<path d="M85.8154 69.1582L72.9364 74.5317C72.9364 74.5317 72.8047 77.8551 71.2828 81.0781C69.7609 84.301 70.6486 90.3925 72.1107 93.68C73.5727 96.9675 80.0156 95.6821 82.3885 95.2724C84.7618 94.8628 87.0662 93.9105 87.0662 93.9105C87.0662 93.9105 89.1696 94.8572 91.2363 93.3289C91.2363 93.3289 84.329 73.9753 85.8154 69.1582Z" stroke="#263238" stroke-miterlimit="10" stroke-linecap="round" stroke-linejoin="round"/>
<path d="M79.3066 77.5869C79.3066 77.5869 79.3737 78.9613 79.0312 79.8289C78.6886 80.6965 75.4597 84.0448 75.558 84.4049C75.6568 84.7649 75.9459 85.9357 76.5189 86.0495" stroke="#263238" stroke-miterlimit="10" stroke-linecap="round" stroke-linejoin="round"/>
<path d="M82.8772 80.5933C83.3271 79.6965 84.8032 80.5727 84.7822 82.5937" stroke="#263238" stroke-miterlimit="10" stroke-linecap="round" stroke-linejoin="round"/>
<path d="M75.5765 77.9518C75.5765 77.9518 76.8337 77.3968 77.9545 79.4348" stroke="#263238" stroke-miterlimit="10" stroke-linecap="round" stroke-linejoin="round"/>
<path d="M81.0974 83.5576C81.0974 83.5576 83.2154 83.5444 85.0024 85.1937" stroke="#263238" stroke-width="0.5" stroke-miterlimit="10" stroke-linecap="round" stroke-linejoin="round"/>
<path d="M74.0585 80.8828C74.0585 80.8828 75.4658 81.0774 76.2355 81.4853" stroke="#263238" stroke-width="0.5" stroke-miterlimit="10" stroke-linecap="round" stroke-linejoin="round"/>
<path d="M79.1672 75.6964C79.1672 75.6964 78.1529 75.0934 77.0018 75.6446C75.8506 76.1958 75.1451 76.8056 75.2229 76.097C75.3007 75.3885 76.6537 74.6141 77.0578 74.511C77.4619 74.4084 79.2823 74.1176 79.1672 75.6964Z" fill="#263238"/>
<path d="M82.391 74.095C82.391 74.095 84.3213 75.5814 85.1679 77.7123C86.0146 79.8431 86.6993 77.5126 86.0134 76.1147C85.3279 74.7172 83.3976 73.2308 82.391 74.095Z" fill="#263238"/>
<path d="M91.4073 96.9841C91.4073 97.9804 90.8454 98.7882 90.1523 98.7882C89.4591 98.7882 88.8972 97.9804 88.8972 96.9841C88.8972 95.9877 89.4591 93.4541 90.1523 93.4541C90.8454 93.4537 91.4073 95.9873 91.4073 96.9841Z" fill="#F08D5F" stroke="#263238" stroke-miterlimit="10" stroke-linecap="round" stroke-linejoin="round"/>
<path d="M82.9982 80.2051C82.952 80.3282 82.9122 80.4625 82.8832 80.607C82.7574 81.2399 82.6339 82.5621 82.9054 82.616C83.1765 82.6699 83.7397 81.4349 83.8654 80.8025C83.8915 80.6716 83.9047 80.5459 83.9103 80.4253C83.5947 80.3274 83.277 80.2564 82.9982 80.2051Z" fill="#263238"/>
<path d="M75.7048 77.8356C75.668 77.9421 75.6351 78.0546 75.6111 78.1756C75.4854 78.8085 75.4892 80.1987 75.7604 80.2525C76.0315 80.3064 76.4676 79.0035 76.5934 78.3706C76.6259 78.2068 76.6417 78.0486 76.643 77.9028C76.2966 77.81 75.9793 77.8018 75.7048 77.8356Z" fill="#263238"/>
<path d="M82.896 80.6122L83.3138 79.8164C83.3138 79.8164 84.417 80.0003 85.0606 80.8277" stroke="#263238" stroke-width="0.75" stroke-miterlimit="10" stroke-linecap="round" stroke-linejoin="round"/>
<path d="M75.7048 77.8358L76.1427 77.3347C76.1427 77.3347 76.3265 77.2427 77.3378 77.7024" stroke="#263238" stroke-width="0.75" stroke-miterlimit="10" stroke-linecap="round" stroke-linejoin="round"/>
<path d="M74.0811 89.4234C74.0811 89.4234 74.8017 88.1025 75.7621 88.1025C76.7225 88.1025 77.4431 90.2637 77.4431 90.2637" stroke="#263238" stroke-miterlimit="10" stroke-linecap="round" stroke-linejoin="round"/>
<path d="M43.1356 146.41C42.0554 146.41 40.8897 145.961 40.4407 145.768C39.9678 145.566 39.7488 145.018 39.9515 144.545C40.1546 144.072 40.7024 143.853 41.1749 144.056C42.0357 144.423 43.1394 144.647 43.437 144.52C43.9763 143.911 44.8127 140.227 43.7325 138.472C43.4918 138.08 43.2647 138.008 43.115 137.988C42.5035 137.903 41.5957 138.534 41.2746 138.834C40.8983 139.184 40.309 139.165 39.9579 138.788C39.6069 138.412 39.627 137.822 40.0033 137.471C40.1743 137.312 41.7201 135.918 43.3639 136.141C43.922 136.217 44.7148 136.513 45.3194 137.495C46.9093 140.079 45.8189 145.003 44.601 145.978C44.2025 146.296 43.6799 146.41 43.1356 146.41Z" fill="white"/>
<mask id="mask24_62_2368" style="mask-type:luminance" maskUnits="userSpaceOnUse" x="39" y="136" width="8" height="11">
<path d="M43.1356 146.411C42.0554 146.411 40.8897 145.962 40.4407 145.769C39.9678 145.567 39.7488 145.019 39.9515 144.546C40.1546 144.073 40.7024 143.854 41.1749 144.057C42.0357 144.423 43.1394 144.648 43.437 144.521C43.9763 143.912 44.8127 140.228 43.7325 138.473C43.4918 138.081 43.2647 138.009 43.115 137.989C42.5035 137.904 41.5957 138.535 41.2746 138.835C40.8983 139.185 40.309 139.165 39.9579 138.789C39.6069 138.413 39.627 137.823 40.0033 137.472C40.1743 137.313 41.7201 135.919 43.3639 136.142C43.922 136.217 44.7148 136.514 45.3194 137.496C46.9093 140.08 45.8189 145.004 44.601 145.979C44.2025 146.297 43.6799 146.411 43.1356 146.411Z" fill="white"/>
</mask>
<g mask="url(#mask24_62_2368)">
<path d="M44.3727 138.189C43.9797 137.434 43.4644 137.206 43.1018 137.147C42.0332 136.976 41.0283 138.048 40.9175 138.17C40.7037 138.406 40.6781 138.777 40.8247 139.061C40.9877 139.029 41.1442 138.955 41.2746 138.833C41.5953 138.533 42.5036 137.903 43.1151 137.987C43.2647 138.007 43.4918 138.079 43.7325 138.471C44.8127 140.226 43.9763 143.91 43.4371 144.519C43.1399 144.646 42.0358 144.422 41.175 144.055C41.0663 144.008 40.9535 143.986 40.8418 143.982C40.8675 144.227 40.9966 144.449 41.2019 144.553C41.494 144.701 42.2517 145.047 42.9534 145.047C43.3071 145.047 43.647 144.96 43.9057 144.714C44.6973 143.965 45.4058 140.177 44.3727 138.189Z" fill="#108ED6"/>
</g>
<mask id="mask25_62_2368" style="mask-type:luminance" maskUnits="userSpaceOnUse" x="39" y="136" width="8" height="11">
<path d="M43.1356 146.411C42.0554 146.411 40.8897 145.962 40.4407 145.769C39.9678 145.567 39.7488 145.019 39.9515 144.546C40.1546 144.073 40.7024 143.854 41.1749 144.057C42.0357 144.423 43.1394 144.648 43.437 144.521C43.9763 143.912 44.8127 140.228 43.7325 138.473C43.4918 138.081 43.2647 138.009 43.115 137.989C42.5035 137.904 41.5957 138.535 41.2746 138.835C40.8983 139.185 40.309 139.165 39.9579 138.789C39.6069 138.413 39.627 137.823 40.0033 137.472C40.1743 137.313 41.7201 135.919 43.3639 136.142C43.922 136.217 44.7148 136.514 45.3194 137.496C46.9093 140.08 45.8189 145.004 44.601 145.979C44.2025 146.297 43.6799 146.411 43.1356 146.411Z" fill="white"/>
</mask>
<g mask="url(#mask25_62_2368)">
<path opacity="0.5" d="M44.3727 138.189C43.9797 137.434 43.4644 137.206 43.1018 137.147C42.0332 136.976 41.0283 138.048 40.9175 138.17C40.7037 138.406 40.6781 138.777 40.8247 139.061C40.9877 139.029 41.1442 138.955 41.2746 138.833C41.5953 138.533 42.5036 137.903 43.1151 137.987C43.2647 138.007 43.4918 138.079 43.7325 138.471C44.8127 140.226 43.9763 143.91 43.4371 144.519C43.1399 144.646 42.0358 144.422 41.175 144.055C41.0663 144.008 40.9535 143.986 40.8418 143.982C40.8675 144.227 40.9966 144.449 41.2019 144.553C41.494 144.701 42.2517 145.047 42.9534 145.047C43.3071 145.047 43.647 144.96 43.9057 144.714C44.6973 143.965 45.4058 140.177 44.3727 138.189Z" fill="white"/>
</g>
<path d="M43.1356 146.41C42.0554 146.41 40.8897 145.961 40.4407 145.768C39.9678 145.566 39.7488 145.018 39.9515 144.545C40.1546 144.072 40.7024 143.853 41.1749 144.056C42.0357 144.423 43.1394 144.647 43.437 144.52C43.9763 143.911 44.8127 140.227 43.7325 138.472C43.4918 138.08 43.2647 138.008 43.115 137.988C42.5035 137.903 41.5957 138.534 41.2746 138.834C40.8983 139.184 40.309 139.165 39.9579 138.788C39.6069 138.412 39.627 137.822 40.0033 137.471C40.1743 137.312 41.7201 135.918 43.3639 136.141C43.922 136.217 44.7148 136.513 45.3194 137.495C46.9093 140.079 45.8189 145.003 44.601 145.978C44.2025 146.296 43.6799 146.41 43.1356 146.41Z" stroke="#263238" stroke-miterlimit="10" stroke-linecap="round" stroke-linejoin="round"/>
<path d="M41.4858 135.376H31.2007V149.027H41.4858V135.376Z" fill="white"/>
<mask id="mask26_62_2368" style="mask-type:luminance" maskUnits="userSpaceOnUse" x="31" y="135" width="11" height="15">
<path d="M41.4858 135.376H31.2007V149.027H41.4858V135.376Z" fill="white"/>
</mask>
<g mask="url(#mask26_62_2368)">
<path d="M35.4136 135.376H31.2007V149.027H35.4136V135.376Z" fill="#108ED6"/>
</g>
<mask id="mask27_62_2368" style="mask-type:luminance" maskUnits="userSpaceOnUse" x="31" y="135" width="11" height="15">
<path d="M41.4858 135.376H31.2007V149.027H41.4858V135.376Z" fill="white"/>
</mask>
<g mask="url(#mask27_62_2368)">
<path opacity="0.5" d="M35.4136 135.376H31.2007V149.027H35.4136V135.376Z" fill="white"/>
</g>
<path d="M41.4858 135.376H31.2007V149.027H41.4858V135.376Z" stroke="#263238" stroke-miterlimit="10" stroke-linecap="round" stroke-linejoin="round"/>
<path d="M97.9969 148.836H54.0672L52.6308 124.685C52.4628 123.683 53.2355 122.771 54.2515 122.771H97.8126C98.8286 122.771 99.6009 123.683 99.4332 124.685L97.9969 148.836Z" fill="#263238" stroke="#263238" stroke-miterlimit="10" stroke-linecap="round" stroke-linejoin="round"/>
<path d="M56.228 123.35H97.4931C98.4942 123.35 99.2554 124.234 99.0899 125.203" stroke="white" stroke-miterlimit="10" stroke-linecap="round" stroke-linejoin="round"/>
<path d="M52.9554 124.822C53.0152 124.013 53.7029 123.349 54.5705 123.349" stroke="white" stroke-miterlimit="10" stroke-linecap="round" stroke-linejoin="round"/>
<path d="M98.1838 146.483H53.8804V148.837H98.1838V146.483Z" fill="white" stroke="#263238" stroke-miterlimit="10" stroke-linecap="round" stroke-linejoin="round"/>
<path d="M75.8749 137.778C77.6079 137.778 79.0128 136.935 79.0128 135.896C79.0128 134.856 77.6079 134.013 75.8749 134.013C74.1419 134.013 72.7371 134.856 72.7371 135.896C72.7371 136.935 74.1419 137.778 75.8749 137.778Z" fill="white" stroke="#263238" stroke-miterlimit="10" stroke-linecap="round" stroke-linejoin="round"/>
<path d="M165 148.56H0V152.567H165V148.56Z" fill="#263238"/>
<path d="M122.218 55.2359H42.8384C40.1623 55.2359 37.993 53.0666 37.993 50.3906V4.84535C37.993 2.16931 40.1623 0 42.8384 0H122.218C124.894 0 127.063 2.16931 127.063 4.84535V50.3906C127.063 53.0666 124.894 55.2359 122.218 55.2359Z" fill="#108ED6"/>
<path d="M84.6227 31.7408C91.8236 30.5833 96.7228 23.8075 95.5653 16.6066C94.4078 9.40564 87.632 4.50646 80.4311 5.66395C73.2301 6.82144 68.331 13.5973 69.4885 20.7982C70.6459 27.9991 77.4218 32.8983 84.6227 31.7408Z" fill="#EA4335"/>
<path d="M82.4269 21.1477L78.0297 26.7961C77.6491 27.3144 77.1835 27.5735 76.6331 27.5735C76.2363 27.5735 75.8938 27.4379 75.6068 27.1664C75.3195 26.8953 75.1754 26.557 75.1754 26.1521C75.1754 25.7715 75.3212 25.3828 75.6128 24.986L80.6292 18.7787L75.9164 12.5718C75.6898 12.2558 75.5765 11.9201 75.5765 11.5634C75.5765 11.1183 75.7424 10.7313 76.0742 10.4033C76.406 10.0753 76.7909 9.91113 77.2284 9.91113C77.7629 9.91113 78.22 10.1745 78.601 10.7009L82.8524 16.301L87.1401 10.798C87.5694 10.207 88.0591 9.91113 88.6098 9.91113C88.9909 9.91113 89.3184 10.051 89.5942 10.3302C89.8696 10.6094 90.0073 10.9396 90.0073 11.3201C90.0073 11.6357 89.8978 11.9393 89.6793 12.231L84.6497 18.6692L89.5087 25.083C89.752 25.4072 89.8735 25.7429 89.8735 26.0914C89.8735 26.5288 89.7037 26.9034 89.3629 27.2151C89.0229 27.5264 88.6347 27.6825 88.1976 27.6825C87.6469 27.6825 87.185 27.4238 86.8121 26.9051L82.4269 21.1477Z" fill="white"/>
<path d="M107.702 45.6713H57.3539C55.2265 45.6713 53.5023 43.9467 53.5023 41.8193C53.5023 39.6919 55.2269 37.9678 57.3539 37.9678H107.702C109.83 37.9678 111.554 39.6924 111.554 41.8193C111.554 43.9467 109.83 45.6713 107.702 45.6713Z" fill="white"/>
<path d="M67.9029 42.574H67.0299L66.8799 43H66.5229L67.2699 40.912H67.6659L68.4129 43H68.0529L67.9029 42.574ZM67.8069 42.295L67.4679 41.326L67.1259 42.295H67.8069ZM69.0797 41.59C69.1377 41.514 69.2167 41.45 69.3167 41.398C69.4167 41.346 69.5297 41.32 69.6557 41.32C69.7997 41.32 69.9307 41.356 70.0487 41.428C70.1687 41.498 70.2627 41.597 70.3307 41.725C70.3987 41.853 70.4327 42 70.4327 42.166C70.4327 42.332 70.3987 42.481 70.3307 42.613C70.2627 42.743 70.1687 42.845 70.0487 42.919C69.9307 42.991 69.7997 43.027 69.6557 43.027C69.5297 43.027 69.4177 43.002 69.3197 42.952C69.2217 42.9 69.1417 42.836 69.0797 42.76V43.786H68.7377V41.347H69.0797V41.59ZM70.0847 42.166C70.0847 42.052 70.0607 41.954 70.0127 41.872C69.9667 41.788 69.9047 41.725 69.8267 41.683C69.7507 41.639 69.6687 41.617 69.5807 41.617C69.4947 41.617 69.4127 41.639 69.3347 41.683C69.2587 41.727 69.1967 41.791 69.1487 41.875C69.1027 41.959 69.0797 42.058 69.0797 42.172C69.0797 42.286 69.1027 42.386 69.1487 42.472C69.1967 42.556 69.2587 42.62 69.3347 42.664C69.4127 42.708 69.4947 42.73 69.5807 42.73C69.6687 42.73 69.7507 42.708 69.8267 42.664C69.9047 42.618 69.9667 42.552 70.0127 42.466C70.0607 42.38 70.0847 42.28 70.0847 42.166ZM71.1129 41.59C71.1709 41.514 71.2499 41.45 71.3499 41.398C71.4499 41.346 71.5629 41.32 71.6889 41.32C71.8329 41.32 71.9639 41.356 72.0819 41.428C72.2019 41.498 72.2959 41.597 72.3639 41.725C72.4319 41.853 72.4659 42 72.4659 42.166C72.4659 42.332 72.4319 42.481 72.3639 42.613C72.2959 42.743 72.2019 42.845 72.0819 42.919C71.9639 42.991 71.8329 43.027 71.6889 43.027C71.5629 43.027 71.4509 43.002 71.3529 42.952C71.2549 42.9 71.1749 42.836 71.1129 42.76V43.786H70.7709V41.347H71.1129V41.59ZM72.1179 42.166C72.1179 42.052 72.0939 41.954 72.0459 41.872C71.9999 41.788 71.9379 41.725 71.8599 41.683C71.7839 41.639 71.7019 41.617 71.6139 41.617C71.5279 41.617 71.4459 41.639 71.3679 41.683C71.2919 41.727 71.2299 41.791 71.1819 41.875C71.1359 41.959 71.1129 42.058 71.1129 42.172C71.1129 42.286 71.1359 42.386 71.1819 42.472C71.2299 42.556 71.2919 42.62 71.3679 42.664C71.4459 42.708 71.5279 42.73 71.6139 42.73C71.7019 42.73 71.7839 42.708 71.8599 42.664C71.9379 42.618 71.9999 42.552 72.0459 42.466C72.0939 42.38 72.1179 42.28 72.1179 42.166ZM73.5211 43.027C73.3651 43.027 73.2241 42.992 73.0981 42.922C72.9721 42.85 72.8731 42.75 72.8011 42.622C72.7291 42.492 72.6931 42.342 72.6931 42.172C72.6931 42.004 72.7301 41.855 72.8041 41.725C72.8781 41.595 72.9791 41.495 73.1071 41.425C73.2351 41.355 73.3781 41.32 73.5361 41.32C73.6941 41.32 73.8371 41.355 73.9651 41.425C74.0931 41.495 74.1941 41.595 74.2681 41.725C74.3421 41.855 74.3791 42.004 74.3791 42.172C74.3791 42.34 74.3411 42.489 74.2651 42.619C74.1891 42.749 74.0851 42.85 73.9531 42.922C73.8231 42.992 73.6791 43.027 73.5211 43.027ZM73.5211 42.73C73.6091 42.73 73.6911 42.709 73.7671 42.667C73.8451 42.625 73.9081 42.562 73.9561 42.478C74.0041 42.394 74.0281 42.292 74.0281 42.172C74.0281 42.052 74.0051 41.951 73.9591 41.869C73.9131 41.785 73.8521 41.722 73.7761 41.68C73.7001 41.638 73.6181 41.617 73.5301 41.617C73.4421 41.617 73.3601 41.638 73.2841 41.68C73.2101 41.722 73.1511 41.785 73.1071 41.869C73.0631 41.951 73.0411 42.052 73.0411 42.172C73.0411 42.35 73.0861 42.488 73.1761 42.586C73.2681 42.682 73.3831 42.73 73.5211 42.73ZM74.8912 41.128C74.8292 41.128 74.7772 41.107 74.7352 41.065C74.6932 41.023 74.6722 40.971 74.6722 40.909C74.6722 40.847 74.6932 40.795 74.7352 40.753C74.7772 40.711 74.8292 40.69 74.8912 40.69C74.9512 40.69 75.0022 40.711 75.0442 40.753C75.0862 40.795 75.1072 40.847 75.1072 40.909C75.1072 40.971 75.0862 41.023 75.0442 41.065C75.0022 41.107 74.9512 41.128 74.8912 41.128ZM75.0592 41.347V43H74.7172V41.347H75.0592ZM76.3422 41.32C76.4722 41.32 76.5882 41.347 76.6902 41.401C76.7942 41.455 76.8752 41.535 76.9332 41.641C76.9912 41.747 77.0202 41.875 77.0202 42.025V43H76.6812V42.076C76.6812 41.928 76.6442 41.815 76.5702 41.737C76.4962 41.657 76.3952 41.617 76.2672 41.617C76.1392 41.617 76.0372 41.657 75.9612 41.737C75.8872 41.815 75.8502 41.928 75.8502 42.076V43H75.5082V41.347H75.8502V41.536C75.9062 41.468 75.9772 41.415 76.0632 41.377C76.1512 41.339 76.2442 41.32 76.3422 41.32ZM77.8554 41.626V42.541C77.8554 42.603 77.8694 42.648 77.8974 42.676C77.9274 42.702 77.9774 42.715 78.0474 42.715H78.2574V43H77.9874C77.8334 43 77.7154 42.964 77.6334 42.892C77.5514 42.82 77.5104 42.703 77.5104 42.541V41.626H77.3154V41.347H77.5104V40.936H77.8554V41.347H78.2574V41.626H77.8554ZM80.5737 41.32C80.7037 41.32 80.8197 41.347 80.9217 41.401C81.0257 41.455 81.1067 41.535 81.1647 41.641C81.2247 41.747 81.2547 41.875 81.2547 42.025V43H80.9157V42.076C80.9157 41.928 80.8787 41.815 80.8047 41.737C80.7307 41.657 80.6297 41.617 80.5017 41.617C80.3737 41.617 80.2717 41.657 80.1957 41.737C80.1217 41.815 80.0847 41.928 80.0847 42.076V43H79.7457V42.076C79.7457 41.928 79.7087 41.815 79.6347 41.737C79.5607 41.657 79.4597 41.617 79.3317 41.617C79.2037 41.617 79.1017 41.657 79.0257 41.737C78.9517 41.815 78.9147 41.928 78.9147 42.076V43H78.5727V41.347H78.9147V41.536C78.9707 41.468 79.0417 41.415 79.1277 41.377C79.2137 41.339 79.3057 41.32 79.4037 41.32C79.5357 41.32 79.6537 41.348 79.7577 41.404C79.8617 41.46 79.9417 41.541 79.9977 41.647C80.0477 41.547 80.1257 41.468 80.2317 41.41C80.3377 41.35 80.4517 41.32 80.5737 41.32ZM83.2048 42.133C83.2048 42.195 83.2008 42.251 83.1928 42.301H81.9298C81.9398 42.433 81.9888 42.539 82.0768 42.619C82.1648 42.699 82.2728 42.739 82.4008 42.739C82.5848 42.739 82.7148 42.662 82.7908 42.508H83.1598C83.1098 42.66 83.0188 42.785 82.8868 42.883C82.7568 42.979 82.5948 43.027 82.4008 43.027C82.2428 43.027 82.1008 42.992 81.9748 42.922C81.8508 42.85 81.7528 42.75 81.6808 42.622C81.6108 42.492 81.5758 42.342 81.5758 42.172C81.5758 42.002 81.6098 41.853 81.6778 41.725C81.7478 41.595 81.8448 41.495 81.9688 41.425C82.0948 41.355 82.2388 41.32 82.4008 41.32C82.5568 41.32 82.6958 41.354 82.8178 41.422C82.9398 41.49 83.0348 41.586 83.1028 41.71C83.1708 41.832 83.2048 41.973 83.2048 42.133ZM82.8478 42.025C82.8458 41.899 82.8008 41.798 82.7128 41.722C82.6248 41.646 82.5158 41.608 82.3858 41.608C82.2678 41.608 82.1668 41.646 82.0828 41.722C81.9988 41.796 81.9488 41.897 81.9328 42.025H82.8478ZM84.3754 41.32C84.5054 41.32 84.6214 41.347 84.7234 41.401C84.8274 41.455 84.9084 41.535 84.9664 41.641C85.0244 41.747 85.0534 41.875 85.0534 42.025V43H84.7144V42.076C84.7144 41.928 84.6774 41.815 84.6034 41.737C84.5294 41.657 84.4284 41.617 84.3004 41.617C84.1724 41.617 84.0704 41.657 83.9944 41.737C83.9204 41.815 83.8834 41.928 83.8834 42.076V43H83.5414V41.347H83.8834V41.536C83.9394 41.468 84.0104 41.415 84.0964 41.377C84.1844 41.339 84.2774 41.32 84.3754 41.32ZM85.8886 41.626V42.541C85.8886 42.603 85.9026 42.648 85.9306 42.676C85.9606 42.702 86.0106 42.715 86.0806 42.715H86.2906V43H86.0206C85.8666 43 85.7486 42.964 85.6666 42.892C85.5846 42.82 85.5436 42.703 85.5436 42.541V41.626H85.3486V41.347H85.5436V40.936H85.8886V41.347H86.2906V41.626H85.8886ZM87.2712 41.953C87.2712 41.749 87.3182 41.566 87.4122 41.404C87.5082 41.242 87.6372 41.116 87.7992 41.026C87.9632 40.934 88.1422 40.888 88.3362 40.888C88.5582 40.888 88.7552 40.943 88.9272 41.053C89.1012 41.161 89.2272 41.315 89.3052 41.515H88.8942C88.8402 41.405 88.7652 41.323 88.6692 41.269C88.5732 41.215 88.4622 41.188 88.3362 41.188C88.1982 41.188 88.0752 41.219 87.9672 41.281C87.8592 41.343 87.7742 41.432 87.7122 41.548C87.6522 41.664 87.6222 41.799 87.6222 41.953C87.6222 42.107 87.6522 42.242 87.7122 42.358C87.7742 42.474 87.8592 42.564 87.9672 42.628C88.0752 42.69 88.1982 42.721 88.3362 42.721C88.4622 42.721 88.5732 42.694 88.6692 42.64C88.7652 42.586 88.8402 42.504 88.8942 42.394H89.3052C89.2272 42.594 89.1012 42.748 88.9272 42.856C88.7552 42.964 88.5582 43.018 88.3362 43.018C88.1402 43.018 87.9612 42.973 87.7992 42.883C87.6372 42.791 87.5082 42.664 87.4122 42.502C87.3182 42.34 87.2712 42.157 87.2712 41.953ZM89.5915 42.166C89.5915 42 89.6255 41.853 89.6935 41.725C89.7635 41.597 89.8575 41.498 89.9755 41.428C90.0955 41.356 90.2275 41.32 90.3715 41.32C90.5015 41.32 90.6145 41.346 90.7105 41.398C90.8085 41.448 90.8865 41.511 90.9445 41.587V41.347H91.2895V43H90.9445V42.754C90.8865 42.832 90.8075 42.897 90.7075 42.949C90.6075 43.001 90.4935 43.027 90.3655 43.027C90.2235 43.027 90.0935 42.991 89.9755 42.919C89.8575 42.845 89.7635 42.743 89.6935 42.613C89.6255 42.481 89.5915 42.332 89.5915 42.166ZM90.9445 42.172C90.9445 42.058 90.9205 41.959 90.8725 41.875C90.8265 41.791 90.7655 41.727 90.6895 41.683C90.6135 41.639 90.5315 41.617 90.4435 41.617C90.3555 41.617 90.2735 41.639 90.1975 41.683C90.1215 41.725 90.0595 41.788 90.0115 41.872C89.9655 41.954 89.9425 42.052 89.9425 42.166C89.9425 42.28 89.9655 42.38 90.0115 42.466C90.0595 42.552 90.1215 42.618 90.1975 42.664C90.2755 42.708 90.3575 42.73 90.4435 42.73C90.5315 42.73 90.6135 42.708 90.6895 42.664C90.7655 42.62 90.8265 42.556 90.8725 42.472C90.9205 42.386 90.9445 42.286 90.9445 42.172ZM92.5727 41.32C92.7027 41.32 92.8187 41.347 92.9207 41.401C93.0247 41.455 93.1057 41.535 93.1637 41.641C93.2217 41.747 93.2507 41.875 93.2507 42.025V43H92.9117V42.076C92.9117 41.928 92.8747 41.815 92.8007 41.737C92.7267 41.657 92.6257 41.617 92.4977 41.617C92.3697 41.617 92.2677 41.657 92.1917 41.737C92.1177 41.815 92.0807 41.928 92.0807 42.076V43H91.7387V41.347H92.0807V41.536C92.1367 41.468 92.2077 41.415 92.2937 41.377C92.3817 41.339 92.4747 41.32 92.5727 41.32ZM93.5729 42.172C93.5729 42.002 93.6069 41.853 93.6749 41.725C93.7449 41.595 93.8409 41.495 93.9629 41.425C94.0849 41.355 94.2249 41.32 94.3829 41.32C94.5829 41.32 94.7479 41.368 94.8779 41.464C95.0099 41.558 95.0989 41.693 95.1449 41.869H94.7759C94.7459 41.787 94.6979 41.723 94.6319 41.677C94.5659 41.631 94.4829 41.608 94.3829 41.608C94.2429 41.608 94.1309 41.658 94.0469 41.758C93.9649 41.856 93.9239 41.994 93.9239 42.172C93.9239 42.35 93.9649 42.489 94.0469 42.589C94.1309 42.689 94.2429 42.739 94.3829 42.739C94.5809 42.739 94.7119 42.652 94.7759 42.478H95.1449C95.0969 42.646 95.0069 42.78 94.8749 42.88C94.7429 42.978 94.5789 43.027 94.3829 43.027C94.2249 43.027 94.0849 42.992 93.9629 42.922C93.8409 42.85 93.7449 42.75 93.6749 42.622C93.6069 42.492 93.5729 42.342 93.5729 42.172ZM97.0007 42.133C97.0007 42.195 96.9967 42.251 96.9887 42.301H95.7257C95.7357 42.433 95.7847 42.539 95.8727 42.619C95.9607 42.699 96.0687 42.739 96.1967 42.739C96.3807 42.739 96.5107 42.662 96.5867 42.508H96.9557C96.9057 42.66 96.8147 42.785 96.6827 42.883C96.5527 42.979 96.3907 43.027 96.1967 43.027C96.0387 43.027 95.8967 42.992 95.7707 42.922C95.6467 42.85 95.5487 42.75 95.4767 42.622C95.4067 42.492 95.3717 42.342 95.3717 42.172C95.3717 42.002 95.4057 41.853 95.4737 41.725C95.5437 41.595 95.6407 41.495 95.7647 41.425C95.8907 41.355 96.0347 41.32 96.1967 41.32C96.3527 41.32 96.4917 41.354 96.6137 41.422C96.7357 41.49 96.8307 41.586 96.8987 41.71C96.9667 41.832 97.0007 41.973 97.0007 42.133ZM96.6437 42.025C96.6417 41.899 96.5967 41.798 96.5087 41.722C96.4207 41.646 96.3117 41.608 96.1817 41.608C96.0637 41.608 95.9627 41.646 95.8787 41.722C95.7947 41.796 95.7447 41.897 95.7287 42.025H96.6437ZM97.6793 40.78V43H97.3373V40.78H97.6793ZM98.4703 40.78V43H98.1283V40.78H98.4703ZM100.434 42.133C100.434 42.195 100.43 42.251 100.422 42.301H99.1593C99.1693 42.433 99.2183 42.539 99.3063 42.619C99.3943 42.699 99.5023 42.739 99.6303 42.739C99.8143 42.739 99.9443 42.662 100.02 42.508H100.389C100.339 42.66 100.248 42.785 100.116 42.883C99.9863 42.979 99.8243 43.027 99.6303 43.027C99.4723 43.027 99.3303 42.992 99.2043 42.922C99.0803 42.85 98.9823 42.75 98.9103 42.622C98.8403 42.492 98.8053 42.342 98.8053 42.172C98.8053 42.002 98.8393 41.853 98.9073 41.725C98.9773 41.595 99.0743 41.495 99.1983 41.425C99.3243 41.355 99.4683 41.32 99.6303 41.32C99.7863 41.32 99.9253 41.354 100.047 41.422C100.169 41.49 100.264 41.586 100.332 41.71C100.4 41.832 100.434 41.973 100.434 42.133ZM100.077 42.025C100.075 41.899 100.03 41.798 99.9423 41.722C99.8543 41.646 99.7453 41.608 99.6153 41.608C99.4973 41.608 99.3963 41.646 99.3123 41.722C99.2283 41.796 99.1783 41.897 99.1623 42.025H100.077ZM100.657 42.166C100.657 42 100.691 41.853 100.759 41.725C100.829 41.597 100.923 41.498 101.041 41.428C101.161 41.356 101.294 41.32 101.44 41.32C101.548 41.32 101.654 41.344 101.758 41.392C101.864 41.438 101.948 41.5 102.01 41.578V40.78H102.355V43H102.01V42.751C101.954 42.831 101.876 42.897 101.776 42.949C101.678 43.001 101.565 43.027 101.437 43.027C101.293 43.027 101.161 42.991 101.041 42.919C100.923 42.845 100.829 42.743 100.759 42.613C100.691 42.481 100.657 42.332 100.657 42.166ZM102.01 42.172C102.01 42.058 101.986 41.959 101.938 41.875C101.892 41.791 101.831 41.727 101.755 41.683C101.679 41.639 101.597 41.617 101.509 41.617C101.421 41.617 101.339 41.639 101.263 41.683C101.187 41.725 101.125 41.788 101.077 41.872C101.031 41.954 101.008 42.052 101.008 42.166C101.008 42.28 101.031 42.38 101.077 42.466C101.125 42.552 101.187 42.618 101.263 42.664C101.341 42.708 101.423 42.73 101.509 42.73C101.597 42.73 101.679 42.708 101.755 42.664C101.831 42.62 101.892 42.556 101.938 42.472C101.986 42.386 102.01 42.286 102.01 42.172Z" fill="black"/>
<path d="M113.017 52.5205H118.244" stroke="white" stroke-width="3" stroke-miterlimit="10" stroke-linecap="round" stroke-linejoin="round"/>
<path d="M40.4788 14.0127V48.7268C40.4788 50.8225 42.1777 52.5215 44.2735 52.5215H108.054" stroke="white" stroke-width="3" stroke-miterlimit="10" stroke-linecap="round" stroke-linejoin="round"/>
<path d="M40.4788 4.80078V10.0096" stroke="white" stroke-width="3" stroke-miterlimit="10" stroke-linecap="round" stroke-linejoin="round"/>
</svg>
