<svg width="333" height="342" viewBox="0 0 333 342" fill="none" xmlns="http://www.w3.org/2000/svg">
<g clip-path="url(#clip0_34_3639)">
<path d="M167.607 342C235.294 342 290.165 336.756 290.165 330.288C290.165 323.82 235.294 318.577 167.607 318.577C99.9199 318.577 45.0488 323.82 45.0488 330.288C45.0488 336.756 99.9199 342 167.607 342Z" fill="#108ED6" fill-opacity="0.69"/>
<path opacity="0.5" d="M167.607 342C235.294 342 290.165 336.756 290.165 330.288C290.165 323.82 235.294 318.577 167.607 318.577C99.9199 318.577 45.0488 323.82 45.0488 330.288C45.0488 336.756 99.9199 342 167.607 342Z" fill="white"/>
<path d="M257.09 35.2358H93.6797V252.134H257.09V35.2358Z" fill="white"/>
<path d="M257.133 252.559H93.7224C93.6096 252.559 93.5013 252.514 93.4215 252.434C93.3417 252.354 93.2969 252.246 93.2969 252.134V35.236C93.2969 35.1233 93.3417 35.0152 93.4215 34.9355C93.5013 34.8558 93.6096 34.811 93.7224 34.811H257.133C257.246 34.811 257.354 34.8558 257.434 34.9355C257.514 35.0152 257.558 35.1233 257.558 35.236V252.134C257.558 252.246 257.514 252.354 257.434 252.434C257.354 252.514 257.246 252.559 257.133 252.559ZM94.148 251.709H256.707V35.6609H94.148V251.709Z" fill="#263238"/>
<path d="M235.957 146.995H111.578V152.094H235.957V146.995Z" fill="#263238"/>
<path d="M235.958 82.7695H134.635V87.8688H235.958V82.7695Z" fill="#263238"/>
<path d="M235.957 114.878H111.578V119.977H235.957V114.878Z" fill="#263238"/>
<path d="M203.999 211.212C202.416 212.912 200.799 214.611 199.148 216.311H111.596V211.212H203.999Z" fill="#263238"/>
<path d="M228.434 179.104C227.345 180.803 226.23 182.503 225.072 184.203H111.596V179.104H228.434Z" fill="#263238"/>
<path d="M155.563 246.278C155.563 246.278 148.295 249.805 127.937 251.709H94.1055" stroke="#263238" stroke-linecap="round" stroke-linejoin="round"/>
<path d="M253.55 128.204C254.808 126.319 255.569 124.147 255.763 121.89C256.018 119.051 256.205 115.745 256.265 113.731L256.588 102.606V126.505L253.55 128.204Z" fill="#263238"/>
<path d="M255.635 125.519C255.635 126.555 246.12 151.61 228.4 179.061C227.311 180.761 226.196 182.46 225.038 184.16C218.688 193.668 211.645 202.696 203.965 211.169C202.382 212.869 200.765 214.569 199.114 216.269C186.645 228.898 172.279 239.649 156.184 245.811C157.104 245.343 171.121 238.281 174.177 216.269C174.404 214.654 174.565 212.954 174.662 211.169C175.07 203.724 174.27 194.801 171.564 184.16C171.144 182.506 170.676 180.806 170.159 179.061C166.227 165.794 159.47 150.072 148.703 131.468L145.929 125.434L164.057 130.533C245.022 149.307 255.592 125.434 255.592 125.434C255.592 125.434 255.635 125.502 255.635 125.519Z" fill="white" stroke="#263238" stroke-linecap="round" stroke-linejoin="round"/>
<path d="M185.973 201.149C186.03 202.654 185.996 204.161 185.871 205.662L185.973 201.149Z" fill="white"/>
<path d="M185.973 201.149C186.03 202.654 185.996 204.161 185.871 205.662" stroke="#263238" stroke-linecap="round" stroke-linejoin="round"/>
<path d="M166.5 143.281C178.262 158.494 184.194 184.203 185.743 196.399L166.5 143.281Z" fill="white"/>
<path d="M166.5 143.281C178.262 158.494 184.194 184.203 185.743 196.399" stroke="#263238" stroke-linecap="round" stroke-linejoin="round"/>
<path d="M113.399 58.8795C112.253 58.9156 111.111 58.7213 110.041 58.3081C108.971 57.8949 107.995 57.2712 107.171 56.4741C106.348 55.677 105.693 54.7228 105.245 53.668C104.798 52.6132 104.567 51.4794 104.567 50.334C104.567 49.1885 104.798 48.0547 105.245 46.9999C105.693 45.9452 106.348 44.9909 107.171 44.1938C107.995 43.3967 108.971 42.773 110.041 42.3598C111.111 41.9466 112.253 41.7523 113.399 41.7884C113.738 41.7884 114.063 41.9227 114.302 42.1618C114.541 42.4009 114.676 42.7251 114.676 43.0632C114.676 43.4014 114.541 43.7256 114.302 43.9647C114.063 44.2038 113.738 44.3381 113.399 44.3381C112.209 44.328 111.042 44.6713 110.047 45.3244C109.052 45.9775 108.274 46.9111 107.812 48.0065C107.349 49.102 107.223 50.31 107.449 51.4772C107.675 52.6445 108.243 53.7184 109.081 54.5626C109.92 55.4068 110.99 55.9834 112.157 56.2191C113.324 56.4547 114.535 56.3389 115.636 55.8863C116.737 55.4337 117.678 54.6648 118.341 53.677C119.003 52.6892 119.357 51.5271 119.357 50.3382C119.357 50.0001 119.492 49.6759 119.731 49.4368C119.97 49.1977 120.295 49.0634 120.634 49.0634C120.972 49.0634 121.297 49.1977 121.536 49.4368C121.776 49.6759 121.91 50.0001 121.91 50.3382C121.908 52.5955 121.012 54.7603 119.418 56.3604C117.823 57.9605 115.66 58.866 113.399 58.8795Z" fill="#263238"/>
<path d="M113.195 55.3525C105.374 55.3525 104.948 38.4739 104.939 35.0914V34.9894C104.939 31.5899 105.339 14.5923 113.195 14.5923C121.051 14.5923 121.595 32.8987 121.638 34.9894L114.829 35.1169C114.815 31.1833 114.242 27.2716 113.127 23.499C112.125 27.2334 111.655 31.0901 111.731 34.9554V35.0574C111.656 38.9428 112.143 42.8186 113.178 46.5648C113.255 46.3183 113.331 46.0463 113.416 45.7149L113.953 43.8706L118.702 45.2559C118.937 45.3243 119.157 45.4383 119.348 45.5916C119.539 45.7448 119.698 45.9343 119.816 46.149C119.934 46.3637 120.008 46.5996 120.035 46.843C120.061 47.0864 120.039 47.3327 119.97 47.5676C118.591 52.7264 116.302 55.3525 113.195 55.3525Z" fill="#BFBFBF" stroke="#263238" stroke-linecap="round" stroke-linejoin="round"/>
<path d="M120.677 51.6132C120.338 51.6132 120.014 51.4789 119.774 51.2398C119.535 51.0007 119.4 50.6765 119.4 50.3384C119.4 48.7558 118.774 47.2373 117.659 46.1135C116.543 44.9898 115.027 44.3517 113.443 44.3382C113.104 44.3382 112.779 44.2039 112.54 43.9648C112.301 43.7258 112.166 43.4015 112.166 43.0634C112.166 42.7253 112.301 42.401 112.54 42.162C112.779 41.9229 113.104 41.7886 113.443 41.7886C115.704 41.8043 117.867 42.7117 119.461 44.3132C121.056 45.9146 121.951 48.0803 121.954 50.3384C121.954 50.6765 121.819 51.0007 121.58 51.2398C121.34 51.4789 121.016 51.6132 120.677 51.6132Z" fill="#263238"/>
<path d="M153.741 58.8797C151.518 58.8096 149.41 57.8786 147.862 56.2837C146.315 54.6887 145.449 52.555 145.449 50.3341C145.449 48.1132 146.315 45.9795 147.862 44.3846C149.41 42.7896 151.518 41.8586 153.741 41.7886C154.08 41.7886 154.405 41.9229 154.644 42.162C154.883 42.401 155.018 42.7253 155.018 43.0634C155.018 43.4015 154.883 43.7258 154.644 43.9648C154.405 44.2039 154.08 44.3382 153.741 44.3382C152.553 44.3382 151.391 44.6901 150.403 45.3494C149.415 46.0087 148.645 46.9458 148.19 48.0422C147.735 49.1386 147.616 50.345 147.848 51.5089C148.08 52.6728 148.652 53.742 149.493 54.5811C150.333 55.4202 151.404 55.9917 152.569 56.2232C153.735 56.4547 154.943 56.3359 156.041 55.8818C157.139 55.4276 158.077 54.6586 158.737 53.6719C159.398 52.6851 159.75 51.5251 159.75 50.3384C159.75 50.0003 159.885 49.676 160.124 49.4369C160.363 49.1979 160.688 49.0635 161.027 49.0635C161.365 49.0635 161.69 49.1979 161.929 49.4369C162.169 49.676 162.303 50.0003 162.303 50.3384C162.299 52.6037 161.395 54.7749 159.79 56.376C158.185 57.9771 156.01 58.8774 153.741 58.8797Z" fill="#263238"/>
<path d="M153.546 55.3525C145.724 55.3525 145.29 38.4739 145.29 35.0914V34.9894C145.29 31.5899 145.682 14.5923 153.546 14.5923C161.41 14.5923 161.946 32.8987 161.989 34.9894L155.18 35.1169C155.167 31.1833 154.594 27.2715 153.478 23.499C152.479 27.234 152.012 31.0905 152.09 34.9554V35.0574C152.015 38.9595 152.502 42.8522 153.537 46.6157C153.622 46.3693 153.699 46.0973 153.784 45.7659L154.32 43.9216L159.069 45.3069C159.305 45.3753 159.524 45.4893 159.716 45.6426C159.907 45.7958 160.066 45.9853 160.184 46.2C160.302 46.4147 160.376 46.6506 160.402 46.894C160.429 47.1374 160.407 47.3837 160.337 47.6186C158.942 52.7264 156.652 55.3525 153.546 55.3525Z" fill="#BFBFBF" stroke="#263238" stroke-linecap="round" stroke-linejoin="round"/>
<path d="M161.027 51.6132C160.688 51.6132 160.364 51.4789 160.124 51.2398C159.885 51.0007 159.75 50.6765 159.75 50.3384C159.748 48.7477 159.114 47.2229 157.988 46.0981C156.861 44.9733 155.334 44.3405 153.741 44.3382C153.403 44.3382 153.078 44.2039 152.839 43.9648C152.599 43.7258 152.465 43.4015 152.465 43.0634C152.465 42.7253 152.599 42.401 152.839 42.162C153.078 41.9229 153.403 41.7886 153.741 41.7886C156.012 41.7908 158.188 42.6923 159.793 44.2952C161.398 45.8981 162.301 48.0715 162.304 50.3384C162.304 50.6765 162.169 51.0007 161.93 51.2398C161.69 51.4789 161.365 51.6132 161.027 51.6132Z" fill="#263238"/>
<path d="M194.092 58.8797C191.869 58.8096 189.761 57.8786 188.213 56.2837C186.665 54.6887 185.8 52.555 185.8 50.3341C185.8 48.1132 186.665 45.9795 188.213 44.3846C189.761 42.7896 191.869 41.8586 194.092 41.7886C194.431 41.7886 194.755 41.9229 194.995 42.162C195.234 42.401 195.369 42.7253 195.369 43.0634C195.369 43.4015 195.234 43.7258 194.995 43.9648C194.755 44.2039 194.431 44.3382 194.092 44.3382C192.904 44.3382 191.742 44.6901 190.754 45.3494C189.766 46.0087 188.995 46.9458 188.541 48.0422C188.086 49.1386 187.967 50.345 188.199 51.5089C188.43 52.6728 189.003 53.742 189.843 54.5811C190.683 55.4202 191.754 55.9917 192.92 56.2232C194.085 56.4547 195.293 56.3359 196.391 55.8818C197.489 55.4276 198.428 54.6586 199.088 53.6719C199.748 52.6851 200.101 51.5251 200.101 50.3384C200.101 50.0003 200.235 49.676 200.475 49.4369C200.714 49.1979 201.039 49.0635 201.377 49.0635C201.716 49.0635 202.041 49.1979 202.28 49.4369C202.519 49.676 202.654 50.0003 202.654 50.3384C202.649 52.6037 201.746 54.7749 200.141 56.376C198.536 57.9771 196.361 58.8774 194.092 58.8797Z" fill="#263238"/>
<path d="M193.887 55.3525C186.066 55.3525 185.64 38.4739 185.632 35.0914V34.9894C185.632 31.5899 186.032 14.5923 193.887 14.5923C201.743 14.5923 202.296 32.8987 202.33 34.9894L195.522 35.1169C195.508 31.1833 194.935 27.2716 193.819 23.499C192.823 27.2456 192.362 31.1139 192.449 34.9894V35.0914C192.374 38.9767 192.861 42.8526 193.896 46.5988C193.973 46.3523 194.058 46.0803 194.134 45.7489L194.679 43.9046L199.42 45.2899C199.655 45.3583 199.875 45.4723 200.066 45.6256C200.257 45.7788 200.416 45.9683 200.534 46.183C200.652 46.3977 200.726 46.6336 200.752 46.877C200.779 47.1204 200.757 47.3667 200.688 47.6016C199.258 52.7264 197.002 55.3525 193.887 55.3525Z" fill="#BFBFBF" stroke="#263238" stroke-linecap="round" stroke-linejoin="round"/>
<path d="M201.377 51.6132C201.039 51.6132 200.714 51.4789 200.475 51.2398C200.235 51.0007 200.101 50.6765 200.101 50.3384C200.099 48.7477 199.465 47.2229 198.338 46.0981C197.212 44.9733 195.685 44.3405 194.092 44.3382C193.753 44.3382 193.429 44.2039 193.189 43.9648C192.95 43.7258 192.815 43.4015 192.815 43.0634C192.815 42.7253 192.95 42.401 193.189 42.162C193.429 41.9229 193.753 41.7886 194.092 41.7886C196.364 41.7886 198.542 42.6891 200.149 44.2922C201.756 45.8954 202.66 48.07 202.663 50.3384C202.66 50.6772 202.524 51.0015 202.283 51.2403C202.042 51.4791 201.717 51.6132 201.377 51.6132Z" fill="#263238"/>
<path d="M234.442 58.8795C233.296 58.9156 232.154 58.7213 231.084 58.3081C230.014 57.8949 229.038 57.2712 228.214 56.4741C227.391 55.677 226.735 54.7228 226.288 53.668C225.841 52.6132 225.61 51.4794 225.61 50.334C225.61 49.1885 225.841 48.0547 226.288 46.9999C226.735 45.9452 227.391 44.9909 228.214 44.1938C229.038 43.3967 230.014 42.773 231.084 42.3598C232.154 41.9466 233.296 41.7523 234.442 41.7884C234.781 41.7884 235.106 41.9227 235.345 42.1618C235.584 42.4009 235.719 42.7251 235.719 43.0632C235.719 43.4014 235.584 43.7256 235.345 43.9647C235.106 44.2038 234.781 44.3381 234.442 44.3381C233.254 44.3364 232.091 44.6869 231.102 45.3451C230.112 46.0034 229.341 46.9399 228.885 48.0362C228.429 49.1324 228.309 50.3391 228.539 51.5036C228.77 52.668 229.342 53.738 230.182 54.578C231.022 55.4179 232.093 55.9902 233.258 56.2224C234.424 56.4547 235.633 56.3363 236.731 55.8824C237.83 55.4286 238.769 54.6595 239.429 53.6726C240.09 52.6857 240.443 51.5253 240.443 50.3382C240.443 50.0001 240.577 49.6759 240.816 49.4368C241.056 49.1977 241.381 49.0634 241.719 49.0634C242.058 49.0634 242.382 49.1977 242.622 49.4368C242.861 49.6759 242.996 50.0001 242.996 50.3382C242.994 52.6028 242.092 54.774 240.488 56.3753C238.884 57.9766 236.71 58.8773 234.442 58.8795Z" fill="#263238"/>
<path d="M234.238 55.3525C226.416 55.3525 225.991 38.4739 225.982 35.0914V34.9894C225.982 31.5899 226.382 14.5923 234.238 14.5923C242.094 14.5923 242.664 32.9327 242.664 35.0234L235.855 35.1509C235.837 31.2176 235.264 27.3066 234.153 23.533C233.146 27.2665 232.676 31.1238 232.757 34.9894V35.0914C232.694 38.9834 233.189 42.8644 234.23 46.6157C234.315 46.3693 234.391 46.0973 234.476 45.7659L235.013 43.9216L239.762 45.3069C239.997 45.3753 240.217 45.4893 240.408 45.6426C240.599 45.7958 240.758 45.9853 240.876 46.2C240.994 46.4147 241.068 46.6506 241.095 46.894C241.121 47.1374 241.099 47.3837 241.03 47.6186C239.634 52.7264 237.345 55.3525 234.238 55.3525Z" fill="#BFBFBF" stroke="#263238" stroke-linecap="round" stroke-linejoin="round"/>
<path d="M241.72 51.6132C241.381 51.6132 241.056 51.4789 240.817 51.2398C240.577 51.0007 240.443 50.6765 240.443 50.3384C240.443 48.7485 239.811 47.2236 238.686 46.0986C237.561 44.9736 236.035 44.3405 234.443 44.3382C234.104 44.3382 233.779 44.2039 233.54 43.9648C233.301 43.7258 233.166 43.4015 233.166 43.0634C233.166 42.7253 233.301 42.401 233.54 42.162C233.779 41.9229 234.104 41.7886 234.443 41.7886C236.711 41.7931 238.886 42.6956 240.489 44.2982C242.092 45.9009 242.994 48.073 242.996 50.3384C242.996 50.6765 242.862 51.0007 242.622 51.2398C242.383 51.4789 242.058 51.6132 241.72 51.6132Z" fill="#263238"/>
<path d="M278.855 249.673C282.808 232.505 272.076 215.388 254.884 211.44C237.692 207.492 220.55 218.209 216.597 235.377C212.643 252.544 223.376 269.662 240.568 273.609C257.76 277.557 274.902 266.84 278.855 249.673Z" fill="#F14040" stroke="#263238" stroke-miterlimit="10"/>
<path d="M260.914 255.705C260.638 255.982 260.31 256.202 259.949 256.352C259.588 256.502 259.2 256.579 258.809 256.579C258.418 256.579 258.03 256.502 257.669 256.351C257.307 256.201 256.979 255.981 256.703 255.703L247.742 246.748L238.782 255.703C238.224 256.26 237.466 256.574 236.677 256.573C235.887 256.573 235.129 256.259 234.571 255.701C234.012 255.143 233.698 254.386 233.698 253.597C233.698 252.807 234.011 252.051 234.569 251.493L243.547 242.52L234.586 233.565C234.028 233.007 233.714 232.25 233.713 231.461C233.713 230.672 234.027 229.915 234.585 229.357C235.143 228.799 235.9 228.486 236.69 228.486C237.48 228.487 238.237 228.8 238.796 229.359L247.757 238.314L256.693 229.384C257.251 228.826 258.009 228.512 258.798 228.513C259.588 228.513 260.346 228.827 260.904 229.385C261.463 229.943 261.777 230.7 261.777 231.49C261.777 232.279 261.464 233.036 260.906 233.593L251.97 242.524L260.931 251.479C261.209 251.757 261.429 252.087 261.579 252.45C261.729 252.814 261.805 253.203 261.804 253.596C261.802 253.989 261.723 254.378 261.57 254.74C261.417 255.102 261.195 255.43 260.914 255.705Z" fill="white"/>
<path d="M94.5737 138.233C94.5737 138.233 97.1951 153.276 96.6929 155.145C96.191 156.47 95.3013 157.613 94.1396 158.426L100.012 172.364V161.46C100.012 161.46 101.629 136.219 101.825 124.915C101.908 119.304 101.689 113.692 101.17 108.104L98.3866 108.555C98.3866 108.555 95.195 132.173 94.5737 138.233Z" fill="#F7905C" stroke="#263238" stroke-linecap="round" stroke-linejoin="round"/>
<path d="M82.301 321.059L80.6669 309.058L69.8154 308.208L71.0836 321.322C72.6808 322.614 74.6859 323.297 76.7408 323.249C78.7956 323.2 80.7664 322.424 82.301 321.059Z" fill="#F7905C" stroke="#263238" stroke-linecap="round" stroke-linejoin="round"/>
<path d="M70.3772 319.801C70.0197 322.758 69.6708 325.869 70.5219 328.699C71.373 331.529 73.8667 333.917 76.3178 333.22C76.8796 333.067 77.4157 332.753 78.02 332.651C79.1094 332.464 80.1818 333.042 81.2031 333.543C87.3991 336.594 103.553 335.286 104.83 334.614C105.198 334.393 105.497 334.074 105.695 333.693C105.893 333.311 105.98 332.883 105.949 332.455C105.917 332.027 105.767 331.616 105.515 331.268C105.263 330.92 104.92 330.649 104.523 330.484C97.1101 326.974 97.5867 327.858 85.348 320.931C83.1521 319.69 81.85 320.285 80.7435 321.424C80.0175 322.134 79.1354 322.665 78.1675 322.973C77.1997 323.282 76.1729 323.361 75.1691 323.204C74.1654 323.046 73.2124 322.656 72.3863 322.065C71.5602 321.474 70.8839 320.699 70.4112 319.801H70.3772Z" fill="#263238"/>
<path d="M81.586 293.931C76.0454 300.806 69.1089 309.611 69.1089 309.611L64.1045 298.851C64.1045 298.851 75.7305 285.066 81.6967 270.525C81.6967 273.372 81.9265 276.474 82.003 278.25C82.2073 283.622 81.6711 288.585 81.586 293.931Z" fill="#263238"/>
<path d="M69.8239 323.056C69.7982 323.51 69.6181 323.942 69.3133 324.28C68.3601 325.13 67.3047 323.592 66.5047 322.58C64.0458 319.316 61.8298 315.876 59.8746 312.288L59.2533 306.755L57.432 307.512H57.2022L56.6745 306.585C52.6403 299.548 57.4575 298.18 62.5896 298.41C63.1769 298.41 64.4025 298.563 66.377 302.345C66.908 303.217 67.3827 304.123 67.7983 305.056C70.0868 310.764 70.7867 316.983 69.8239 323.056Z" fill="#263238"/>
<path d="M101.51 178.237C101.32 175.184 101.292 172.123 101.425 169.066C101.481 166.684 100.985 164.32 99.9751 162.16C98.9653 160 97.4692 158.103 95.6038 156.616C95.6038 156.616 91.144 162.565 78.4031 162.565H77.7648C72.0905 162.428 66.4636 161.495 61.0493 159.794C58.7544 159.077 56.5036 158.225 54.3086 157.245C54.3086 157.245 54.5639 174.242 55.1001 190.041C55.5597 202.577 58.7939 258.882 60.8365 276.797C62.5387 291.721 67.5942 306.458 68.1985 312.824C68.4879 315.824 75.2711 314.889 78.5138 313.733C82.7693 312.212 83.0671 311.311 83.0671 311.311C83.348 306.687 82.1139 298.563 82.216 293.965C93.825 279.517 111.885 256.655 112.396 253.128C116.337 225.728 101.936 181.075 101.51 178.237ZM90.4036 248.777C90.1057 250.629 86.2502 260.335 81.8926 270.933C81.8926 266.242 83.9693 261.355 84.5821 253.782C85.7481 239.216 82.7863 223.187 83.2033 211.484C85.5609 221.547 90.9483 245.301 90.4036 248.743V248.777Z" fill="#263238"/>
<path d="M108.625 257.437C106.767 259.016 104.599 260.189 102.259 260.879" stroke="#BFBFBF" stroke-linecap="round" stroke-linejoin="round"/>
<path d="M111.229 254.692C110.863 255.175 110.471 255.637 110.055 256.077" stroke="#BFBFBF" stroke-linecap="round" stroke-linejoin="round"/>
<path d="M85.8327 167.741C86.9987 173.936 87.1859 182.308 84.6412 188.07C84.0057 189.056 83.2478 189.959 82.3857 190.755" stroke="#BFBFBF" stroke-linecap="round" stroke-linejoin="round"/>
<path d="M65.7295 167.078C65.0401 170.052 63.7975 174.956 62.1805 177.548C60.6291 180.225 58.0805 182.18 55.0908 182.987" stroke="#BFBFBF" stroke-linecap="round" stroke-linejoin="round"/>
<path d="M81.4414 173.35C82.3351 183.395 82.2925 193.143 83.2542 210.03" stroke="#BFBFBF" stroke-linecap="round" stroke-linejoin="round"/>
<path d="M80.8965 168.148C80.9901 168.947 81.0837 169.738 81.1688 170.52" stroke="#F7905C" stroke-linecap="round" stroke-linejoin="round"/>
<path d="M90.4463 246.032C91.0264 250.169 92.1987 254.202 93.9273 258.007" stroke="#BFBFBF" stroke-linecap="round" stroke-linejoin="round"/>
<path d="M91.1691 249.924C90.4221 255.82 90.7479 261.803 92.1308 267.584" stroke="#BFBFBF" stroke-linecap="round" stroke-linejoin="round"/>
<path d="M57.7129 181.968C59.2704 205.135 61.4322 222.762 63.1599 240.354" stroke="#BFBFBF" stroke-linecap="round" stroke-linejoin="round"/>
<path d="M63.2197 246.465C63.2197 245.742 63.2197 245.003 63.2197 244.264" stroke="#BFBFBF" stroke-linecap="round" stroke-linejoin="round"/>
<path d="M73.1769 314.43C71.9769 310.716 63.6872 282.135 63.2957 270.279C63.0318 262.417 62.7169 256.817 63.117 249.219" stroke="#BFBFBF" stroke-linecap="round" stroke-linejoin="round"/>
<path d="M82.5906 268.256L82.2842 293.846" stroke="#BFBFBF" stroke-linecap="round" stroke-linejoin="round"/>
<path d="M99.4419 92.1865C97.4504 81.9879 90.6671 80.6621 89.1266 80.1777C78.5135 76.8376 71.2536 76.2767 62.8618 79.9482C53.0316 84.2656 51.0571 84.4186 48.0272 95.62C46.325 101.748 49.6698 122.383 51.6614 131.366C53.2529 138.513 52.8529 157.032 55.9168 159.998C61.6022 165.497 69.6621 164.707 77.4581 163.33C84.2073 162.132 95.4758 160.534 98.0376 154.185C98.4036 153.276 98.3695 149.434 98.2419 143.893C97.8333 127.125 98.9568 117.504 98.7866 106.77L101.068 105.717C101.068 105.717 101.263 101.476 99.4419 92.1865Z" fill="#108ED6"/>
<mask id="mask0_34_3639" style="mask-type:luminance" maskUnits="userSpaceOnUse" x="47" y="77" width="55" height="88">
<path d="M99.4419 92.1865C97.4503 81.9879 90.6671 80.6621 89.1266 80.1777C78.5135 76.8376 71.2536 76.2767 62.8618 79.9482C53.0316 84.2656 51.0571 84.4186 48.0272 95.62C46.325 101.748 49.6698 122.383 51.6614 131.366C53.2529 138.513 52.8529 157.032 55.9168 159.998C61.6022 165.497 69.662 164.707 77.4581 163.33C84.2073 162.132 95.4758 160.534 98.0376 154.185C98.4036 153.276 98.3695 149.434 98.2419 143.893C97.8333 127.125 98.9568 117.504 98.7866 106.77L101.068 105.717C101.068 105.717 101.263 101.476 99.4419 92.1865Z" fill="white"/>
</mask>
<g mask="url(#mask0_34_3639)">
<path opacity="0.2" d="M50.317 113.994C50.6149 117.462 49.4659 121.184 50.9723 124.303C51.3696 125.188 52.0209 125.935 52.8436 126.449C53.6663 126.963 54.6235 127.222 55.5938 127.193C56.8023 127.066 57.9428 126.343 59.1514 126.479C60.7003 126.641 61.7642 128.06 62.6749 129.326C64.5793 132.259 67.019 134.807 69.8667 136.839C72.7859 138.751 76.4967 139.712 79.8415 138.709C78.9578 140.153 77.9618 141.526 76.8627 142.814C78.7181 142.125 82.8204 139.142 86.412 139.125L97.8762 139.049C98.6167 136.652 96.8975 134.026 94.6165 132.964C92.3356 131.901 89.6972 132.037 87.2035 132.377C84.7098 132.717 82.1905 133.227 79.7053 132.887C76.3768 132.26 73.379 130.474 71.2454 127.847C69.1391 125.233 67.348 122.381 65.9091 119.349C65.2878 120.521 63.5686 120.666 62.4111 120.029C61.3176 119.278 60.4048 118.294 59.7386 117.147C57.4662 113.943 53.1171 108.606 49.1084 107.739C48.4446 109.448 50.1553 112.108 50.317 113.994Z" fill="black"/>
<path opacity="0.2" d="M85.5605 131.018C90.0033 129.318 92.9821 124.916 94.2673 120.326C95.0332 117.556 96.761 109.949 94.8375 107.578C93.3991 111.564 92.4034 115.694 90.8458 119.655C90.0458 121.678 89.1947 123.675 88.2926 125.604C87.833 126.547 86.4968 130.652 85.5605 131.018Z" fill="black"/>
<path opacity="0.2" d="M53.466 143.953C56.3172 150.811 62.8877 155.681 70.0198 157.78C77.152 159.879 85.4587 159.803 92.7697 158.426C83.348 163.755 70.8539 164.273 60.7684 160.338C58.9556 159.633 57.1513 160.449 55.8151 159.03C52.7511 155.783 52.8873 149.069 53.2618 144.582L51.5596 144.658" fill="black"/>
<path opacity="0.2" d="M72.2156 90.2999C72.5393 90.7854 73.02 91.1453 73.5774 91.3197C73.9024 91.3521 74.2304 91.2994 74.5288 91.1668C74.8273 91.0342 75.086 90.8262 75.2796 90.5634C75.6656 90.0286 76.0018 89.4596 76.2838 88.8636C77.0956 87.4233 78.3527 86.2842 79.867 85.617C80.6893 87.5915 81.9323 89.3635 83.5097 90.8098H84.0373C84.8611 88.8302 85.0946 86.6552 84.7097 84.5462C84.6369 84.8167 84.5074 85.0686 84.3299 85.2854C84.1524 85.5022 83.9308 85.679 83.6799 85.804C83.28 84.9422 82.752 84.1457 82.1139 83.4414C81.7909 83.0925 81.3942 82.82 80.9525 82.6436C80.5108 82.4672 80.0353 82.3913 79.5606 82.4215C79.1593 82.4857 78.7712 82.6149 78.4116 82.8039C76.0455 83.9513 74.3774 86.2035 73.1263 88.4726C71.3674 87.1825 69.5344 85.9964 67.6367 84.9202C69.041 86.7389 70.6751 88.4981 72.2156 90.2999Z" fill="black"/>
</g>
<path d="M99.4419 92.1865C97.4504 81.9879 90.6671 80.6621 89.1266 80.1777C78.5135 76.8376 71.2536 76.2767 62.8618 79.9482C53.0316 84.2656 51.0571 84.4186 48.0272 95.62C46.325 101.748 49.6698 122.383 51.6614 131.366C53.2529 138.513 52.8529 157.032 55.9168 159.998C61.6022 165.497 69.662 164.707 77.4581 163.33C84.2073 162.132 95.4758 160.534 98.0376 154.185C98.4036 153.276 98.3695 149.434 98.2419 143.893C97.8333 127.125 98.9568 117.504 98.7866 106.77L101.068 105.717C101.068 105.717 101.263 101.476 99.4419 92.1865Z" stroke="#263238" stroke-miterlimit="10"/>
<path d="M82.0118 77.917C83.2893 77.9153 84.5355 77.5224 85.5825 76.7915C86.6295 76.0605 87.427 75.0266 87.8673 73.8291C89.0929 70.4296 89.6631 59.6021 89.6631 57.6304C89.6631 55.6587 88.1056 51.6813 87.7907 49.4206C87.4758 47.1599 86.0885 42.4516 86.0885 42.4516L81.9607 38.4741L76.2839 40.8708L68.2495 41.9331C68.2495 41.9331 66.7516 54.9448 64.7005 52.8541C62.6493 50.7634 56.4533 53.449 56.8363 58.3783C57.2193 63.3076 63.5345 63.2396 63.5345 63.2396C63.5345 63.2396 65.1005 64.7779 66.0367 69.9027C66.6223 73.0897 66.6425 76.3548 66.0963 79.5488C67.1083 80.7915 68.421 81.7558 69.9103 82.3507C71.3995 82.9455 73.0161 83.1512 74.6072 82.9483C80.0457 82.2599 80.5649 78.5714 80.5649 78.5714C80.5649 78.5714 80.633 77.951 82.0118 77.917Z" fill="#F7905C"/>
<path d="M63.6284 56.0411C62.4198 54.3414 58.0792 51.5878 57.0239 57.3499C55.9685 63.1121 61.7304 62.7467 64.7518 63.4606C67.0157 67.2255 71.5606 73.5487 75.3905 75.5289C77.7651 76.7612 80.7354 78.189 83.5355 77.866C86.3356 77.5431 87.4506 75.8688 87.9953 73.2257C88.7496 69.6772 89.2417 66.0782 89.4677 62.4577C89.6038 60.1546 90.0038 57.0695 89.0676 54.8853C87.7229 51.7322 88.0123 48.0863 86.9825 44.8652C85.9526 41.6442 83.161 39.2815 80.5737 37.2163" stroke="#263238" stroke-linecap="round" stroke-linejoin="round"/>
<path d="M74.0024 53.9333C75.7727 52.8369 77.3132 52.361 78.8026 53.9333C79.2197 53.9333 80.1814 52.2335 80.1814 52.2335C79.742 51.6988 79.1498 51.3106 78.4837 51.1208C77.8176 50.9309 77.1094 50.9485 76.4536 51.1712C73.8577 51.8001 74.0024 53.9333 74.0024 53.9333Z" fill="#263238"/>
<path d="M82.9297 70.1968C81.301 68.8207 79.9128 68.6383 77.7602 69.4175" stroke="#263238" stroke-linecap="round" stroke-linejoin="round"/>
<path d="M77.0666 56.6187C77.4581 56.6187 77.8411 57.2051 77.9177 58.0125C77.9943 58.8198 77.7219 59.4997 77.3219 59.5252C76.9219 59.5507 76.5474 58.9303 76.4708 58.1314C76.3942 57.3326 76.7006 56.6526 77.0666 56.6187Z" fill="#263238"/>
<path d="M85.6973 55.48C86.1058 55.48 86.4888 56.0579 86.5484 56.8653C86.608 57.6727 86.3611 58.3611 85.9526 58.3951C85.5441 58.4291 85.1696 57.8002 85.1015 57.0013C85.0334 56.2024 85.2973 55.5225 85.6973 55.48Z" fill="#263238"/>
<path d="M84.7437 52.9981C84.7437 52.9981 86.7013 52.0462 87.4843 52.7346C87.4843 52.7346 88.046 50.7884 86.5651 50.338C86.1955 50.1846 85.782 50.1736 85.4047 50.307C85.0274 50.4404 84.713 50.7089 84.5225 51.0604L84.582 53.1596L84.7437 52.9981Z" fill="#263238"/>
<path d="M80.6843 77.7469C80.7354 77.7469 80.3184 80.985 78.9821 81.8943C78.0884 82.6783 76.9376 83.1077 75.748 83.1012C72.9989 83.3391 67.5604 81.9028 66.1221 79.5487C66.6504 77.2255 66.7342 74.8234 66.3689 72.4692C66.1221 69.4186 65.5689 66.4006 64.7178 63.4604C64.7178 63.4604 71.8414 76.6931 80.6843 77.7469Z" stroke="#263238" stroke-linecap="round" stroke-linejoin="round"/>
<path d="M66.777 77.1094C64.9046 77.5513 63.3726 77.6533 62.9641 78.9366C62.6917 79.7865 63.313 80.5344 63.9769 81.2398C66.7368 84.0979 69.9167 86.5195 73.407 88.4213C74.9382 86.1191 76.8189 84.069 78.9817 82.3446C74.9378 81.5639 71.0987 79.9581 67.7047 77.6278L66.777 77.1094Z" fill="#F7905C" stroke="#263238" stroke-linecap="round" stroke-linejoin="round"/>
<path d="M80.735 78.002C81.2832 78.0147 81.8207 78.1559 82.3041 78.4143C82.7876 78.6727 83.2034 79.0409 83.5181 79.4892C84.3181 80.3986 84.965 84.1296 84.1479 86.5007C82.3266 84.393 81.2031 81.206 78.5732 82.0304C80.6329 81.3845 80.735 78.002 80.735 78.002Z" fill="#F7905C" stroke="#263238" stroke-linecap="round" stroke-linejoin="round"/>
<path d="M66.4873 66.1631C66.4873 66.1631 69.9428 78.8603 73.8663 80.0671C75.0198 80.3914 76.2424 80.3772 77.388 80.026C78.5335 79.6748 79.5536 79.0016 80.3261 78.0869C73.0833 75.7242 66.4873 66.1631 66.4873 66.1631Z" fill="#263238"/>
<path d="M69.7644 51.5451C67.3728 52.9984 65.7217 57.3497 67.4409 59.6274C69.1601 61.9051 67.3898 63.2564 66.5898 64.0298C65.9801 62.8155 65.4485 61.5636 64.9982 60.2818C64.4791 58.769 64.5301 57.4432 63.679 56.0919C63.2109 55.344 61.0492 54.1457 60.1895 53.9162C58.9214 53.5763 57.6363 54.9446 57.2277 56.1939C56.9358 57.4804 56.9768 58.82 57.3469 60.0863C55.6447 58.2591 55.5085 57.7492 55.3383 55.2845C55.3572 53.9392 55.2947 52.5939 55.1511 51.2561C54.8787 49.8623 54.1723 48.5705 53.985 47.1682C53.6616 44.695 54.9808 42.3409 56.2575 40.1992C57.3729 38.0723 58.8307 36.1429 60.5725 34.488C62.1914 33.218 64.0166 32.2348 65.9685 31.5814C70.3261 29.9411 75.0412 28.9043 79.6456 29.6012C84.25 30.2981 88.7353 33.0007 90.7099 37.1651C91.4651 38.5634 91.6917 40.1862 91.3482 41.7375C91.126 42.5187 90.6997 43.227 90.1131 43.7896C89.5265 44.3522 88.8007 44.749 88.01 44.9393C87.2192 45.1295 86.3921 45.1064 85.6132 44.8724C84.8344 44.6383 84.1319 44.2016 83.5777 43.6072C84.5256 43.8442 85.5264 43.7481 86.4118 43.3352C86.8482 43.1212 87.2186 42.7934 87.4837 42.3865C87.7489 41.9796 87.899 41.5087 87.9183 41.0235C87.8998 40.7036 87.812 40.3914 87.6611 40.1085C87.5102 39.8257 87.2997 39.5788 87.0441 39.3849C86.7885 39.1911 86.4939 39.0549 86.1805 38.9856C85.8671 38.9164 85.5424 38.9158 85.2288 38.9838C84.9281 39.0918 84.6563 39.2677 84.4348 39.4977C84.2132 39.7277 84.0478 40.0057 83.9515 40.31C83.8551 40.6143 83.8304 40.9367 83.8792 41.2521C83.9281 41.5675 84.0491 41.8674 84.233 42.1284L82.7606 41.389L82.5989 42.3664L80.8967 41.168L80.7691 42.0179C79.986 41.7035 74.488 42.0179 72.607 42.2219C71.664 42.3136 70.732 42.4958 69.824 42.7658C68.8026 43.0718 68.5133 43.1737 68.326 44.2446C67.7984 47.3297 67.143 49.8198 69.7644 51.5451Z" fill="#263238"/>
<path d="M70.4195 36.332C70.26 36.4777 70.136 36.6579 70.0572 36.8589C69.9784 37.0599 69.9468 37.2762 69.9649 37.4913C69.983 37.7064 70.0503 37.9145 70.1615 38.0995C70.2728 38.2846 70.4251 38.4417 70.6067 38.5587" stroke="#BFBFBF" stroke-linecap="round" stroke-linejoin="round"/>
<path d="M72.1475 36.7061C72.0399 36.8639 71.9824 37.0505 71.9824 37.2415C71.9824 37.4325 72.0399 37.619 72.1475 37.7769" stroke="#BFBFBF" stroke-linecap="round" stroke-linejoin="round"/>
<path d="M73.9258 36.6978C73.8322 37.0462 73.7301 37.4032 73.6279 37.7516" stroke="#BFBFBF" stroke-linecap="round" stroke-linejoin="round"/>
<path d="M78.4032 35.8306C78.062 36.0902 77.8067 36.446 77.6702 36.852C77.5336 37.2581 77.5221 37.6956 77.6372 38.1082" stroke="#BFBFBF" stroke-linecap="round" stroke-linejoin="round"/>
<path d="M79.578 38.2785C79.5221 37.7333 79.6703 37.1868 79.994 36.7442C80.3178 36.3017 80.7941 35.9945 81.3312 35.8818" stroke="#BFBFBF" stroke-linecap="round" stroke-linejoin="round"/>
<path d="M81.2031 38.4569C81.5736 37.6869 82.1527 37.0359 82.8747 36.5777C83.5968 36.1196 84.4329 35.8726 85.2884 35.8647" stroke="#BFBFBF" stroke-linecap="round" stroke-linejoin="round"/>
<path d="M82.6074 39.2049C82.9 38.7027 83.3054 38.2752 83.7918 37.9563C84.2782 37.6374 84.8321 37.4358 85.4099 37.3674C85.9877 37.299 86.5736 37.3656 87.1211 37.5621C87.6687 37.7586 88.1631 38.0795 88.5651 38.4995" stroke="#BFBFBF" stroke-linecap="round" stroke-linejoin="round"/>
<path d="M65.7558 37.9556C65.6418 38.1252 65.5668 38.3179 65.5362 38.5199C65.5055 38.7219 65.52 38.9282 65.5786 39.1239C65.6371 39.3197 65.7383 39.5001 65.8749 39.6522C66.0115 39.8043 66.1801 39.9244 66.3686 40.0038" stroke="#BFBFBF" stroke-linecap="round" stroke-linejoin="round"/>
<path d="M68.3004 35.4058C67.8046 36.228 67.6319 37.2047 67.8159 38.1467C67.9999 39.0887 68.5273 39.9291 69.2962 40.505" stroke="#BFBFBF" stroke-linecap="round" stroke-linejoin="round"/>
<path d="M63.577 39.3916C63.5314 39.5313 63.5183 39.6795 63.5385 39.8251C63.5588 39.9706 63.6119 40.1096 63.6939 40.2316C63.7759 40.3536 63.8846 40.4554 64.0118 40.5292C64.139 40.6031 64.2814 40.6471 64.4281 40.6579" stroke="#BFBFBF" stroke-linecap="round" stroke-linejoin="round"/>
<path d="M61.6364 40.5986C61.5873 40.7856 61.6109 40.9842 61.7025 41.1545C61.7941 41.3248 61.9468 41.4541 62.13 41.5165" stroke="#BFBFBF" stroke-linecap="round" stroke-linejoin="round"/>
<path d="M59.9168 41.8057C59.8972 41.8586 59.8894 41.915 59.8938 41.9713C59.8981 42.0275 59.9146 42.0821 59.9421 42.1313C59.9696 42.1806 60.0074 42.2233 60.053 42.2566C60.0986 42.2898 60.1508 42.3129 60.2061 42.3241" stroke="#BFBFBF" stroke-linecap="round" stroke-linejoin="round"/>
<path d="M95.3228 104.909C95.7398 119.519 93.9865 134.799 76.5986 142.882" stroke="#263238" stroke-linecap="round" stroke-linejoin="round"/>
<path d="M69.4746 149.545C77.0509 151.611 84.9597 152.171 92.7521 151.194" stroke="#263238" stroke-linecap="round" stroke-linejoin="round"/>
<path d="M63.4746 147.564C64.4704 147.947 65.4747 148.312 66.4875 148.644" stroke="#263238" stroke-linecap="round" stroke-linejoin="round"/>
<path d="M155.257 128.034C155.289 127.675 155.234 127.314 155.097 126.981C154.96 126.647 154.745 126.352 154.47 126.118C154.195 125.885 153.867 125.721 153.516 125.641C153.164 125.56 152.798 125.565 152.449 125.655C152.449 125.74 152.261 125.765 152.278 125.842C152.936 126.355 153.452 127.028 153.776 127.796C154.27 127.83 154.764 128.017 155.257 128.034Z" stroke="#263238" stroke-linecap="round" stroke-linejoin="round"/>
<path d="M154.355 129.539C153.802 127.959 153.013 126.472 152.015 125.128C148.891 122.731 150.253 121.958 144.202 120.878C144.202 120.946 132.507 123.895 126.141 126.827C126.141 126.827 84.2758 121.881 84.2758 121.482L77.8075 112.983L59.6025 115.813C59.6025 115.813 69.3135 131.561 76.6245 135.598C76.6245 135.598 111.519 134.748 122.839 134.689C128.992 134.689 132.448 137.816 138.499 131.06C138.499 131.06 141.801 134.315 143.767 133.38C145.061 133.023 140.857 129.488 139.418 128.332C139.878 128.595 146.346 133.057 149.946 133.185C150.118 133.193 150.287 133.145 150.428 133.048C150.569 132.95 150.673 132.808 150.725 132.645C150.777 132.482 150.772 132.306 150.713 132.145C150.654 131.984 150.543 131.848 150.397 131.757C150.397 131.757 141.444 126.742 141.887 126.105C141.887 126.105 146.848 127.89 147.64 128.986C150.951 133.524 153.189 131.935 153.504 131.663C154.151 131.102 153.249 130.592 153.249 130.065C153.181 130.074 154.508 130.456 154.355 129.539Z" fill="#F7905C" stroke="#263238" stroke-linecap="round" stroke-linejoin="round"/>
<path d="M144.95 123.896C146.72 124.592 149.206 125.697 150.389 127.185C152.687 130.074 153.18 130.074 153.18 130.074" stroke="#263238" stroke-linecap="round" stroke-linejoin="round"/>
<path d="M52.2234 85.8804C52.2234 85.8804 46.5892 90.9796 48.1807 104.459C49.0318 111.326 57.2789 122.731 57.2789 122.731L79.7224 115.618C79.7224 115.618 74.42 103.651 68.8028 95.569" stroke="#263238" stroke-miterlimit="10"/>
<path d="M72.4453 95.3223C73.9019 98.6768 74.7353 102.268 74.905 105.92" stroke="#263238" stroke-linecap="round" stroke-linejoin="round"/>
<path d="M85.0923 52.4971C85.0923 52.5481 82.9135 55.8966 83.5943 56.8315C86.3008 60.384 86.6753 64.5824 85.4923 64.7778C83.9263 65.0243 82.7603 63.7665 82.0879 63.3075" stroke="#263238" stroke-linecap="round" stroke-linejoin="round"/>
<path d="M50.6065 117.887L55.0492 123.445L79.731 115.617L76.7011 109.405C76.7011 109.405 50.1469 117.887 50.6065 117.887Z" fill="#F7905C" stroke="#263238" stroke-linecap="round" stroke-linejoin="round"/>
<path d="M80.1816 82.4468C80.1816 82.3023 83.2115 98.6539 83.2115 98.6539L81.1944 99.1214" stroke="#263238" stroke-linecap="round" stroke-linejoin="round"/>
<path d="M98.8376 104.093L102.08 102.895L102.276 107.943L98.7695 109.243L98.8376 104.093Z" fill="#F7905C" stroke="#263238" stroke-linecap="round" stroke-linejoin="round"/>
<path d="M97.042 95.314C97.9361 99.8655 98.5331 104.47 98.8293 109.099L97.042 95.314Z" fill="#F7905C"/>
<path d="M97.042 95.314C97.9361 99.8655 98.5331 104.47 98.8293 109.099" stroke="#263238" stroke-linecap="round" stroke-linejoin="round"/>
<path d="M96.0039 89.7642C96.1911 90.835 96.3784 91.8549 96.5742 92.8662L96.0039 89.7642Z" fill="#F7905C"/>
<path d="M96.0039 89.7642C96.1911 90.835 96.3784 91.8549 96.5742 92.8662" stroke="#263238" stroke-linecap="round" stroke-linejoin="round"/>
</g>
<defs>
<clipPath id="clip0_34_3639">
<rect width="333" height="342" fill="white"/>
</clipPath>
</defs>
</svg>
