<svg width="13" height="13" viewBox="0 0 13 13" fill="none" xmlns="http://www.w3.org/2000/svg">
<path d="M6.87606 2.88721H6.12629C6.05771 2.88721 6.00159 2.94163 6.00159 3.00814V7.16965C6.00159 7.20895 6.0203 7.24523 6.05303 7.26791L8.62967 9.09244C8.68579 9.13175 8.76372 9.12116 8.80425 9.06674L9.25006 8.47721C9.29215 8.42128 9.27968 8.3457 9.22356 8.30791L7.00076 6.74942V3.00814C7.00076 2.94163 6.94464 2.88721 6.87606 2.88721ZM10.3022 4.02395L12.7464 4.60291C12.8243 4.62105 12.9007 4.56361 12.9007 4.48651L12.9132 2.04523C12.9132 1.94396 12.7931 1.88651 12.7121 1.95L10.2555 3.81082C10.2369 3.82474 10.2228 3.84347 10.2147 3.86484C10.2066 3.88622 10.2049 3.90937 10.2098 3.93163C10.2147 3.9539 10.2259 3.97437 10.2423 3.99071C10.2586 4.00704 10.2794 4.01856 10.3022 4.02395ZM12.9163 8.57547L12.0325 8.2807C12.0016 8.27046 11.9679 8.27231 11.9385 8.28587C11.9091 8.29943 11.8863 8.32362 11.875 8.35326C11.8454 8.43035 11.8142 8.50593 11.7815 8.58151C11.504 9.21791 11.1065 9.79081 10.5984 10.2821C10.0959 10.7709 9.50033 11.1606 8.84478 11.4294C8.16567 11.7079 7.43567 11.8508 6.69836 11.8497C5.95327 11.8497 5.23156 11.7091 4.55194 11.4294C3.89639 11.1606 3.30084 10.7709 2.79833 10.2821C2.29173 9.79081 1.89425 9.21791 1.61523 8.58151C1.32969 7.92257 1.18339 7.21476 1.18501 6.5C1.18501 5.77744 1.32997 5.07605 1.61834 4.41698C1.8958 3.78058 2.29329 3.20768 2.80145 2.7164C3.30396 2.22757 3.8995 1.83792 4.55506 1.56907C5.23156 1.28942 5.95483 1.14884 6.69992 1.14884C7.44501 1.14884 8.16672 1.28942 8.84634 1.56907C9.50189 1.83792 10.0974 2.22757 10.5999 2.7164C10.7589 2.87209 10.9086 3.03384 11.0458 3.20465L11.9779 2.49721C10.7512 0.976513 8.84166 -0.00150988 6.6968 1.74977e-06C2.962 0.00151338 -0.0370641 2.94314 0.000346221 6.56651C0.0377566 10.1264 3.02279 13 6.69992 13C9.59143 13 12.0543 11.2223 12.9927 8.73268C13.016 8.66919 12.9817 8.59814 12.9163 8.57547Z" fill="#108ED6"/>
</svg>
