<svg width="9" height="14" viewBox="0 0 9 14" fill="none" xmlns="http://www.w3.org/2000/svg">
<path d="M5.79375 13.0522L0.75 7.97635V6.5261H3.375C4.0375 6.5261 4.6095 6.31751 5.091 5.90032C5.5725 5.48314 5.863 4.96661 5.9625 4.35074H0V2.90049H5.7375C5.525 2.4775 5.20925 2.12993 4.79025 1.85776C4.37125 1.5856 3.8995 1.44976 3.375 1.45025H0V0H9V1.45025H6.5625C6.7375 1.6557 6.89375 1.87928 7.03125 2.12098C7.16875 2.36269 7.275 2.62253 7.35 2.90049H9V4.35074H7.48125C7.38125 5.37799 6.94375 6.2392 6.16875 6.93435C5.39375 7.6295 4.4625 7.97683 3.375 7.97635H2.83125L7.875 13.0522H5.79375Z" fill="#108ED6"/>
</svg>
