<svg width="311" height="311" viewBox="0 0 311 311" fill="none" xmlns="http://www.w3.org/2000/svg">
<g clip-path="url(#clip0_34_3368)">
<path d="M194.68 21.5147H162.717C161.205 21.5198 159.757 22.1259 158.69 23.2C157.623 24.2742 157.023 25.7288 157.023 27.2453V63.4724C157.023 64.9923 157.625 66.4499 158.697 67.5246C159.768 68.5993 161.221 69.2031 162.737 69.2031H180.963L176.686 77.5168L188.598 69.2031H194.699C196.214 69.2031 197.667 68.5993 198.739 67.5246C199.81 66.4499 200.412 64.9923 200.412 63.4724V27.2453C200.412 26.4911 200.264 25.7444 199.975 25.0478C199.687 24.3513 199.265 23.7186 198.732 23.1863C198.199 22.6539 197.567 22.2321 196.872 21.9453C196.177 21.6585 195.432 21.5121 194.68 21.5147Z" fill="white" stroke="#263238" stroke-linecap="round" stroke-linejoin="round"/>
<path d="M296.882 34.2217H273.24C272.118 34.2217 271.042 34.6689 270.248 35.4648C269.455 36.2608 269.009 37.3404 269.009 38.4661V65.2698C269.009 65.8268 269.118 66.3785 269.331 66.8931C269.544 67.4076 269.856 67.8751 270.249 68.2687C270.642 68.6624 271.108 68.9744 271.621 69.187C272.135 69.3996 272.685 69.5086 273.24 69.5077H276.074L272.91 75.6537L281.716 69.5077H296.876C297.431 69.5086 297.981 69.3996 298.495 69.187C299.008 68.9744 299.474 68.6624 299.867 68.2687C300.26 67.8751 300.572 67.4076 300.785 66.8931C300.998 66.3785 301.107 65.8268 301.107 65.2698V38.4661C301.107 37.3416 300.662 36.2629 299.87 35.4671C299.078 34.6713 298.003 34.2234 296.882 34.2217Z" fill="#263238" stroke="#263238" stroke-linecap="round" stroke-linejoin="round"/>
<path d="M46.9859 30.0488H24.6833C21.5424 30.0488 18.9961 32.6029 18.9961 35.7535V63.1413C18.9961 66.2919 21.5424 68.8459 24.6833 68.8459H46.9859C50.1269 68.8459 52.6731 66.2919 52.6731 63.1413V35.7535C52.6731 32.6029 50.1269 30.0488 46.9859 30.0488Z" fill="white" stroke="#263238" stroke-linecap="round" stroke-linejoin="round"/>
<path d="M51.9484 62.8359H49.0304C48.087 62.8359 47.3223 63.603 47.3223 64.5493V69.8192C47.3223 70.7654 48.087 71.5325 49.0304 71.5325H51.9484C52.8918 71.5325 53.6565 70.7654 53.6565 69.8192V64.5493C53.6565 63.603 52.8918 62.8359 51.9484 62.8359Z" fill="white" stroke="#263238" stroke-linecap="round" stroke-linejoin="round"/>
<path d="M57.2084 68.3398H56.3155C55.3722 68.3398 54.6074 69.1069 54.6074 70.0532V72.5389C54.6074 73.4851 55.3722 74.2522 56.3155 74.2522H57.2084C58.1518 74.2522 58.9165 73.4851 58.9165 72.5389V70.0532C58.9165 69.1069 58.1518 68.3398 57.2084 68.3398Z" fill="white" stroke="#263238" stroke-linecap="round" stroke-linejoin="round"/>
<path d="M111.733 29.724C111.318 30.0733 110.975 30.5013 110.726 30.9835C110.476 31.4658 110.323 31.9927 110.277 32.5342C110.161 33.2619 110.144 34.002 110.225 34.7343C110.309 35.3833 110.426 36.0907 110.581 36.8371L99.0902 37.7846C98.8717 36.5723 98.727 35.3477 98.6567 34.1178C98.6022 32.8988 98.665 31.6773 98.8444 30.4704C99.4914 26.0226 101.346 22.7452 104.409 20.6381C107.471 18.531 111.522 17.8474 116.56 18.5872C121.645 19.3357 125.368 21.2503 127.727 24.3309C130.086 27.4115 130.904 31.4288 130.179 36.3828C129.761 39.3382 128.821 42.1952 127.404 44.8198C127.203 45.1897 126.989 45.5531 126.757 45.9166M125.462 47.8246C124.379 49.2955 123.16 50.6602 121.82 51.9003C119.377 54.1519 116.67 56.0959 113.758 57.6894L112.684 65.1204L101.497 63.4785L102.921 53.698C105.422 52.2809 107.764 50.5991 109.908 48.6813C111.975 46.8468 113.766 44.722 115.227 42.373C116.627 40.1255 117.546 37.6103 117.925 34.9874C118.197 33.1183 118.054 31.7165 117.498 30.7819C117.193 30.3026 116.781 29.9008 116.295 29.608C115.809 29.3153 115.261 29.1395 114.696 29.0945M98.7926 79.5606L100.507 67.8073L112.529 69.5725L110.782 81.3454L98.7926 79.5606Z" stroke="#263238" stroke-linecap="round" stroke-linejoin="round"/>
<path d="M295.614 199.191C296.512 197.238 297.095 195.155 297.342 193.019C297.575 191.007 297.378 189.508 296.753 188.521C296.412 188.016 295.958 187.597 295.428 187.298C294.898 186.998 294.307 186.826 293.699 186.795C293.142 186.698 292.571 186.717 292.022 186.853C291.473 186.988 290.958 187.235 290.509 187.58C290.076 187.966 289.723 188.434 289.471 188.958C289.219 189.482 289.073 190.05 289.041 190.63C288.93 191.414 288.93 192.209 289.041 192.993C289.144 193.7 289.293 194.446 289.474 195.238L277.181 196.601C276.909 195.316 276.716 194.016 276.605 192.707C276.507 191.399 276.537 190.083 276.696 188.781C277.261 183.995 279.15 180.426 282.363 178.072C285.577 175.719 289.901 174.864 295.336 175.509C299.442 175.989 302.746 177.2 305.248 179.143M307.836 181.785C310.191 184.965 311.069 189.097 310.47 194.18C310.111 197.347 309.191 200.425 307.752 203.266C306.272 206.157 304.334 208.787 302.013 211.054C299.46 213.534 296.616 215.694 293.544 217.486L292.606 225.488L280.604 224.067L281.839 213.534C284.477 211.939 286.937 210.066 289.176 207.946C291.341 205.918 293.201 203.586 294.695 201.021M278.158 241.408L279.639 228.753L292.58 230.278L291.072 242.946L278.158 241.408Z" stroke="#263238" stroke-linecap="round" stroke-linejoin="round"/>
<path d="M7.04598 170.621C8.95354 169.739 10.9853 169.157 13.0697 168.895C17.7541 168.242 21.5305 168.969 24.3989 171.076C27.2673 173.183 29.0186 176.516 29.6526 181.077C30.0426 183.787 29.9461 186.545 29.3679 189.222C29.098 190.484 28.7302 191.723 28.268 192.927M27.1552 195.387C26.8964 195.9 26.6117 196.4 26.3205 196.899C24.742 199.516 22.8517 201.931 20.6915 204.09L21.6426 210.924L11.3551 212.365L10.074 203.357C11.917 201.46 13.5525 199.372 14.9525 197.126C16.3057 194.977 17.3409 192.642 18.0258 190.195C18.6826 187.849 18.8478 185.392 18.5111 182.978C18.2717 181.258 17.7799 180.064 17.0488 179.383C16.6568 179.038 16.1903 178.79 15.6862 178.657C15.182 178.524 14.654 178.51 14.1437 178.617C13.6588 178.661 13.1884 178.806 12.7627 179.043C12.337 179.279 11.9655 179.603 11.6721 179.993C11.3966 180.408 11.2056 180.873 11.1101 181.362C11.0146 181.851 11.0165 182.354 11.1157 182.842C11.1988 183.512 11.373 184.167 11.6333 184.789C11.8792 185.347 12.1574 185.938 12.4809 186.554L2.59453 190.377C2.09789 189.365 1.66568 188.322 1.3005 187.255C0.936043 186.202 0.675981 185.115 0.524082 184.01C-0.0452896 179.922 0.74838 176.553 2.90509 173.905C3.6732 172.972 4.58122 172.164 5.59667 171.51M13.0761 227.324L11.5751 216.512L22.6261 214.967L24.1271 225.773L13.0761 227.324Z" stroke="#263238" stroke-linecap="round" stroke-linejoin="round"/>
<path d="M210.564 81.0142C210.778 81.71 210.936 82.4219 211.036 83.143C211.309 84.9484 211.257 86.7883 210.881 88.5751C210.488 90.3861 209.806 92.1217 208.862 93.7151C207.819 95.4658 206.567 97.0828 205.135 98.5307L205.782 103.074L198.924 104.08L198.051 98.0829C199.273 96.8083 200.358 95.4073 201.286 93.9033C202.178 92.4645 202.858 90.9037 203.304 89.2695C203.732 87.7018 203.832 86.062 203.595 84.4539C203.544 83.5677 203.198 82.7245 202.612 82.0591C202.349 81.8312 202.037 81.6674 201.7 81.5807C201.363 81.494 201.011 81.4867 200.671 81.5594C200.35 81.5876 200.038 81.683 199.756 81.8395C199.474 81.996 199.228 82.2101 199.034 82.468C198.851 82.7448 198.724 83.0556 198.662 83.3822C198.6 83.7087 198.603 84.0444 198.672 84.3696C198.729 84.8169 198.848 85.2539 199.028 85.6676C199.189 86.044 199.377 86.4334 199.597 86.8422L193.017 89.4382C192.676 88.7654 192.378 88.0717 192.124 87.3614C191.875 86.6541 191.697 85.9236 191.593 85.1808C191.196 82.455 191.712 80.2051 193.14 78.4312C194.567 76.6573 196.828 75.541 199.92 75.0824C203.039 74.6497 205.56 75.1192 207.484 76.4907M200.147 114.022L199.079 106.818L206.449 105.741L207.497 112.945L200.147 114.022Z" stroke="#263238" stroke-linecap="round" stroke-linejoin="round"/>
<path d="M112.282 223.171C112.541 222.834 112.8 222.522 113.046 222.146C114.028 220.762 114.806 219.243 115.356 217.635C115.882 216.097 116.087 214.467 115.957 212.846C115.958 211.958 115.664 211.095 115.123 210.393C114.873 210.139 114.567 209.948 114.229 209.836C113.892 209.723 113.533 209.691 113.182 209.744C112.86 209.753 112.543 209.829 112.251 209.966C111.96 210.103 111.699 210.299 111.486 210.542C111.086 211.081 110.914 211.758 111.008 212.424C111.038 212.867 111.129 213.304 111.279 213.722C111.415 214.105 111.583 214.507 111.771 214.929L105.042 217.084C104.745 216.39 104.49 215.679 104.279 214.955C104.08 214.234 103.95 213.495 103.89 212.748C103.671 210.001 104.318 207.788 105.832 206.109C107.346 204.43 109.673 203.461 112.813 203.202C115.953 202.946 118.438 203.576 120.266 205.09M121.496 206.388C122.644 208.029 123.3 209.966 123.385 211.97C123.544 213.789 123.375 215.623 122.887 217.382C122.378 219.163 121.588 220.851 120.545 222.38C119.391 224.051 118.039 225.577 116.52 226.923L116.895 231.511L109.985 232.076L109.494 226.033C110.161 225.422 110.792 224.772 111.383 224.086M110.561 242.051L109.972 234.795L117.394 234.191L117.982 241.447L110.561 242.051Z" stroke="#263238" stroke-linecap="round" stroke-linejoin="round"/>
<path d="M174.875 54.5029V48.4932C176.253 47.4188 177.513 46.2005 178.634 44.8588C179.717 43.5734 180.609 42.1371 181.28 40.5949C181.926 39.1201 182.259 37.5265 182.257 35.9156C182.33 35.0353 182.102 34.1565 181.61 33.4234C181.384 33.1674 181.103 32.9665 180.788 32.836C180.473 32.7055 180.132 32.6489 179.792 32.6706C179.473 32.6525 179.154 32.7008 178.854 32.8125C178.555 32.9242 178.282 33.0968 178.052 33.3196C177.605 33.8155 177.372 34.469 177.405 35.1368C177.402 35.5751 177.459 36.0117 177.573 36.4348C177.676 36.8242 177.812 37.233 177.968 37.6679L171.135 39.2514C170.898 38.544 170.705 37.8222 170.559 37.0903C170.414 36.3616 170.343 35.6202 170.346 34.8772C170.346 32.1471 171.174 30.0119 172.83 28.4716C174.487 26.9313 176.859 26.1611 179.947 26.1611C183.073 26.1611 185.486 26.9854 187.168 28.6338C188.85 30.2823 189.704 32.6252 189.704 35.669C189.714 37.4803 189.398 39.2785 188.773 40.9778C188.128 42.6976 187.21 44.3018 186.055 45.7284C184.783 47.2978 183.326 48.7057 181.714 49.921V54.464L174.875 54.5029ZM174.642 64.4261V57.2027H182.024V64.4261H174.642Z" fill="#263238"/>
<path d="M282.434 58.631V54.3216C283.426 53.556 284.333 52.6856 285.139 51.7256C285.914 50.8035 286.553 49.7739 287.035 48.6688C287.493 47.6036 287.727 46.4544 287.72 45.2941C287.773 44.6639 287.616 44.0338 287.274 43.5028C287.113 43.3195 286.914 43.1747 286.69 43.0792C286.466 42.9838 286.223 42.94 285.98 42.9512C285.751 42.9397 285.521 42.9759 285.306 43.0574C285.091 43.1389 284.896 43.264 284.731 43.4249C284.418 43.782 284.258 44.2483 284.285 44.7229C284.281 45.0426 284.32 45.3614 284.401 45.6705C284.479 45.9495 284.569 46.2481 284.679 46.5596L279.782 47.6953C279.611 47.1855 279.472 46.6653 279.367 46.1378C279.264 45.6164 279.214 45.0858 279.219 44.5542C279.17 43.7042 279.304 42.8537 279.611 42.06C279.918 41.2663 280.391 40.5477 280.998 39.9528C282.188 38.8495 283.894 38.2979 286.116 38.2979C288.337 38.2979 290.063 38.8884 291.292 40.0696C292.504 41.2594 293.11 42.9425 293.11 45.1188C293.12 46.4192 292.901 47.7111 292.463 48.9349C292.004 50.1683 291.348 51.3189 290.522 52.3422C289.6 53.4822 288.541 54.5044 287.371 55.386V58.631H282.434ZM282.273 65.77V60.578H287.572V65.77H282.273Z" fill="#108ED6"/>
<path d="M32.7971 56.6834V52.3545C33.7852 51.5871 34.6896 50.7169 35.4951 49.7585C36.2737 48.8376 36.9145 47.8078 37.3974 46.7018C37.8594 45.6416 38.0973 44.4969 38.0961 43.34C38.1519 42.7107 37.9921 42.0811 37.6432 41.5552C37.4841 41.37 37.2846 41.2239 37.0602 41.1283C36.8359 41.0326 36.5926 40.99 36.3492 41.0036C36.1201 40.9896 35.8906 41.024 35.6755 41.1045C35.4604 41.185 35.2645 41.3098 35.1005 41.4708C34.9431 41.6464 34.8221 41.8515 34.7444 42.0743C34.6666 42.2971 34.6337 42.5332 34.6476 42.7688C34.6364 43.083 34.6669 43.3973 34.7381 43.7034C34.8158 43.9825 34.9128 44.2745 35.0228 44.586L30.1249 45.7218C29.9528 45.214 29.8123 44.696 29.7044 44.1707C29.6074 43.6507 29.5597 43.1226 29.562 42.5936C29.5145 41.7441 29.6494 40.8943 29.9575 40.1016C30.2656 39.3089 30.7397 38.5918 31.3478 37.9987C32.5318 36.8954 34.2399 36.3438 36.4592 36.3438C38.6784 36.3438 40.4319 36.9343 41.6353 38.1155C42.8387 39.2967 43.4534 40.9776 43.4534 43.1647C43.4669 44.4632 43.2477 45.7536 42.8064 46.9743C42.3449 48.2067 41.6895 49.357 40.8654 50.3816C39.9525 51.5095 38.9051 52.5208 37.7467 53.3929V56.6379L32.7971 56.6834ZM32.6289 63.8223V58.6304H37.9085V63.8223H32.6289Z" fill="#108ED6" stroke="#263238" stroke-linecap="round" stroke-linejoin="round"/>
<path d="M270.724 177.748C270.724 177.748 269.222 205.707 269.43 220.355C269.637 235.003 267.935 239.312 269.061 241.564C270.187 243.816 270.355 248.703 269.805 250.767C269.255 252.831 269.061 260.502 269.061 260.502C269.495 262.219 269.682 263.989 269.617 265.759L269.41 268.257C269.41 268.257 271.843 272.761 272.03 275.202C272.218 277.642 269.598 280.835 266.79 281.211C263.982 281.588 260.967 280.082 260.242 278.206C259.517 276.331 258.56 270.886 257.809 268.634C257.059 266.382 255.939 266.038 255.564 263.377C255.189 260.716 256.858 257.179 256.683 255.68C256.509 254.181 253.875 216.818 253.875 216.818L249.547 187.133L241.31 221.296C241.31 221.296 238.321 241.759 238.509 243.823C238.696 245.886 236.82 252.461 236.069 254.713C235.319 256.965 235.701 258.659 235.701 260.158C235.701 261.657 235.325 264.662 234.407 266.168C233.488 267.673 232.537 274.987 231.974 275.903C231.411 276.818 230.855 280.971 225.426 280.783C219.998 280.595 220.185 275.15 220.561 272.898C220.936 270.646 223.181 265.759 223.181 264.071C223.181 262.384 222.806 259.755 222.993 257.692C223.181 255.628 225.238 249.053 225.238 249.053C225.238 249.053 223.737 220.498 225.051 216.013C226.364 211.528 226.345 175.84 226.345 175.84L270.704 175.256L270.724 177.748Z" fill="#263238" stroke="#263238" stroke-linecap="round" stroke-linejoin="round"/>
<path d="M255.816 94.1377V99.5179C255.816 99.5179 266.298 102.406 270.516 105.294C274.735 108.182 276.579 114.159 276.268 118.073C275.958 121.986 275.653 128.281 275.142 132.305C274.631 136.329 273.596 143.747 273.596 143.747L268.252 143.955C268.252 143.955 268.562 159.414 268.666 162.821C268.769 166.228 270.723 173.439 270.723 175.295V177.768C270.723 177.768 253.558 182.311 241.944 181.993C230.33 181.675 224.779 176.528 224.779 176.528C224.779 176.528 226.526 162.302 226.629 155.708C226.733 149.114 224.96 125.582 224.96 125.582L222.087 128.677L211.314 118.988C211.314 118.988 214.912 112.29 216.452 110.33C217.992 108.37 218.71 106.105 222.618 103.938C226.526 101.77 234.232 100.641 235.26 100.329C236.289 100.018 242.429 98.4665 242.429 98.4665L242.843 95.7861L255.816 94.1377Z" fill="#108ED6" stroke="#263238" stroke-linecap="round" stroke-linejoin="round"/>
<path d="M224.08 114.373L223.854 111.562" stroke="#263238" stroke-linecap="round" stroke-linejoin="round"/>
<path d="M224.986 125.581L224.242 116.392" stroke="#263238" stroke-linecap="round" stroke-linejoin="round"/>
<path d="M221.285 113.419L223.446 122.077" stroke="#263238" stroke-linecap="round" stroke-linejoin="round"/>
<path d="M246.467 137.718C247.114 138.983 247.677 140.152 248.214 141.151" stroke="#263238" stroke-linecap="round" stroke-linejoin="round"/>
<path d="M237.318 117.54C237.318 117.54 241.686 127.723 245.445 135.602" stroke="#263238" stroke-linecap="round" stroke-linejoin="round"/>
<path d="M256.302 145.097C257.039 146.057 257.77 146.985 258.489 147.848" stroke="#263238" stroke-linecap="round" stroke-linejoin="round"/>
<path d="M243.076 125.068C243.076 125.068 248.899 135.03 254.968 143.299" stroke="#263238" stroke-linecap="round" stroke-linejoin="round"/>
<path d="M257.602 173.86C253.125 173.399 244.759 172.342 238.444 170.323" stroke="#263238" stroke-linecap="round" stroke-linejoin="round"/>
<path d="M260.753 174.152C260.753 174.152 260.157 174.113 259.142 174.016" stroke="#263238" stroke-linecap="round" stroke-linejoin="round"/>
<path d="M238.243 171.874C241.874 173.256 245.678 174.129 249.546 174.47" stroke="#263238" stroke-linecap="round" stroke-linejoin="round"/>
<path d="M264.965 114.763C264.965 114.763 262.72 117.138 262.099 119.007" stroke="#263238" stroke-linecap="round" stroke-linejoin="round"/>
<path d="M265.075 112.764C264.131 113.57 263.293 114.495 262.584 115.515" stroke="#263238" stroke-linecap="round" stroke-linejoin="round"/>
<path d="M273.596 143.727L268.252 143.935L267.43 141.767C266.609 139.6 263.626 126.925 263.626 126.925C270.206 121.765 275.654 126.276 275.654 126.276L275.693 126.334C275.537 128.482 275.356 130.565 275.143 132.259C274.625 136.303 273.596 143.727 273.596 143.727Z" fill="#F08D5F" stroke="#263238" stroke-linecap="round" stroke-linejoin="round"/>
<path d="M242.43 98.4665L242.844 95.7861L255.784 94.1377V99.5179C255.784 99.5179 256.858 99.8164 258.456 100.31C257.609 103.009 254.167 112.842 248.59 114.263C243.206 115.633 239.389 104.191 238.134 99.5763L242.43 98.4665Z" fill="#F08D5F" stroke="#263238" stroke-linecap="round" stroke-linejoin="round"/>
<path d="M262.228 66.0616C262.228 66.0616 265.463 69.0535 264.758 71.5911C264.053 74.1287 261.97 82.2671 261.97 82.2671C261.97 82.2671 258.987 92.8718 258.146 94.3709C257.305 95.8701 251.397 98.6024 249.735 98.6024C248.072 98.6024 243.834 97.4926 243.116 96.7138C242.397 95.935 241.233 92.4175 240.715 90.9832C240.198 89.5489 242.339 77.3542 242.533 75.1736C242.727 72.9929 242.857 66.7366 243.827 65.802C244.798 64.8675 249.003 61.96 254.011 63.1346C258.029 64.0822 261.258 64.5624 262.228 66.0616Z" fill="#F08D5F" stroke="#263238" stroke-linecap="round" stroke-linejoin="round"/>
<path d="M241.828 79.9502C242.158 77.7501 242.443 75.8939 242.507 75.1736C242.702 73.0254 242.831 66.7366 243.802 65.802C244.772 64.8675 248.978 61.96 253.985 63.1346C258.023 64.0822 261.251 64.5624 262.222 66.0616C262.222 66.0616 265.457 69.0535 264.752 71.5911C264.047 74.1287 261.963 82.2671 261.963 82.2671C261.963 82.2671 261.911 82.4423 261.827 82.7539L261.704 82.7863C261.704 82.7863 261.057 82.981 261.057 82.332C261.057 81.683 261.64 79.8593 261.446 79.5348C261.251 79.2103 260.54 79.2752 260.669 77.9707C260.799 76.6663 261.769 74.7258 261.575 73.8691C261.381 73.0124 258.003 71.1368 257.227 71.5262C256.451 71.9156 253.203 72.7009 252.232 72.2466C251.262 71.7923 248.667 69.9037 247.431 69.378C246.195 68.8523 244.319 69.9037 244.06 70.7474C243.802 71.5911 243.802 73.7393 243.213 75.3683C242.624 76.9972 241.919 80.1189 241.919 80.1189L241.828 79.9502Z" fill="#263238" stroke="#263238" stroke-linecap="round" stroke-linejoin="round"/>
<path d="M258.922 80.5731C258.922 80.5731 256.334 79.0155 254.51 79.5347" stroke="#263238" stroke-linecap="round" stroke-linejoin="round"/>
<path d="M248.673 77.6462C248.867 77.776 247.243 75.3683 244.907 75.6992" stroke="#263238" stroke-linecap="round" stroke-linejoin="round"/>
<path d="M251.488 87.9915C251.488 87.9915 250.382 89.5556 249.088 89.1013C248.633 88.9186 248.23 88.6275 247.913 88.2531C247.596 87.8788 247.375 87.4325 247.27 86.9531" stroke="#263238" stroke-linecap="round" stroke-linejoin="round"/>
<path d="M261.969 82.2671C261.969 82.2671 263.852 81.4883 264.176 83.4353C264.499 85.3823 259.957 88.9713 259.957 88.9713L261.969 82.2671Z" fill="#F08D5F" stroke="#263238" stroke-linecap="round" stroke-linejoin="round"/>
<path d="M242.184 78.4253C242.184 78.4253 240.243 76.4783 239.719 79.2106C239.195 81.9429 241.013 85.3242 241.013 85.3242L242.184 78.4253Z" fill="#F08D5F" stroke="#263238" stroke-linecap="round" stroke-linejoin="round"/>
<path d="M254.231 82.235C253.966 82.9229 254.05 83.5979 254.419 83.7407C254.787 83.8834 255.299 83.4421 255.564 82.7542C255.829 82.0662 255.745 81.3913 255.383 81.2485C255.02 81.1057 254.496 81.547 254.231 82.235Z" fill="#263238"/>
<path d="M245.665 80.3788C245.568 81.1057 245.8 81.7417 246.189 81.8001C246.577 81.8586 246.978 81.3069 247.082 80.5735C247.185 79.8402 246.946 79.2107 246.557 79.1587C246.169 79.1068 245.794 79.6455 245.665 80.3788Z" fill="#263238"/>
<path d="M247.832 90.6006L245.102 88.8418" stroke="#263238" stroke-linecap="round" stroke-linejoin="round"/>
<path d="M257.621 95.2797C257.47 96.2934 257.427 97.3202 257.492 98.343C257.621 99.7708 257.039 101.205 257.039 102.438C257.039 103.671 256.974 112.004 257.103 112.595C257.233 113.186 265.929 127.042 266.964 128.47C267.999 129.897 273.324 136.147 273.842 139.016C274.359 141.884 272.483 146.693 272.088 148.251C271.945 148.838 271.582 149.348 271.076 149.675C270.569 150.002 269.956 150.122 269.364 150.01C268.588 149.815 263.916 146.369 261.645 143.63C259.374 140.891 258.663 139.146 257.815 134.654C256.968 130.163 251.203 114.088 251.203 114.088C251.203 114.088 246.674 110.194 246.027 109.402C245.379 108.61 242.914 104.586 242.914 104.586C242.914 104.586 239.091 103.223 238.955 102.964C238.819 102.704 238.243 101.919 238.437 101.789C238.818 101.676 239.211 101.611 239.608 101.594C239.608 101.594 238.314 100.816 238.437 100.355C238.56 99.8941 240.061 99.8357 240.967 99.8357C241.873 99.8357 243.108 99.7708 243.432 99.8357C243.755 99.9006 245.25 100.095 245.25 100.095L242.662 97.6875C242.662 97.6875 240.65 97.0385 240.721 96.6491C240.792 96.2597 241.569 96.065 242.151 96.1948C242.733 96.3246 246.305 97.4279 246.499 97.5577L250.129 99.9655L247.146 96.0001C246.175 95.3394 245.244 94.6221 244.357 93.8519C243.904 93.3263 244.034 92.7422 244.293 92.6124C244.551 92.4826 248.964 94.9552 249.352 95.2797C249.74 95.6042 254.282 99.5112 254.282 99.5112C254.718 99.1709 255.016 98.6848 255.124 98.1418C255.217 97.4952 255.391 96.863 255.641 96.2597C255.745 96.0001 257.621 95.2797 257.621 95.2797Z" fill="#F08D5F" stroke="#263238" stroke-linecap="round" stroke-linejoin="round"/>
<path d="M245.237 100.102L249.385 102.444" stroke="#263238" stroke-linecap="round" stroke-linejoin="round"/>
<path d="M240.106 101.854C240.106 101.854 243.089 102.048 243.607 102.308C244.124 102.567 247.308 104.391 247.308 104.391" stroke="#263238" stroke-linecap="round" stroke-linejoin="round"/>
<path d="M254.25 99.5107L255.874 101.464" stroke="#263238" stroke-linecap="round" stroke-linejoin="round"/>
<path d="M221.285 127.95C221.285 127.95 212.577 139.664 211.341 140.281C210.105 140.897 205.382 137.289 204.664 135.537C203.945 133.784 205.175 130.384 205.175 130.384L211.315 118.987L221.285 127.95Z" fill="#F08D5F" stroke="#263238" stroke-linecap="round" stroke-linejoin="round"/>
<path d="M213.961 134.966C215.164 144.277 217.348 153.433 220.476 162.282C220.476 162.282 229.619 161.873 229.929 161.977C230.24 162.081 235.481 164.761 235.752 165.378C236.024 165.994 237.402 168.058 236.988 168.37C236.574 168.681 234.212 166.715 234.212 166.715C233.188 166.067 232.125 165.482 231.029 164.963C230.719 164.963 233.805 167.851 233.805 167.851L236.166 171.05C236.054 171.208 235.903 171.336 235.729 171.42C235.554 171.504 235.361 171.543 235.168 171.533C234.974 171.523 234.786 171.463 234.621 171.361C234.457 171.258 234.321 171.116 234.225 170.946C233.3 169.603 230.421 167.643 230.421 167.643C230.421 167.643 234.84 171.978 234.432 172.387C234.025 172.796 234.122 173.315 232.996 172.491C231.87 171.667 229.399 169.499 229.399 169.499L227.031 168.883C227.031 168.883 229.295 171.251 229.91 171.978C230.524 172.705 231.249 173.925 230.732 174.036C230.377 174.011 230.031 173.917 229.714 173.757C229.396 173.598 229.113 173.377 228.881 173.107C228.571 172.699 226.519 170.842 226.519 170.842L223.931 169.291C223.931 169.291 220.742 169.194 220.049 168.883C219.046 168.221 218.169 167.383 217.461 166.41C214.789 161.056 211.353 155.928 208.287 150.724C205.99 146.83 200.199 138.847 202.878 134.155C203.699 132.714 207.012 127.016 207.012 127.016" fill="#F08D5F"/>
<path d="M213.961 134.966C215.164 144.277 217.348 153.433 220.476 162.282C220.476 162.282 229.619 161.873 229.929 161.977C230.24 162.081 235.481 164.761 235.752 165.378C236.024 165.994 237.402 168.058 236.988 168.37C236.574 168.681 234.212 166.715 234.212 166.715C233.188 166.067 232.125 165.482 231.029 164.963C230.719 164.963 233.805 167.851 233.805 167.851L236.166 171.05C236.054 171.208 235.903 171.336 235.729 171.42C235.554 171.504 235.361 171.543 235.168 171.533C234.974 171.523 234.786 171.463 234.621 171.361C234.457 171.258 234.321 171.116 234.225 170.946C233.3 169.603 230.421 167.643 230.421 167.643C230.421 167.643 234.84 171.978 234.432 172.387C234.025 172.796 234.122 173.315 232.996 172.491C231.87 171.667 229.399 169.499 229.399 169.499L227.031 168.883C227.031 168.883 229.295 171.251 229.91 171.978C230.525 172.705 231.249 173.925 230.732 174.036C230.377 174.011 230.031 173.917 229.714 173.757C229.396 173.598 229.113 173.377 228.881 173.107C228.571 172.699 226.519 170.842 226.519 170.842L223.931 169.291C223.931 169.291 220.742 169.194 220.049 168.883C219.046 168.221 218.169 167.383 217.461 166.41C214.789 161.056 211.353 155.928 208.287 150.724C205.99 146.83 200.199 138.847 202.878 134.155C203.699 132.714 207.012 127.016 207.012 127.016" stroke="#263238" stroke-linecap="round" stroke-linejoin="round"/>
<path d="M231.049 164.969L229.509 164.145" stroke="#263238" stroke-linecap="round" stroke-linejoin="round"/>
<path d="M230.433 167.649L228.376 166.514" stroke="#263238" stroke-linecap="round" stroke-linejoin="round"/>
<path d="M129.849 131.501C129.849 131.501 128.755 139.97 128.554 144.753C128.354 149.536 128.755 154.014 130.638 154.612C132.521 155.209 136.403 155.312 137.69 153.314C138.978 151.315 138.286 144.941 138.784 141.852C139.282 138.763 140.175 131.897 140.175 131.897L130.34 130.599L129.849 131.501Z" fill="#BA765F" stroke="#263238" stroke-linecap="round" stroke-linejoin="round"/>
<path d="M178.633 201.845C180.723 192.175 178.782 174.334 178.782 174.334L177.727 173.335L158.013 175.45L136.454 173.328L135.277 174.328C135.277 174.328 133.155 192.169 135.439 201.839C137.723 211.509 141.779 225.138 141.909 227.046C142.038 228.954 141.022 237.105 141.527 241.564C142.032 246.022 143.811 263.837 143.811 263.837L152.695 263.714C152.695 263.714 154.603 236.456 154.603 231.264C154.603 226.072 154.092 213.313 154.474 211.911C154.856 210.509 157.023 189.118 157.023 189.118L157.67 189.177V189.248L158.039 189.209L158.434 189.248V189.17L158.951 189.118C158.951 189.118 160.892 210.503 161.267 211.905C161.643 213.306 161.151 226.033 161.151 231.258C161.151 236.482 162.846 263.714 162.846 263.714L170.96 263.837C170.96 263.837 172.584 246.016 173.05 241.564C173.515 237.112 172.584 228.96 172.7 227.046C172.817 225.131 176.55 211.522 178.633 201.845Z" fill="#108ED6" stroke="#263238" stroke-linecap="round" stroke-linejoin="round"/>
<path d="M145.907 180.123L153.167 187.048" stroke="#263238" stroke-linecap="round" stroke-linejoin="round"/>
<path d="M151.621 183.582L153.407 185.854" stroke="#263238" stroke-linecap="round" stroke-linejoin="round"/>
<path d="M162.342 185.737L165.79 182.271" stroke="#263238" stroke-linecap="round" stroke-linejoin="round"/>
<path d="M167.835 182.921C164.968 185.205 161.145 188.36 161.145 188.36" stroke="#263238" stroke-linecap="round" stroke-linejoin="round"/>
<path d="M170.908 180.597C170.325 180.951 169.771 181.353 169.252 181.797" stroke="#263238" stroke-linecap="round" stroke-linejoin="round"/>
<path d="M143.811 263.844C143.811 263.844 142.162 268.302 140.893 271.1C139.625 273.897 138.48 277.466 139.599 279.121C140.719 280.776 142.899 281.795 145.817 280.906C147.187 280.49 148.392 279.65 149.258 278.507C150.125 277.363 150.61 275.975 150.644 274.539C150.767 271.612 152.417 269.957 152.546 268.809C152.587 267.492 152.544 266.174 152.417 264.863L143.811 263.844Z" fill="#263238" stroke="#263238" stroke-linecap="round" stroke-linejoin="round"/>
<path d="M150.663 274.54C150.792 271.613 152.442 269.958 152.604 268.809C152.619 268.533 152.619 268.255 152.604 267.979C151.498 269.419 149.822 271.834 149.654 273.521C149.395 276.065 148.89 278.233 145.079 278.998C144.026 279.215 142.936 279.17 141.904 278.867C140.872 278.564 139.929 278.012 139.159 277.259C139.123 277.913 139.286 278.562 139.625 279.122C140.764 280.777 142.925 281.796 145.843 280.907C147.213 280.492 148.418 279.652 149.284 278.509C150.15 277.365 150.633 275.976 150.663 274.54Z" fill="white" stroke="#263238" stroke-linecap="round" stroke-linejoin="round"/>
<path d="M170.281 263.844C170.281 263.844 171.931 268.302 173.199 271.1C174.467 273.897 175.612 277.466 174.493 279.121C173.374 280.776 171.193 281.795 168.269 280.906C166.899 280.489 165.696 279.649 164.83 278.506C163.964 277.363 163.481 275.974 163.448 274.539C163.319 271.612 161.669 269.957 161.546 268.809C161.501 267.492 161.542 266.174 161.669 264.863L170.281 263.844Z" fill="#263238" stroke="#263238" stroke-linecap="round" stroke-linejoin="round"/>
<path d="M163.429 274.54C163.299 271.613 161.649 269.958 161.526 268.809C161.498 268.533 161.485 268.256 161.488 267.979C162.6 269.419 164.276 271.834 164.444 273.521C164.697 276.065 165.208 278.233 169.012 278.998C170.067 279.214 171.158 279.169 172.191 278.865C173.223 278.562 174.167 278.011 174.939 277.259C174.975 277.913 174.812 278.562 174.473 279.122C173.328 280.777 171.173 281.796 168.249 280.907C166.879 280.49 165.676 279.65 164.81 278.507C163.945 277.363 163.461 275.975 163.429 274.54Z" fill="white" stroke="#263238" stroke-linecap="round" stroke-linejoin="round"/>
<path d="M142.291 260.534L143.054 265.246C144.933 265.678 146.84 265.975 148.761 266.135C150.127 266.227 151.499 266.1 152.824 265.759L153.206 260.281L142.291 260.534Z" fill="white" stroke="#263238" stroke-linecap="round" stroke-linejoin="round"/>
<path d="M161.326 260.028L161.579 265.499C163.38 265.902 165.204 266.201 167.039 266.395C168.333 266.395 170.721 266.265 170.721 266.265C171.057 264.753 171.31 263.223 171.478 261.683C171.478 260.664 161.326 260.028 161.326 260.028Z" fill="white" stroke="#263238" stroke-linecap="round" stroke-linejoin="round"/>
<path d="M148.942 114.049C148.942 114.049 140.738 114.964 138.357 115.996C135.976 117.028 133.388 117.689 132.1 120.675C130.813 123.66 129.849 131.5 129.849 131.5L139.476 133.194C139.476 133.194 138.182 138.97 138.784 141.858C139.386 144.746 140.473 149.231 140.473 149.231C140.473 149.231 140.673 155.721 139.677 159.394C138.68 163.067 135.905 171.446 135.704 172.445C135.504 173.445 135.309 174.334 135.309 174.334C135.309 174.334 149.705 178.319 162.219 177.819C174.732 177.319 179.5 174.237 179.5 174.237C179.5 174.237 177.217 163.775 176.421 160.789C175.946 159.196 175.614 157.562 175.431 155.909C175.431 155.61 181.092 149.529 181.092 149.529C181.944 147.932 182.389 146.149 182.386 144.337C182.483 141.053 182.787 134.972 182.884 132.188C182.981 129.404 182.089 121.927 179.112 118.936C176.136 115.944 172.552 115.561 171.257 115.262C169.963 114.964 165.286 112.945 165.286 112.945L148.942 114.049Z" fill="#263238" stroke="#263238" stroke-linecap="round" stroke-linejoin="round"/>
<path d="M142.627 169.155C142.627 169.155 149.776 170.752 155.14 171.446" stroke="#949494" stroke-linecap="round" stroke-linejoin="round"/>
<path d="M164.464 170.181C160.426 170.291 155.037 170.285 151.957 169.655" stroke="#949494" stroke-linecap="round" stroke-linejoin="round"/>
<path d="M166.178 170.122L164.464 170.18" stroke="#263238" stroke-linecap="round" stroke-linejoin="round"/>
<path d="M169.738 169.953C169.738 169.953 168.664 170.018 167.014 170.089" stroke="#263238" stroke-linecap="round" stroke-linejoin="round"/>
<path d="M182.846 132.201C182.865 131.241 182.82 130.28 182.71 129.326C179.556 129.766 176.507 130.772 173.71 132.299C173.39 137.669 173.961 143.055 175.399 148.238C175.87 150.041 176.586 151.771 177.528 153.378C179.132 151.593 181.06 149.529 181.06 149.529C181.913 147.933 182.357 146.149 182.354 144.338C182.445 141.054 182.749 134.985 182.846 132.201Z" fill="#BA765F" stroke="#263238" stroke-linecap="round" stroke-linejoin="round"/>
<path d="M159.308 79.7042C159.308 79.7042 165.066 81.9952 166.159 83.8837C167.253 85.7723 167.654 102.815 167.551 103.912C167.447 105.009 171.433 105.606 172.52 105.301C173.607 104.996 173.51 104.606 173.71 103.509C173.911 102.413 174.804 101.919 174.804 101.017C174.804 100.115 173.904 99.4273 173.904 98.8302C173.904 98.2331 174.7 97.1363 174.506 96.338C174.312 95.5398 173.51 95.6436 173.71 94.7415C173.911 93.8394 174.402 92.9502 174.208 92.1455C174.014 91.3407 172.617 90.4581 172.52 89.8545C172.423 89.251 172.914 88.0633 172.714 86.8691C172.513 85.675 171.523 85.675 171.025 84.5782C170.527 83.4814 170.831 83.1828 170.236 81.8913C169.64 80.5998 169.039 81.0931 168.547 80.2948C168.055 79.4965 168.346 78.6982 167.654 78.1012C166.962 77.5041 166.658 76.2126 164.969 75.1158C163.28 74.019 161.889 73.6231 160.006 72.9222C158.659 72.4878 157.248 72.286 155.833 72.3251C155.833 72.3251 153.452 73.1234 155.633 75.4143C156.934 76.7765 158.161 78.2086 159.308 79.7042Z" fill="#263238"/>
<path d="M162.239 79.1328C159.292 79.4511 156.468 80.4895 154.015 82.1571C150.042 84.9089 150.042 101.536 150.728 102.776C151.414 104.015 151.686 109.512 151.136 111.025C150.609 112.167 149.864 113.195 148.942 114.049C148.942 114.049 152.507 122.291 157.58 121.188C162.653 120.085 165.254 112.939 165.254 112.939C165.254 112.939 163.746 110.194 163.746 109.642C163.699 109.222 163.538 108.822 163.28 108.487C163.28 108.487 166.761 109.642 167.855 106.482C168.948 103.321 169.912 98.7845 169.796 96.4481C169.679 94.1117 168.967 93.0084 168.967 91.4962C168.967 89.9841 169.11 88.751 168.696 87.2388C168.282 85.7266 163.882 79.1328 162.239 79.1328Z" fill="#BA765F" stroke="#263238" stroke-linecap="round" stroke-linejoin="round"/>
<path d="M160.2 108.889C160.2 108.889 158.415 108.792 155.833 106.501" stroke="#263238" stroke-linecap="round" stroke-linejoin="round"/>
<path d="M156.228 89.1663C156.228 89.1663 159.113 87.5698 160.899 88.368" stroke="#263238" stroke-linecap="round" stroke-linejoin="round"/>
<path d="M164.969 88.0695C164.969 88.0695 166.062 86.0771 167.848 87.4725" stroke="#263238" stroke-linecap="round" stroke-linejoin="round"/>
<path d="M166.36 95.5391C166.36 95.5391 167.253 96.5385 166.561 97.3368C166.401 97.5588 166.196 97.7445 165.959 97.8815C165.722 98.0186 165.46 98.104 165.188 98.1322C164.916 98.1604 164.641 98.1307 164.382 98.0451C164.122 97.9594 163.884 97.8198 163.682 97.6353" stroke="#263238" stroke-linecap="round" stroke-linejoin="round"/>
<path d="M167.059 100.024L163.778 101.024" stroke="#263238" stroke-linecap="round" stroke-linejoin="round"/>
<path d="M160.989 92.4304C161.093 93.2222 160.75 93.9166 160.239 93.988C159.728 94.0594 159.217 93.4623 159.119 92.69C159.022 91.9177 159.352 91.2038 159.87 91.1389C160.388 91.074 160.905 91.6386 160.989 92.4304Z" fill="#263238"/>
<path d="M167.77 91.295C167.868 92.0543 167.557 92.7163 167.065 92.7812C166.574 92.8461 166.108 92.275 166.011 91.4832C165.914 90.6914 166.231 90.0619 166.716 89.997C167.201 89.9321 167.673 90.5356 167.77 91.295Z" fill="#263238"/>
<path d="M161.792 77.9126C161.31 78.5512 160.742 79.1191 160.103 79.6C159.411 80.0023 158.615 79.905 158.512 80.6968C158.408 81.4886 158.512 81.9948 157.619 82.196C156.726 82.3972 155.93 82.196 155.736 82.8904C155.542 83.5848 156.034 83.8834 155.335 84.3831C154.636 84.8828 153.944 84.6816 153.75 85.3825C153.556 86.0835 154.047 86.7779 153.646 87.6735C153.245 88.5691 152.158 88.4718 152.456 89.5621C152.753 90.6524 153.847 90.5615 153.051 91.3598C152.255 92.1581 151.757 92.2554 152.158 93.1511C152.559 94.0467 153.847 95.5394 153.051 96.8374C152.255 98.1354 151.66 97.9342 151.958 99.0245C152.255 100.115 153.252 101.121 152.954 101.919C152.719 102.605 152.521 103.302 152.359 104.009C152.359 104.009 153.349 105.605 152.255 106.3C151.829 106.641 151.322 106.867 150.784 106.954C150.245 107.042 149.694 106.988 149.182 106.799C147.985 106.397 147.687 105.501 146.995 105.8C146.303 106.099 145.604 107.195 144.213 106.799C142.822 106.404 142.032 105.3 141.534 105.404C140.779 105.726 139.967 105.896 139.147 105.904C138.06 105.8 138.06 104.703 137.561 104.009C137.063 103.314 136.267 103.911 136.17 102.412C136.073 100.913 136.267 100.024 136.17 99.4269C136.073 98.8298 135.375 100.121 134.98 97.733C134.585 95.3447 135.672 94.9423 135.278 93.839C134.883 92.7357 133.983 91.9504 134.184 90.8536C134.385 89.7568 134.98 89.6594 135.077 88.66C135.174 87.6605 134.579 87.0699 135.077 85.9731C135.575 84.8763 136.371 84.779 136.669 84.0781C136.966 83.3771 136.17 83.3836 137.063 81.9883C137.956 80.5929 139.147 81.0927 139.651 80.2944C140.156 79.4961 139.852 78.6005 140.544 78.0034C141.237 77.4064 141.638 78.2046 142.336 77.004C143.035 75.8033 144.323 74.713 144.717 73.8174C145.112 72.9218 147.396 73.5189 147.991 73.123C148.587 72.7271 149.68 72.1235 150.275 71.7276C150.871 71.3317 152.365 71.5264 152.863 71.7276C153.362 71.9288 153.756 71.6303 154.85 71.6303C155.943 71.6303 162.096 74.2263 162.691 75.4139C163.287 76.6016 162.685 77.0105 161.792 77.9126Z" fill="#263238"/>
<path d="M128.619 146.447C128.619 146.447 128.225 154.514 128.82 156.104C129.415 157.694 131.007 157.5 138.454 158.597C145.901 159.693 159.605 157.701 163.079 157.604C166.554 157.506 170.63 157.201 170.63 157.201C170.63 157.201 175.101 158.201 175.295 157.604C175.489 157.006 172.021 150.529 171.322 150.03C170.624 149.53 168.844 149.634 167.848 150.127C166.852 150.62 165.564 151.127 164.671 151.522C163.778 151.918 150.469 152.022 148.088 151.029C145.055 149.824 141.934 148.856 138.752 148.135C136.267 147.641 134.87 147.44 134.87 147.44" fill="#BA765F"/>
<path d="M128.619 146.447C128.619 146.447 128.225 154.514 128.82 156.104C129.415 157.694 131.007 157.5 138.454 158.597C145.901 159.693 159.605 157.701 163.079 157.604C166.554 157.506 170.63 157.201 170.63 157.201C170.63 157.201 175.101 158.201 175.295 157.604C175.489 157.006 172.021 150.529 171.322 150.03C170.624 149.53 168.844 149.634 167.848 150.127C166.852 150.62 165.564 151.127 164.671 151.522C163.778 151.918 150.469 152.022 148.088 151.029C145.055 149.824 141.934 148.856 138.752 148.135C136.267 147.641 134.87 147.44 134.87 147.44" stroke="#263238" stroke-linecap="round" stroke-linejoin="round"/>
<path d="M160.401 110.486L160.562 111.252C160.815 112.42 161.306 114.497 161.591 114.666C161.992 114.867 162.982 114.964 163.079 114.568C163.065 113.96 162.965 113.357 162.782 112.777L163.383 112.076C163.513 113.384 163.712 114.684 163.978 115.97C164.173 116.366 165.37 118.359 165.965 118.761C166.513 119.203 167.012 119.704 167.453 120.254L168.669 137.16C168.669 137.16 168.87 149.809 169.963 151.905C171.057 154.001 175.224 158.181 176.22 157.883C177.216 157.584 180.387 152.398 181.086 149.51C181.784 146.622 180.29 142.741 179.196 140.424C178.103 138.108 172.914 123.336 172.551 122.233C172.189 121.13 170.759 114.445 169.769 112.174C169.168 110.785 168.67 109.353 168.281 107.89C168.178 107.585 165.499 107.689 164.399 108.085C163.299 108.481 160.329 108.189 160.226 108.883C160.182 109.424 160.241 109.968 160.401 110.486Z" fill="#BA765F" stroke="#263238" stroke-linecap="round" stroke-linejoin="round"/>
<path d="M138.558 123.434L139.748 130.709L139.45 133.201" stroke="#949494" stroke-linecap="round" stroke-linejoin="round"/>
<path d="M139.749 130.709L137.167 126.127" stroke="#949494" stroke-linecap="round" stroke-linejoin="round"/>
<path d="M35.1008 125.159C35.1008 125.159 31.6134 137.308 30.6105 142.351C29.6077 147.394 32.241 154.195 32.7457 155.331C33.2504 156.467 38.4006 170.706 39.1511 172.088C39.9017 173.471 42.0433 178.773 42.1662 179.149C42.2891 179.526 46.6953 171.361 46.3136 170.576C45.9318 169.791 44.049 166.682 43.6737 164.781C43.2985 162.879 41.9139 144.999 41.9139 144.999L48.701 127.1L35.1008 125.159Z" fill="#F08D5F" stroke="#263238" stroke-linecap="round" stroke-linejoin="round"/>
<path d="M36.5117 140.58C36.5117 140.58 40.3938 139.197 41.9143 144.993" stroke="#263238" stroke-linecap="round" stroke-linejoin="round"/>
<path d="M48.8241 265.46C48.8241 265.46 42.671 272.514 41.2864 273.248C40.5215 273.691 39.9302 274.383 39.6103 275.209C39.2903 276.035 39.2607 276.946 39.5265 277.791C40.1735 279.679 44.5538 281.444 46.566 281.191C48.5782 280.938 50.0793 280.938 51.8392 278.543C53.5991 276.149 58.1217 273.254 59.5063 271.865C60.0808 271.278 60.4882 270.546 60.6862 269.748C60.8841 268.949 60.8655 268.111 60.6321 267.322C60.2568 266.089 51.561 263.188 48.8241 265.46Z" fill="#263238" stroke="#263238" stroke-linecap="round" stroke-linejoin="round"/>
<path d="M39.5267 277.811C40.1738 279.699 44.554 281.465 46.5663 281.211C48.5785 280.958 50.0795 280.958 51.8394 278.564C53.5993 276.169 58.1219 273.274 59.5065 271.885C60.1539 271.237 60.5836 270.402 60.7359 269.497C59.1571 270.711 56.9379 271.931 55.7344 272.898C53.8516 274.403 50.7071 277.181 50.7071 277.181C46.2751 271.146 42.9947 272.177 41.7913 272.898C41.6341 273.038 41.4653 273.164 41.2866 273.274C40.5231 273.717 39.9328 274.408 39.6129 275.233C39.293 276.057 39.2626 276.967 39.5267 277.811Z" fill="white" stroke="#263238" stroke-linecap="round" stroke-linejoin="round"/>
<path d="M50.5839 266.343C50.5839 266.343 46.4365 269.237 46.4365 270.373C46.4365 271.509 48.824 271.762 49.8333 271.386C50.8427 271.009 54.6018 267.725 54.4789 267.225C54.356 266.726 50.5839 266.343 50.5839 266.343Z" fill="white" stroke="#263238" stroke-linecap="round" stroke-linejoin="round"/>
<path d="M92.7817 265.46C92.7817 265.46 98.9413 272.514 100.319 273.248C101.084 273.691 101.676 274.383 101.996 275.209C102.316 276.035 102.345 276.946 102.079 277.791C101.432 279.679 97.052 281.444 95.0463 281.191C93.0406 280.938 91.5265 280.938 89.7667 278.543C88.0068 276.149 83.4842 273.254 82.106 271.865C81.5309 271.278 81.1227 270.547 80.9237 269.748C80.7246 268.95 80.7419 268.112 80.9738 267.322C81.3231 266.089 90.019 263.188 92.7817 265.46Z" fill="#263238" stroke="#263238" stroke-linecap="round" stroke-linejoin="round"/>
<path d="M102.079 277.811C101.432 279.699 97.0519 281.465 95.0462 281.211C93.0404 280.958 91.5264 280.958 89.7666 278.564C88.0067 276.169 83.4841 273.274 82.1059 271.885C81.4589 271.236 81.0274 270.402 80.8701 269.497C82.4553 270.711 84.6746 271.931 85.8715 272.898C87.7608 274.403 90.8988 277.181 90.8988 277.181C95.3373 271.146 98.6112 272.177 99.8147 272.898C99.973 273.036 100.142 273.162 100.319 273.274C101.083 273.717 101.673 274.408 101.993 275.233C102.313 276.057 102.343 276.967 102.079 277.811Z" fill="white" stroke="#263238" stroke-linecap="round" stroke-linejoin="round"/>
<path d="M91.0285 266.343C91.0285 266.343 95.1759 269.237 95.1759 270.373C95.1759 271.509 92.7884 271.762 91.7855 271.386C90.7827 271.009 87.0106 267.725 87.14 267.225C87.2694 266.726 91.0285 266.343 91.0285 266.343Z" fill="white" stroke="#263238" stroke-linecap="round" stroke-linejoin="round"/>
<path d="M46.4361 168.428C46.4361 168.428 41.26 179.519 41.5382 181.408C41.8164 183.296 43.9256 196.153 43.9256 196.153C43.9256 196.153 48.073 236.099 48.3253 239.123C48.5777 242.147 48.5712 247.313 48.5712 247.313C47.8123 249.379 47.3484 251.542 47.1931 253.739C47.0637 256.893 47.9436 264.7 47.9436 264.7L47.8207 266.595C50.0361 267.13 52.2164 267.802 54.349 268.607C56.7365 269.62 59.3763 270.119 60.6315 268.99C61.8867 267.861 62.7667 267.095 63.019 265.713C63.2714 264.33 62.5208 259.917 62.5208 259.034C62.5208 258.152 63.2714 251.85 63.3943 249.455C63.5172 247.06 62.8961 239 62.8961 237.987C62.8961 236.975 69.9291 188.086 70.0585 187.586C70.1879 187.086 77.3439 234.84 77.4668 235.722C77.5898 236.605 77.5962 245.425 78.2238 249.455C78.8514 253.485 79.8543 264.454 79.8543 264.454C79.5722 265.188 79.3557 265.946 79.2073 266.719C79.2073 267.225 80.9672 271.385 80.9672 271.385C80.9672 271.385 86.9973 268.737 89.0031 268.231C90.7453 267.924 92.5192 267.839 94.2827 267.978C94.2827 267.978 94.2827 262.182 93.9074 260.8C93.5322 259.417 92.8981 257.522 92.8981 256.133C92.8981 254.745 94.4056 247.567 94.4056 242.777C94.4056 237.987 93.6551 232.192 93.7586 229.148C93.8622 226.104 97.0261 197.269 97.0261 194.245C97.0261 191.221 97.7831 171.309 97.7831 171.309L46.4361 168.428Z" fill="#263238" stroke="#263238" stroke-linecap="round" stroke-linejoin="round"/>
<path d="M65.1479 94.1827C65.1479 94.1827 60.7223 96.1297 58.089 96.941C55.4556 97.7522 48.9726 99.5824 44.1976 102.587C39.4226 105.592 36.7764 111.115 36.1746 114.477C35.7709 117.181 35.5311 119.908 35.4564 122.641L35.1006 125.159C35.1006 125.159 38.3357 129.242 41.3249 130.202C43.188 130.774 45.1662 130.856 47.0703 130.442C47.0703 130.442 45.7763 156.259 45.511 159.978C45.2458 163.697 45.2716 164.904 45.2716 164.904C45.2716 164.904 44.7929 164.904 44.7929 166.202C44.7929 167.5 44.6764 167.883 45.0322 168.363C45.3881 168.843 61.5505 177.852 68.0142 180.136C74.4778 182.421 88.4857 179.773 92.5554 177.852C96.6251 175.931 98.1844 173.529 98.3009 172.329C98.3299 169.918 98.1698 167.51 97.8221 165.125C97.5827 164.164 96.528 145.655 96.528 145.655L95.9263 141.93L102.752 147.212C104.149 143.468 105.035 139.552 105.386 135.569C105.864 129.326 105.625 125.964 105.386 124.64C105.146 123.316 106.68 115.515 102.752 109.512C98.8249 103.509 89.9415 100.504 87.3081 99.0632C85.6959 98.229 84.1776 97.2238 82.779 96.0648C82.4232 95.7014 80.9868 93.5402 80.9868 93.5402L65.782 92.4629L65.1479 94.1827Z" fill="#108ED6" stroke="#263238" stroke-linecap="round" stroke-linejoin="round"/>
<path d="M85.0821 97.8043C84.2552 97.3044 83.4718 96.7356 82.74 96.1039C82.3841 95.7405 80.9477 93.5793 80.9477 93.5793L65.7429 92.502L65.1412 94.1829C65.1412 94.1829 62.6243 95.2732 60.2627 96.1688C61.4726 99.5955 65.5294 109.558 71.9672 110.155C77.2339 110.641 82.3388 102.873 85.0821 97.8043Z" fill="#F08D5F" stroke="#263238" stroke-linecap="round" stroke-linejoin="round"/>
<path d="M93.7529 129.722L95.9075 141.969L102.733 147.252C104.13 143.507 105.016 139.591 105.367 135.609C105.58 132.837 105.645 130.637 105.639 128.93C101.187 128.074 93.7529 129.722 93.7529 129.722Z" fill="#F08D5F" stroke="#263238" stroke-linecap="round" stroke-linejoin="round"/>
<path d="M47.0708 130.449L44.7998 114.113" stroke="#263238" stroke-linecap="round" stroke-linejoin="round"/>
<path d="M46.3522 127.327L43.4795 117.358" stroke="#263238" stroke-linecap="round" stroke-linejoin="round"/>
<path d="M66.6425 157.227C65.6591 157.876 64.7015 158.46 63.7051 159.018" stroke="#263238" stroke-linecap="round" stroke-linejoin="round"/>
<path d="M84.7782 143.772C79.4425 148.219 73.8839 152.388 68.124 156.266" stroke="#263238" stroke-linecap="round" stroke-linejoin="round"/>
<path d="M85.0181 138.366C82.1508 142.535 78.7312 146.292 74.8535 149.535" stroke="#263238" stroke-linecap="round" stroke-linejoin="round"/>
<path d="M59.4996 173.672C53.4824 170.667 46.4688 166.222 46.4688 166.222" stroke="#263238" stroke-linecap="round" stroke-linejoin="round"/>
<path d="M64.7858 175.95C63.808 175.621 62.849 175.237 61.9131 174.802" stroke="#263238" stroke-linecap="round" stroke-linejoin="round"/>
<path d="M56.168 169.227C56.168 169.227 66.339 174.873 81.188 171.174" stroke="#263238" stroke-linecap="round" stroke-linejoin="round"/>
<path d="M93.4936 113.652C93.4936 113.652 91.0285 117.04 90.7373 119.636" stroke="#263238" stroke-linecap="round" stroke-linejoin="round"/>
<path d="M66.2807 65.244C66.2807 65.244 63.4727 68.489 63.3045 71.2213C63.1362 73.9535 63.0586 83.0849 63.0586 86.901C63.0586 90.7172 63.7056 94.2867 65.0449 95.338C66.5782 96.4714 68.3197 97.2897 70.1693 97.7458C71.6574 98.0768 74.886 98.3234 75.96 97.9924C77.0341 97.6614 81.7832 95.7534 83.0772 94.3451C84.3712 92.9367 84.7336 86.7907 84.7336 81.5663C84.7336 76.3418 84.4877 70.3646 83.6595 68.6253C82.9591 67.268 82.1567 65.9662 81.2591 64.7313C81.2591 64.7313 79.8551 62.2391 74.4784 61.9081C69.1017 61.5771 66.3648 62.7583 66.2807 65.244Z" fill="#263238" stroke="#263238" stroke-linecap="round" stroke-linejoin="round"/>
<path d="M67.0895 65.8281C67.2112 67.0132 67.0401 68.2102 66.5913 69.3132C65.8473 71.0526 64.0033 72.2986 64.0033 73.8562C64.0033 75.4138 63.4274 83.3965 63.5892 84.3116C63.751 85.2267 64.8315 87.7124 65.4914 87.959C66.1514 88.2056 69.2117 86.3819 72.2786 86.3819C75.0702 86.556 77.7985 87.2909 80.3016 88.5431C80.7933 88.9584 82.2814 89.1921 82.6114 88.7053C82.9414 88.2186 83.4396 84.4738 83.5237 83.5653C83.7471 81.4092 83.8573 79.2429 83.8537 77.0753C83.7696 75.0828 83.1096 72.2597 82.2038 71.2667C81.298 70.2738 80.2174 66.1202 80.2174 66.1202C80.2174 66.1202 75.3325 68.0282 73.2685 67.6972C71.1673 67.2218 69.1025 66.5972 67.0895 65.8281Z" fill="#F08D5F" stroke="#263238" stroke-linecap="round" stroke-linejoin="round"/>
<path d="M66.1182 75.6798C66.1182 75.6798 68.4345 74.7972 72.0707 76.1211" stroke="#263238" stroke-width="2" stroke-linecap="round" stroke-linejoin="round"/>
<path d="M76.1475 75.4136C76.1475 75.4136 78.1532 73.2914 81.44 74.7646" stroke="#263238" stroke-width="2" stroke-linecap="round" stroke-linejoin="round"/>
<path d="M71.4111 83.5C71.4111 83.5 70.583 84.4151 70.8288 85.1614C70.9174 85.4989 71.1092 85.8 71.3773 86.0224C71.6454 86.2448 71.9763 86.3772 72.3234 86.401C73.3924 86.4608 74.4619 86.2927 75.4614 85.9078C75.9596 85.5768 75.9596 83.9154 75.9596 83.9154" stroke="#263238" stroke-linecap="round" stroke-linejoin="round"/>
<path d="M74.1418 88.2319C74.1418 88.2319 70.1692 87.9788 70.9068 88.8809C71.4494 89.3982 72.14 89.7321 72.8815 89.8357C73.623 89.9393 74.3782 89.8074 75.0412 89.4585C76.2899 88.6408 74.8859 88.2319 74.1418 88.2319Z" fill="#F08D5F"/>
<path d="M70.9131 78.7492C70.9131 79.4631 70.5637 80.0472 70.1302 80.0472C69.6967 80.0472 69.3408 79.476 69.3408 78.7492C69.3408 78.0223 69.6967 77.4512 70.1302 77.4512C70.5637 77.4512 70.9131 78.0612 70.9131 78.7492Z" fill="#263238"/>
<path d="M77.6159 80.3913C78.0483 80.3913 78.3988 79.816 78.3988 79.1063C78.3988 78.3966 78.0483 77.8213 77.6159 77.8213C77.1835 77.8213 76.833 78.3966 76.833 79.1063C76.833 79.816 77.1835 80.3913 77.6159 80.3913Z" fill="#263238"/>
<path d="M62.8904 76.2833C62.8904 76.2833 61.5964 75.7836 61.1564 77.776C60.7165 79.7684 62.8904 83.5845 62.8904 83.5845V76.2833Z" fill="#F08D5F" stroke="#263238" stroke-linecap="round" stroke-linejoin="round"/>
<path d="M84.8107 76.699C84.8107 76.699 86.5447 75.453 87.2111 77.9386C87.8775 80.4243 84.7266 84.0782 84.7266 84.0782L84.8107 76.699Z" fill="#F08D5F" stroke="#263238" stroke-linecap="round" stroke-linejoin="round"/>
<path d="M71.7408 80.0996C70.6689 80.6867 69.5651 81.2132 68.4346 81.6767" stroke="#263238" stroke-linecap="round" stroke-linejoin="round"/>
<path d="M76.1475 80.1836C76.1475 80.1836 77.7132 81.7542 78.7937 81.9229" stroke="#263238" stroke-linecap="round" stroke-linejoin="round"/>
<path d="M74.8012 98.5183C74.8012 98.5183 69.5086 97.8693 68.6804 98.1873C67.8522 98.5053 66.61 100.673 66.8623 101.335C67.0815 101.805 67.4236 102.206 67.8522 102.497C68.2031 103.422 68.5076 104.364 68.7645 105.32C69.0104 106.397 69.4115 107.312 69.8386 107.559C70.2656 107.805 70.4856 108.721 71.3267 108.889C71.9786 108.945 72.6337 108.831 73.2289 108.558C74.0503 109.378 74.9142 110.153 75.817 110.882C76.885 111.515 78.0256 112.016 79.2138 112.374C79.2138 112.374 88.0585 139.334 89.883 142.326C91.7076 145.318 99.0642 150.763 100.552 150.458C102.04 150.153 103.787 145.915 104.111 144.234C104.434 142.553 104.111 138.256 102.953 136.264C101.795 134.272 94.0175 124.582 91.9535 121.986C89.8895 119.39 83.7688 111.446 83.6005 111.031C83.4323 110.616 78.1398 102.321 77.1304 100.647C76.5972 99.7088 75.7819 98.9638 74.8012 98.5183Z" fill="#F08D5F" stroke="#263238" stroke-linecap="round" stroke-linejoin="round"/>
<path d="M67.8525 102.496C67.8525 102.496 68.5966 101.419 69.0107 101.256C69.4248 101.094 73.1451 100.426 73.1451 100.426" stroke="#263238" stroke-linecap="round" stroke-linejoin="round"/>
<path d="M68.6807 104.242L69.9229 103.412L73.8956 102.581" stroke="#263238" stroke-linecap="round" stroke-linejoin="round"/>
<path d="M69.3408 106.728C69.3408 106.728 69.7549 105.735 70.2531 105.489C71.4773 105.165 72.7196 104.916 73.9734 104.742" stroke="#263238" stroke-linecap="round" stroke-linejoin="round"/>
<path d="M73.2358 108.558L71.3271 107.728" stroke="#263238" stroke-linecap="round" stroke-linejoin="round"/>
</g>
<defs>
<clipPath id="clip0_34_3368">
<rect width="311" height="311" fill="white"/>
</clipPath>
</defs>
</svg>
