<svg width="19" height="19" viewBox="0 0 19 19" fill="none" xmlns="http://www.w3.org/2000/svg">
<path d="M18 18L13.1429 13.1429M8.28571 15.5714C7.32894 15.5714 6.38154 15.383 5.49759 15.0168C4.61365 14.6507 3.81048 14.114 3.13394 13.4375C2.4574 12.761 1.92073 11.9578 1.55459 11.0738C1.18845 10.1899 1 9.24249 1 8.28571C1 7.32894 1.18845 6.38154 1.55459 5.49759C1.92073 4.61365 2.4574 3.81048 3.13394 3.13394C3.81048 2.4574 4.61365 1.92073 5.49759 1.55459C6.38154 1.18845 7.32894 1 8.28571 1C10.218 1 12.0712 1.7676 13.4375 3.13394C14.8038 4.50027 15.5714 6.35342 15.5714 8.28571C15.5714 10.218 14.8038 12.0712 13.4375 13.4375C12.0712 14.8038 10.218 15.5714 8.28571 15.5714Z" stroke="#108ED6" stroke-width="2"/>
</svg>
