<svg width="17" height="18" viewBox="0 0 17 18" fill="none" xmlns="http://www.w3.org/2000/svg">
<path fill-rule="evenodd" clip-rule="evenodd" d="M16.7734 1.32521C16.8452 1.25313 16.9022 1.16755 16.9411 1.07337C16.98 0.979181 17 0.878235 17 0.776291C17 0.674347 16.98 0.573402 16.9411 0.479218C16.9022 0.385034 16.8452 0.299456 16.7734 0.22737C16.7016 0.155285 16.6163 0.098104 16.5224 0.0590917C16.4286 0.0200794 16.328 0 16.2264 0C16.1248 0 16.0242 0.0200794 15.9303 0.0590917C15.8365 0.098104 15.7512 0.155285 15.6794 0.22737L8.5 7.43312L1.32064 0.22737C1.24881 0.155285 1.16352 0.098104 1.06966 0.0590917C0.975805 0.0200794 0.875207 7.59542e-10 0.773615 0C0.672022 -7.59542e-10 0.571424 0.0200794 0.477565 0.0590917C0.383706 0.098104 0.298423 0.155285 0.226586 0.22737C0.15475 0.299456 0.0977657 0.385034 0.058888 0.479218C0.0200102 0.573402 -7.56923e-10 0.674347 0 0.776291C7.56923e-10 0.878235 0.0200102 0.979181 0.058888 1.07337C0.0977657 1.16755 0.15475 1.25313 0.226586 1.32521L7.40749 8.52941L0.226586 15.7336C0.0815054 15.8792 0 16.0766 0 16.2825C0 16.4884 0.0815054 16.6859 0.226586 16.8315C0.371667 16.977 0.568439 17.0588 0.773615 17.0588C0.97879 17.0588 1.17556 16.977 1.32064 16.8315L8.5 9.6257L15.6794 16.8315C15.8244 16.977 16.0212 17.0588 16.2264 17.0588C16.4316 17.0588 16.6283 16.977 16.7734 16.8315C16.9185 16.6859 17 16.4884 17 16.2825C17 16.0766 16.9185 15.8792 16.7734 15.7336L9.59251 8.52941L16.7734 1.32521Z" fill="#1F51C6"/>
</svg>
