<svg width="18" height="18" viewBox="0 0 18 18" fill="none" xmlns="http://www.w3.org/2000/svg">
<path d="M16.5375 0H0.9625C0.707229 0 0.462414 0.101406 0.28191 0.28191C0.101406 0.462414 0 0.707229 0 0.9625V16.5375C0 16.7928 0.101406 17.0376 0.28191 17.2181C0.462414 17.3986 0.707229 17.5 0.9625 17.5H9.345V10.7188H7.07V8.09375H9.345V6.125C9.29787 5.66279 9.35244 5.19586 9.50488 4.75697C9.65731 4.31808 9.90392 3.91785 10.2274 3.58436C10.5509 3.25087 10.9434 2.99219 11.3775 2.82646C11.8115 2.66073 12.2766 2.59197 12.74 2.625C13.421 2.62081 14.1017 2.65587 14.7787 2.73V5.0925H13.3875C12.285 5.0925 12.075 5.6175 12.075 6.37875V8.0675H14.7L14.3587 10.6925H12.075V17.5H16.5375C16.6639 17.5 16.7891 17.4751 16.9058 17.4267C17.0226 17.3784 17.1287 17.3075 17.2181 17.2181C17.3075 17.1287 17.3784 17.0226 17.4267 16.9058C17.4751 16.7891 17.5 16.6639 17.5 16.5375V0.9625C17.5 0.836103 17.4751 0.710943 17.4267 0.594167C17.3784 0.477391 17.3075 0.371286 17.2181 0.28191C17.1287 0.192533 17.0226 0.121636 16.9058 0.073266C16.7891 0.0248959 16.6639 0 16.5375 0Z" fill="white"/>
</svg>
