<svg width="18" height="18" viewBox="0 0 18 18" fill="none" xmlns="http://www.w3.org/2000/svg">
<path d="M9.65 0.0010766C10.2885 -0.0013736 10.927 0.00504375 11.5654 0.0203267L11.7351 0.0264516C11.9311 0.0334516 12.1245 0.0422016 12.3581 0.0527016C13.2891 0.0964516 13.9244 0.243452 14.4818 0.459577C15.0593 0.681827 15.5458 0.982826 16.0323 1.46933C16.4771 1.90648 16.8214 2.43528 17.0411 3.01895C17.2573 3.57633 17.4043 4.21245 17.448 5.14345C17.4585 5.3762 17.4673 5.57045 17.4743 5.76645L17.4795 5.9362C17.4951 6.57424 17.5018 7.21247 17.4996 7.8507L17.5005 8.50345V9.6497C17.5027 10.2882 17.496 10.9267 17.4804 11.5651L17.4751 11.7348C17.4681 11.9308 17.4594 12.1242 17.4489 12.3578C17.4051 13.2888 17.2564 13.9241 17.0411 14.4815C16.8221 15.0657 16.4777 15.595 16.0323 16.032C15.5947 16.4767 15.0657 16.821 14.4818 17.0408C13.9244 17.257 13.2891 17.404 12.3581 17.4477C12.1245 17.4582 11.9311 17.4669 11.7351 17.4739L11.5654 17.4792C10.927 17.4948 10.2885 17.5015 9.65 17.4993L8.99725 17.5002H7.85188C7.21336 17.5024 6.57484 17.4956 5.93651 17.4801L5.76676 17.4748C5.55904 17.4673 5.35137 17.4585 5.14375 17.4486C4.21275 17.4048 3.5775 17.2561 3.01925 17.0408C2.43535 16.8215 1.90646 16.4772 1.46963 16.032C1.02429 15.5947 0.679701 15.0656 0.45988 14.4815C0.243755 13.9241 0.0967548 13.2888 0.0530048 12.3578C0.0432599 12.1502 0.0345098 11.9425 0.0267549 11.7348L0.02238 11.5651C0.0062481 10.9267 -0.00104435 10.2882 0.000504876 9.6497V7.8507C-0.00193722 7.21248 0.00448013 6.57425 0.0197549 5.9362L0.0258799 5.76645C0.0328799 5.57045 0.0416299 5.3762 0.0521299 5.14345C0.0958799 4.21158 0.24288 3.5772 0.459005 3.01895C0.678956 2.43499 1.02422 1.90634 1.4705 1.4702C1.90704 1.02461 2.4356 0.679703 3.01925 0.459577C3.5775 0.243452 4.21188 0.0964516 5.14375 0.0527016L5.76676 0.0264516L5.93651 0.0220767C6.57454 0.00595295 7.21277 -0.00133949 7.85101 0.000201659L9.65 0.0010766ZM8.7505 4.37608C8.17082 4.36788 7.59529 4.47497 7.05736 4.69114C6.51943 4.9073 6.02982 5.22822 5.61699 5.63525C5.20417 6.04228 4.87636 6.5273 4.65261 7.06212C4.42886 7.59694 4.31363 8.1709 4.31363 8.75064C4.31363 9.33038 4.42886 9.90434 4.65261 10.4392C4.87636 10.974 5.20417 11.459 5.61699 11.866C6.02982 12.2731 6.51943 12.594 7.05736 12.8101C7.59529 13.0263 8.17082 13.1334 8.7505 13.1252C9.91083 13.1252 11.0236 12.6643 11.8441 11.8438C12.6646 11.0233 13.1255 9.91052 13.1255 8.7502C13.1255 7.58988 12.6646 6.47708 11.8441 5.65661C11.0236 4.83614 9.91083 4.37608 8.7505 4.37608ZM8.7505 6.12608C9.0992 6.11965 9.44568 6.18277 9.7697 6.31176C10.0937 6.44074 10.3888 6.633 10.6377 6.8773C10.8866 7.12161 11.0843 7.41305 11.2193 7.73462C11.3543 8.0562 11.4238 8.40144 11.4239 8.75019C11.4239 9.09895 11.3545 9.44421 11.2196 9.76583C11.0847 10.0874 10.8871 10.379 10.6383 10.6233C10.3895 10.8677 10.0945 11.0601 9.77051 11.1892C9.44653 11.3183 9.10008 11.3815 8.75138 11.3752C8.05519 11.3752 7.38751 11.0986 6.89522 10.6064C6.40294 10.1141 6.12638 9.44639 6.12638 8.7502C6.12638 8.05401 6.40294 7.38633 6.89522 6.89405C7.38751 6.40176 8.05519 6.1252 8.75138 6.1252L8.7505 6.12608ZM13.3443 3.06358C13.062 3.07487 12.795 3.19496 12.5993 3.39868C12.4036 3.60239 12.2942 3.87394 12.2942 4.15645C12.2942 4.43896 12.4036 4.71051 12.5993 4.91423C12.795 5.11794 13.062 5.23803 13.3443 5.24933C13.6343 5.24933 13.9125 5.13409 14.1177 4.92897C14.3228 4.72386 14.438 4.44566 14.438 4.15558C14.438 3.8655 14.3228 3.5873 14.1177 3.38218C13.9125 3.17706 13.6343 3.06183 13.3443 3.06183V3.06358Z" fill="white"/>
</svg>
