<svg width="18" height="18" viewBox="0 0 18 18" fill="none" xmlns="http://www.w3.org/2000/svg">
<path d="M16.709 6.62701e-05H1.79098C1.4525 -0.00337845 1.12648 0.127592 0.884453 0.36424C0.642425 0.600888 0.504161 0.923883 0.5 1.26235V16.2405C0.504914 16.5785 0.643509 16.9007 0.885455 17.1368C1.1274 17.3728 1.45299 17.5034 1.79098 17.4999H16.709C17.0475 17.5026 17.3733 17.3712 17.6152 17.1344C17.8571 16.8976 17.9955 16.5747 18 16.2362V1.25805C17.994 0.920572 17.855 0.599117 17.6132 0.363555C17.3715 0.127994 17.0465 -0.00263354 16.709 6.62701e-05ZM5.68832 14.918H3.09057V6.55965H5.68832V14.918ZM4.39734 5.42072C4.09939 5.42101 3.80805 5.33291 3.56017 5.16759C3.3123 5.00227 3.11903 4.76714 3.00481 4.49195C2.8906 4.21677 2.86057 3.91389 2.91852 3.62163C2.97647 3.32938 3.11981 3.06088 3.33039 2.8501C3.54097 2.63931 3.80934 2.49573 4.10154 2.4375C4.39374 2.37926 4.69665 2.40901 4.97195 2.52296C5.24724 2.63691 5.48256 2.82996 5.64812 3.07767C5.81368 3.32539 5.90205 3.61664 5.90205 3.91459C5.90167 4.11262 5.86225 4.30863 5.78603 4.49141C5.70981 4.67418 5.5983 4.84013 5.45787 4.97976C5.31744 5.11939 5.15085 5.22996 4.96764 5.30513C4.78443 5.3803 4.58819 5.41861 4.39016 5.41785L4.39734 5.42072ZM15.418 14.918H12.8203V10.8514C12.8203 9.88319 12.8031 8.63668 11.4705 8.63668C10.1379 8.63668 9.91127 9.69241 9.91127 10.7883V14.918H7.31783V6.55965H9.80799V7.70718H9.84242C10.1895 7.05022 11.0359 6.3574 12.2996 6.3574C14.9303 6.35166 15.418 8.083 15.418 10.3279V14.918Z" fill="white"/>
</svg>
