<svg width="13" height="18" viewBox="0 0 13 18" fill="none" xmlns="http://www.w3.org/2000/svg">
<path d="M6.14603 8.3516C5.56434 8.3516 5.00647 8.12324 4.59516 7.71676C4.18384 7.31028 3.95276 6.75898 3.95276 6.18413C3.95276 5.60929 4.18384 5.05798 4.59516 4.6515C5.00647 4.24503 5.56434 4.01667 6.14603 4.01667C6.72772 4.01667 7.28559 4.24503 7.69691 4.6515C8.10822 5.05798 8.3393 5.60929 8.3393 6.18413C8.3393 6.46877 8.28257 6.75062 8.17235 7.01359C8.06212 7.27656 7.90057 7.51549 7.69691 7.71676C7.49324 7.91803 7.25146 8.07768 6.98536 8.18661C6.71926 8.29554 6.43405 8.3516 6.14603 8.3516ZM6.14603 0.115234C4.5173 0.115234 2.95527 0.754634 1.80358 1.89277C0.651895 3.03091 0.00488281 4.57456 0.00488281 6.18413C0.00488281 10.7358 6.14603 17.4549 6.14603 17.4549C6.14603 17.4549 12.2872 10.7358 12.2872 6.18413C12.2872 4.57456 11.6402 3.03091 10.4885 1.89277C9.33679 0.754634 7.77476 0.115234 6.14603 0.115234Z" fill="white"/>
</svg>
