<svg width="23" height="18" viewBox="0 0 23 18" fill="none" xmlns="http://www.w3.org/2000/svg">
<path d="M11.7051 0C12.2892 0.00328146 13.7505 0.017501 15.3037 0.0798487L15.855 0.103913C17.4181 0.177198 18.9801 0.304081 19.7556 0.519564C20.7892 0.810519 21.6008 1.65714 21.8754 2.73126C22.3129 4.43762 22.3676 7.76502 22.3742 8.57116L22.3753 8.73742V8.92774C22.3676 9.73389 22.3129 13.0624 21.8754 14.7676C21.5976 15.8451 20.7849 16.6928 19.7556 16.9793C18.9801 17.1948 17.4181 17.3217 15.855 17.395L15.3037 17.4202C13.7505 17.4814 12.2892 17.4967 11.7051 17.4989L11.448 17.5H11.1691C9.93309 17.4923 4.7637 17.4366 3.1186 16.9793C2.08604 16.6884 1.27333 15.8418 0.998781 14.7676C0.561254 13.0613 0.506563 9.73389 0.5 8.92774V8.57116C0.506563 7.76502 0.561254 4.43653 0.998781 2.73126C1.27661 1.65385 2.08932 0.806144 3.11969 0.520657C4.7637 0.0623474 9.93418 0.00656291 11.1702 0H11.7051ZM9.24945 4.92218V12.5789L15.8124 8.75055L9.24945 4.92218Z" fill="white"/>
</svg>
