<svg width="184" height="180" viewBox="0 0 184 180" fill="none" xmlns="http://www.w3.org/2000/svg">
<path d="M180.485 179.271H164.93H163.121H1" stroke="#263238" stroke-miterlimit="10" stroke-linecap="round" stroke-linejoin="round"/>
<path d="M173.787 43.6871C163.931 28.7254 145.198 19.8405 127.091 21.5401C108.983 23.2392 92.3173 35.4459 85.5456 51.9678C82.0871 60.4069 80.9882 69.8764 75.8132 77.4284C70.5075 85.1714 61.6704 89.79 52.9978 93.647C44.3252 97.5044 35.219 101.059 28.3783 107.547C21.5376 114.035 17.5048 124.438 21.5519 132.877C25.6649 141.454 36.0549 144.88 43.5557 150.871C51.0561 156.86 55.8296 165.669 63.4928 171.458C70.5722 176.806 79.6962 179.162 88.6392 179.145C97.5822 179.127 106.389 176.871 114.746 173.753C140.67 164.079 165.092 146.074 175.433 120.878C194.586 74.2147 173.787 43.6871 173.787 43.6871Z" fill="#108ED6" fill-opacity="0.28"/>
<g opacity="0.7">
<path d="M173.787 43.6871C163.931 28.7254 145.198 19.8405 127.091 21.5401C108.983 23.2392 92.3173 35.4459 85.5456 51.9678C82.0871 60.4069 80.9882 69.8764 75.8132 77.4284C70.5075 85.1714 61.6704 89.79 52.9978 93.647C44.3252 97.5044 35.219 101.059 28.3783 107.547C21.5376 114.035 17.5048 124.438 21.5519 132.877C25.6649 141.454 36.0549 144.88 43.5557 150.871C51.0561 156.86 55.8296 165.669 63.4928 171.458C70.5722 176.806 79.6962 179.162 88.6392 179.145C97.5822 179.127 106.389 176.871 114.746 173.753C140.67 164.079 165.092 146.074 175.433 120.878C194.586 74.2147 173.787 43.6871 173.787 43.6871Z" fill="white"/>
</g>
<path d="M80.1021 101.509C78.9637 100.724 77.5845 100.265 76.0954 100.265C72.1829 100.265 69.0108 103.441 69.0108 107.353V107.396C68.5569 106.813 67.8486 106.441 67.0544 106.441C66.3747 106.441 65.7597 106.716 65.3092 107.157C65.0015 104.367 62.6414 102.196 59.7692 102.196C56.7078 102.196 54.2223 104.664 54.1936 107.722C53.9219 107.525 53.5891 107.414 53.228 107.414C52.3912 107.414 51.6973 108.022 51.5684 108.819H91.0051C91.0051 106.069 88.7734 103.841 86.0232 103.841C84.7893 103.841 83.6592 104.291 82.7903 105.039C82.5508 104.347 82.2075 103.704 81.7791 103.128" stroke="#263238" stroke-width="0.5" stroke-miterlimit="10" stroke-linecap="round" stroke-linejoin="round"/>
<path d="M147.874 49.6011C148.765 49.2878 149.723 49.1172 150.721 49.1172C155.469 49.1172 159.319 52.9711 159.319 57.7191V57.7711C159.87 57.0637 160.729 56.6124 161.693 56.6124C162.518 56.6124 163.264 56.9465 163.811 57.4804C164.184 54.0952 167.048 51.4608 170.533 51.4608C174.249 51.4608 177.265 54.4554 177.3 58.1661C177.629 57.9274 178.033 57.7928 178.471 57.7928C179.487 57.7928 180.329 58.5306 180.485 59.4985H132.628C132.628 56.161 135.336 53.4572 138.674 53.4572C140.171 53.4572 141.542 54.004 142.597 54.9111C143.035 53.6481 143.757 52.5176 144.687 51.5979" stroke="#263238" stroke-width="0.5" stroke-miterlimit="10" stroke-linecap="round" stroke-linejoin="round"/>
<path d="M1 39.6098H48.8572C48.8572 36.2723 46.149 33.5685 42.8116 33.5685C41.3143 33.5685 39.9428 34.1154 38.8882 35.0224C37.7207 31.6546 34.5308 29.2285 30.7637 29.2285C26.0158 29.2285 22.1662 33.0824 22.1662 37.8304V37.8825C21.615 37.1751 20.7557 36.7237 19.7922 36.7237C18.9676 36.7237 18.2211 37.0579 17.6743 37.5917C17.301 34.2065 14.4366 31.5721 10.9516 31.5721C7.23658 31.5721 4.22028 34.5667 4.18556 38.2774C3.85572 38.0387 3.4521 37.9042 3.01376 37.9042C1.9982 37.9042 1.15624 38.642 1 39.6098Z" fill="white" stroke="#263238" stroke-width="0.5" stroke-miterlimit="10"/>
<path d="M64.7803 56.5303L66.2633 65.8053" stroke="#108ED6" stroke-width="0.5" stroke-miterlimit="10"/>
<path d="M59.1709 59.8115L65.3454 67.2924" stroke="#108ED6" stroke-width="0.5" stroke-miterlimit="10"/>
<path d="M58.1934 66.1621L63.9729 68.4228" stroke="#108ED6" stroke-width="0.5" stroke-miterlimit="10"/>
<path d="M28.8633 82.314V75.1621" stroke="#263238" stroke-width="0.5" stroke-miterlimit="10" stroke-linecap="round" stroke-linejoin="round"/>
<path d="M12.0319 82.3145H28.8633V77.0435H12.0319V82.3145Z" fill="white" stroke="#263238" stroke-width="0.5" stroke-miterlimit="10" stroke-linecap="round" stroke-linejoin="round"/>
<path d="M12.0322 82.314V75.1621" stroke="#263238" stroke-width="0.5" stroke-miterlimit="10" stroke-linecap="round" stroke-linejoin="round"/>
<path d="M71.2563 179.02H105.271L105.271 119.786H71.2563V179.02Z" fill="white" stroke="#263238" stroke-width="0.5" stroke-miterlimit="10" stroke-linecap="round" stroke-linejoin="round"/>
<path d="M37.351 179.02H71.3662L71.3662 97.8264H37.351L37.351 179.02Z" fill="white" stroke="#263238" stroke-width="0.5" stroke-miterlimit="10" stroke-linecap="round" stroke-linejoin="round"/>
<path d="M3.17232 179.02H37.1875L37.1875 82.1694H3.17232L3.17232 179.02Z" fill="white" stroke="#263238" stroke-width="0.5" stroke-miterlimit="10" stroke-linecap="round" stroke-linejoin="round"/>
<path d="M30.8613 88.2744V175.35" stroke="#108ED6" stroke-width="0.5" stroke-miterlimit="10" stroke-linecap="round" stroke-linejoin="round"/>
<path d="M23.4229 88.2744V175.35" stroke="#108ED6" stroke-width="0.5" stroke-miterlimit="10" stroke-linecap="round" stroke-linejoin="round"/>
<path d="M15.9844 88.2744V175.35" stroke="#108ED6" stroke-width="0.5" stroke-miterlimit="10" stroke-linecap="round" stroke-linejoin="round"/>
<path d="M8.5459 88.2744V175.35" stroke="#108ED6" stroke-width="0.5" stroke-miterlimit="10" stroke-linecap="round" stroke-linejoin="round"/>
<path d="M65.7188 102.016V110.119V118.218V126.321V134.42V142.523V150.627V158.726V166.829V174.933V175.087" stroke="#108ED6" stroke-width="0.5" stroke-miterlimit="10" stroke-linecap="round" stroke-linejoin="round"/>
<path d="M58.2812 102.016V110.119V118.218V126.321V134.42V142.523V150.627V158.726V166.829V174.933V175.087" stroke="#108ED6" stroke-width="0.5" stroke-miterlimit="10" stroke-linecap="round" stroke-linejoin="round"/>
<path d="M50.8379 102.016V110.119V118.218V126.321V134.42V142.523V150.627V158.726V166.829V174.933V175.087" stroke="#108ED6" stroke-width="0.5" stroke-miterlimit="10" stroke-linecap="round" stroke-linejoin="round"/>
<path d="M43.3994 102.016V110.119V118.218V126.321V134.42V142.523V150.627V158.726V166.829V174.933V175.087" stroke="#108ED6" stroke-width="0.5" stroke-miterlimit="10" stroke-linecap="round" stroke-linejoin="round"/>
<path d="M65.7192 102.016H64.2592H57.3074H50.3508H43.3994" stroke="#108ED6" stroke-width="0.5" stroke-miterlimit="10" stroke-linecap="round" stroke-linejoin="round"/>
<path d="M65.7192 110.119H64.2592H57.3074H50.3508H43.3994" stroke="#108ED6" stroke-width="0.5" stroke-miterlimit="10" stroke-linecap="round" stroke-linejoin="round"/>
<path d="M65.7192 118.218H64.2592H57.3074H50.3508H43.3994" stroke="#108ED6" stroke-width="0.5" stroke-miterlimit="10" stroke-linecap="round" stroke-linejoin="round"/>
<path d="M65.7192 126.321H64.2592H57.3074H50.3508H43.3994" stroke="#108ED6" stroke-width="0.5" stroke-miterlimit="10" stroke-linecap="round" stroke-linejoin="round"/>
<path d="M65.7192 134.42H64.2592H57.3074H50.3508H43.3994" stroke="#108ED6" stroke-width="0.5" stroke-miterlimit="10" stroke-linecap="round" stroke-linejoin="round"/>
<path d="M65.7192 142.523H64.2592H57.3074H50.3508H43.3994" stroke="#108ED6" stroke-width="0.5" stroke-miterlimit="10" stroke-linecap="round" stroke-linejoin="round"/>
<path d="M65.7192 150.627H64.2592H57.3074H50.3508H43.3994" stroke="#108ED6" stroke-width="0.5" stroke-miterlimit="10" stroke-linecap="round" stroke-linejoin="round"/>
<path d="M65.7192 158.726H64.2592H57.3074H50.3508H43.3994" stroke="#108ED6" stroke-width="0.5" stroke-miterlimit="10" stroke-linecap="round" stroke-linejoin="round"/>
<path d="M65.7192 166.829H64.2592H57.3074H50.3508H43.3994" stroke="#108ED6" stroke-width="0.5" stroke-miterlimit="10" stroke-linecap="round" stroke-linejoin="round"/>
<path d="M65.7192 174.933H64.2592H57.3074H50.3508H43.3994" stroke="#108ED6" stroke-width="0.5" stroke-miterlimit="10" stroke-linecap="round" stroke-linejoin="round"/>
<path d="M101.943 124.67H76.2305" stroke="#108ED6" stroke-width="0.5" stroke-miterlimit="10" stroke-linecap="round" stroke-linejoin="round"/>
<path d="M101.943 132.771H76.2305" stroke="#108ED6" stroke-width="0.5" stroke-miterlimit="10" stroke-linecap="round" stroke-linejoin="round"/>
<path d="M101.943 140.873H76.2305" stroke="#108ED6" stroke-width="0.5" stroke-miterlimit="10" stroke-linecap="round" stroke-linejoin="round"/>
<path d="M101.943 148.976H76.2305" stroke="#108ED6" stroke-width="0.5" stroke-miterlimit="10" stroke-linecap="round" stroke-linejoin="round"/>
<path d="M101.943 157.077H76.2305" stroke="#108ED6" stroke-width="0.5" stroke-miterlimit="10" stroke-linecap="round" stroke-linejoin="round"/>
<path d="M101.943 165.179H76.2305" stroke="#108ED6" stroke-width="0.5" stroke-miterlimit="10" stroke-linecap="round" stroke-linejoin="round"/>
<path d="M101.943 173.28H76.2305" stroke="#108ED6" stroke-width="0.5" stroke-miterlimit="10" stroke-linecap="round" stroke-linejoin="round"/>
<path d="M60.0978 178.768C59.8678 178.877 58.1969 178.938 56.066 178.972C51.7347 179.046 45.4807 179.011 45.4807 179.011C45.4807 179.011 45.1422 179.011 45.012 177.319C44.8861 175.626 45.7151 174.281 45.8106 173.573C46.2619 170.327 45.1379 168.973 45.1205 168.734C45.1205 168.491 51.2182 168.361 51.2182 168.361L53.2146 168.227L52.7806 171.082C52.7546 171.247 52.7372 171.412 52.7372 171.573C52.6547 173.634 54.0479 175.513 56.105 175.952C56.1267 175.956 56.1788 175.965 56.1962 175.969H56.2005C56.3437 175.835 58.7958 174.698 59.8114 176.269C60.3496 177.098 60.0978 178.768 60.0978 178.768Z" fill="#263238"/>
<mask id="mask0_54_4544" style="mask-type:luminance" maskUnits="userSpaceOnUse" x="44" y="168" width="17" height="12">
<path d="M60.0978 178.768C59.8678 178.877 58.1969 178.938 56.066 178.972C51.7347 179.046 45.4807 179.011 45.4807 179.011C45.4807 179.011 45.1422 179.011 45.012 177.319C44.8861 175.626 45.7151 174.281 45.8106 173.573C46.2619 170.327 45.1379 168.973 45.1205 168.734C45.1205 168.491 51.2182 168.361 51.2182 168.361L53.2146 168.227L52.7806 171.082C52.7546 171.247 52.7372 171.412 52.7372 171.573C52.6547 173.634 54.0479 175.513 56.105 175.952C56.1267 175.956 56.1788 175.965 56.1962 175.969H56.2005C56.3437 175.835 58.7958 174.698 59.8114 176.269C60.3496 177.098 60.0978 178.768 60.0978 178.768Z" fill="white"/>
</mask>
<g mask="url(#mask0_54_4544)">
<path opacity="0.2" d="M60.0978 178.768C59.8678 178.877 58.1969 178.938 56.066 178.972C51.7347 179.046 45.4807 179.011 45.4807 179.011C45.4807 179.011 45.1422 179.011 45.012 177.319C44.8861 175.626 45.7151 174.281 45.8106 173.573C46.2619 170.327 45.1379 168.973 45.1205 168.734C45.1205 168.491 51.2182 168.361 51.2182 168.361L53.2146 168.227L52.7806 171.082C52.7546 171.247 52.7372 171.412 52.7372 171.573C52.6547 173.634 54.0479 175.513 56.105 175.952C56.1267 175.956 56.1788 175.965 56.1962 175.969H56.2005C56.3437 175.835 58.7958 174.698 59.8114 176.269C60.3496 177.098 60.0978 178.768 60.0978 178.768Z" fill="#FFC2A6"/>
</g>
<mask id="mask1_54_4544" style="mask-type:luminance" maskUnits="userSpaceOnUse" x="44" y="168" width="17" height="12">
<path d="M60.0978 178.768C59.8678 178.877 58.1969 178.938 56.066 178.972C51.7347 179.046 45.4807 179.011 45.4807 179.011C45.4807 179.011 45.1422 179.011 45.012 177.319C44.8861 175.626 45.7151 174.281 45.8106 173.573C46.2619 170.327 45.1379 168.973 45.1205 168.734C45.1205 168.491 51.2182 168.361 51.2182 168.361L53.2146 168.227L52.7806 171.082C52.7546 171.247 52.7372 171.412 52.7372 171.573C52.6547 173.634 54.0479 175.513 56.105 175.952C56.1267 175.956 56.1788 175.965 56.1962 175.969H56.2005C56.3437 175.835 58.7958 174.698 59.8114 176.269C60.3496 177.098 60.0978 178.768 60.0978 178.768Z" fill="white"/>
</mask>
<g mask="url(#mask1_54_4544)">
<path opacity="0.3" d="M56.066 178.972C51.7347 179.046 45.4807 179.011 45.4807 179.011C45.4807 179.011 45.1422 179.011 45.012 177.319C44.8861 175.626 45.7151 174.281 45.8106 173.573C46.2619 170.327 45.1379 168.973 45.1205 168.734C45.1205 168.491 51.2182 168.361 51.2182 168.361L53.2146 168.227L52.7806 171.082C52.7546 171.247 52.7372 171.412 52.7372 171.573C51.3614 172.71 50.2677 173.626 50.2677 173.626C50.2677 173.626 55.8229 175.474 56.066 178.972Z" fill="black"/>
</g>
<path d="M60.0978 178.768C59.8678 178.877 58.1969 178.938 56.066 178.972C51.7347 179.046 45.4807 179.011 45.4807 179.011C45.4807 179.011 45.1422 179.011 45.012 177.319C44.8861 175.626 45.7151 174.281 45.8106 173.573C46.2619 170.327 45.1379 168.973 45.1205 168.734C45.1205 168.491 51.2182 168.361 51.2182 168.361L53.2146 168.227L52.7806 171.082C52.7546 171.247 52.7372 171.412 52.7372 171.573C52.6547 173.634 54.0479 175.513 56.105 175.952C56.1267 175.956 56.1788 175.965 56.1962 175.969H56.2005C56.3437 175.835 58.7958 174.698 59.8114 176.269C60.3496 177.098 60.0978 178.768 60.0978 178.768Z" stroke="#263238" stroke-width="0.5" stroke-linecap="round" stroke-linejoin="round"/>
<path d="M54.5118 164.494C54.7158 165.584 55.2236 165.892 54.8938 166.404C54.846 166.482 54.7983 166.573 54.7505 166.669C54.4945 167.198 54.2211 167.945 53.2142 168.227C52.0294 168.561 46.357 168.869 45.1331 168.717C43.9092 168.565 43.2148 167.406 43.1454 166.443C43.0716 165.484 43.6054 164.863 43.523 163.774C43.4405 162.689 42.5899 162.368 42.5334 161.643C42.477 160.922 43.1801 159.863 43.1714 159.139C43.1541 157.611 43.1975 159.278 43.5013 150.593C43.6705 145.641 44.8684 144.565 43.5013 138.949C43.0065 136.922 37.6943 100.228 37.6943 100.228L54.0778 101.208C54.0778 101.208 54.3382 107.458 54.6334 114.84C55.0066 124.232 55.4363 135.455 55.4493 137.981C55.4753 143.111 55.0066 150.298 54.629 156.678C54.4684 159.399 54.195 161.274 54.6377 162.311C54.6898 162.424 54.7202 162.537 54.7288 162.658C54.7853 163.37 54.3035 163.405 54.5118 164.494Z" fill="#108ED6"/>
<mask id="mask2_54_4544" style="mask-type:luminance" maskUnits="userSpaceOnUse" x="37" y="100" width="19" height="69">
<path d="M54.5118 164.494C54.7158 165.584 55.2236 165.892 54.8938 166.404C54.846 166.482 54.7983 166.573 54.7505 166.669C54.4945 167.198 54.2211 167.945 53.2142 168.227C52.0294 168.561 46.357 168.869 45.1331 168.717C43.9092 168.565 43.2148 167.406 43.1454 166.443C43.0716 165.484 43.6054 164.863 43.523 163.774C43.4405 162.689 42.5899 162.368 42.5334 161.643C42.477 160.922 43.1801 159.863 43.1714 159.139C43.1541 157.611 43.1975 159.278 43.5013 150.593C43.6705 145.641 44.8684 144.565 43.5013 138.949C43.0065 136.922 37.6943 100.228 37.6943 100.228L54.0778 101.208C54.0778 101.208 54.3382 107.458 54.6334 114.84C55.0066 124.232 55.4363 135.455 55.4493 137.981C55.4753 143.111 55.0066 150.298 54.629 156.678C54.4684 159.399 54.195 161.274 54.6377 162.311C54.6898 162.424 54.7202 162.537 54.7288 162.658C54.7853 163.37 54.3035 163.405 54.5118 164.494Z" fill="white"/>
</mask>
<g mask="url(#mask2_54_4544)">
<path opacity="0.3" d="M54.7505 166.669C54.4945 167.198 54.2211 167.945 53.2142 168.227C52.0294 168.561 46.357 168.869 45.1331 168.717C43.9092 168.565 43.2148 167.406 43.1454 166.443C43.0716 165.484 43.6054 164.863 43.523 163.774C43.4405 162.689 42.5899 162.368 42.5334 161.643C42.477 160.922 43.1801 159.863 43.1714 159.139C43.1541 157.611 43.1975 159.278 43.5013 150.593C43.6705 145.641 44.8684 144.565 43.5013 138.949C43.0065 136.922 37.6943 100.228 37.6943 100.228L54.0778 101.208C54.0778 101.208 54.3382 107.458 54.6334 114.84C52.6587 123.052 50.3671 132.087 49.5078 133.606L50.8619 135.972C50.8619 135.972 47.6243 143.484 47.6243 144.391C47.6243 145.294 48.731 153.783 49.0955 155.55C49.4557 157.316 47.6243 156.057 47.6243 157.542C47.6243 158.904 47.4767 165.558 54.7505 166.669Z" fill="black"/>
</g>
<path d="M54.5118 164.494C54.7158 165.584 55.2236 165.892 54.8938 166.404C54.846 166.482 54.7983 166.573 54.7505 166.669C54.4945 167.198 54.2211 167.945 53.2142 168.227C52.0294 168.561 46.357 168.869 45.1331 168.717C43.9092 168.565 43.2148 167.406 43.1454 166.443C43.0716 165.484 43.6054 164.863 43.523 163.774C43.4405 162.689 42.5899 162.368 42.5334 161.643C42.477 160.922 43.1801 159.863 43.1714 159.139C43.1541 157.611 43.1975 159.278 43.5013 150.593C43.6705 145.641 44.8684 144.565 43.5013 138.949C43.0065 136.922 37.6943 100.228 37.6943 100.228L54.0778 101.208C54.0778 101.208 54.3382 107.458 54.6334 114.84C55.0066 124.232 55.4363 135.455 55.4493 137.981C55.4753 143.111 55.0066 150.298 54.629 156.678C54.4684 159.399 54.195 161.274 54.6377 162.311C54.6898 162.424 54.7202 162.537 54.7288 162.658C54.7853 163.37 54.3035 163.405 54.5118 164.494Z" stroke="#263238" stroke-width="0.5" stroke-linecap="round" stroke-linejoin="round"/>
<path d="M53.2571 113.069C53.2571 113.069 51.2469 114.819 49.5352 114.495" stroke="#263238" stroke-width="0.5" stroke-linecap="round" stroke-linejoin="round"/>
<path d="M53.0562 116.351C53.0562 116.351 49.6714 115.536 49.2852 114.85" stroke="#263238" stroke-width="0.5" stroke-linecap="round" stroke-linejoin="round"/>
<path d="M48.7158 131.812C48.7158 131.812 50.546 136.596 52.5767 137.741" stroke="#263238" stroke-width="0.5" stroke-linecap="round" stroke-linejoin="round"/>
<path d="M52.6689 163.499C52.6689 163.499 48.6092 164.755 46.5725 163.839C44.5357 162.923 48.1652 165.937 51.9593 165.67" stroke="#263238" stroke-width="0.5" stroke-linecap="round" stroke-linejoin="round"/>
<path d="M46.9209 141.858C46.9209 141.858 46.9539 154.549 50.2657 157.076" stroke="#263238" stroke-width="0.5" stroke-linecap="round" stroke-linejoin="round"/>
<path d="M50.3223 170.322C50.3223 170.322 51.5887 169.796 52.7791 169.806" stroke="#263238" stroke-width="0.5" stroke-linecap="round" stroke-linejoin="round"/>
<path d="M50.4004 171.97C50.4004 171.97 51.5757 171.553 52.4237 171.36" stroke="#263238" stroke-width="0.5" stroke-linecap="round" stroke-linejoin="round"/>
<path d="M50.6201 173.544L52.5167 172.977" stroke="#263238" stroke-width="0.5" stroke-linecap="round" stroke-linejoin="round"/>
<path d="M51.542 174.832L53.1027 174.219" stroke="#263238" stroke-width="0.5" stroke-linecap="round" stroke-linejoin="round"/>
<path d="M53.3076 175.939L54.216 175.242" stroke="#263238" stroke-width="0.5" stroke-linecap="round" stroke-linejoin="round"/>
<path d="M50.7149 168.757C50.7149 168.757 50.563 173.112 51.9358 174.526C53.3085 175.939 54.7594 175.981 54.6348 176.53" stroke="#263238" stroke-width="0.5" stroke-linecap="round" stroke-linejoin="round"/>
<path d="M38.2039 168.247C38.2039 168.247 32.0654 168.376 32.0419 168.618C32.0185 168.859 32.9091 170.21 31.9013 173.451C31.6817 174.158 30.6215 175.5 30.4583 177.19C30.2951 178.88 30.6362 178.879 30.6362 178.879C30.6362 178.879 44.545 178.957 45.2928 178.636C45.2928 178.636 45.8305 176.97 45.4373 176.143C44.6557 174.498 41.7865 175.825 41.8768 175.844C41.9072 175.851 41.8165 175.831 41.7865 175.825C39.6465 175.352 38.5693 173.206 39.2975 170.964L40.2233 168.114L38.2039 168.247Z" fill="#263238"/>
<mask id="mask3_54_4544" style="mask-type:luminance" maskUnits="userSpaceOnUse" x="30" y="168" width="16" height="11">
<path d="M38.2039 168.247C38.2039 168.247 32.0654 168.376 32.0419 168.618C32.0185 168.859 32.9091 170.21 31.9013 173.451C31.6817 174.158 30.6215 175.5 30.4583 177.19C30.2951 178.88 30.6362 178.879 30.6362 178.879C30.6362 178.879 44.545 178.957 45.2928 178.636C45.2928 178.636 45.8305 176.97 45.4373 176.143C44.6557 174.498 41.7865 175.825 41.8768 175.844C41.9072 175.851 41.8165 175.831 41.7865 175.825C39.6465 175.352 38.5693 173.206 39.2975 170.964L40.2233 168.114L38.2039 168.247Z" fill="white"/>
</mask>
<g mask="url(#mask3_54_4544)">
<path opacity="0.25" d="M38.2039 168.247C38.2039 168.247 32.0654 168.376 32.0419 168.618C32.0185 168.859 32.9091 170.21 31.9013 173.451C31.6817 174.158 30.6215 175.5 30.4583 177.19C30.2951 178.88 30.6362 178.879 30.6362 178.879C30.6362 178.879 44.545 178.957 45.2928 178.636C45.2928 178.636 45.8305 176.97 45.4373 176.143C44.6557 174.498 41.7865 175.825 41.8768 175.844C41.9072 175.851 41.8165 175.831 41.7865 175.825C39.6465 175.352 38.5693 173.206 39.2975 170.964L40.2233 168.114L38.2039 168.247Z" fill="#FFC2A6"/>
</g>
<path d="M38.2039 168.247C38.2039 168.247 32.0654 168.376 32.0419 168.618C32.0185 168.859 32.9091 170.21 31.9013 173.451C31.6817 174.158 30.6215 175.5 30.4583 177.19C30.2951 178.88 30.6362 178.879 30.6362 178.879C30.6362 178.879 44.545 178.957 45.2928 178.636C45.2928 178.636 45.8305 176.97 45.4373 176.143C44.6557 174.498 41.7865 175.825 41.8768 175.844C41.9072 175.851 41.8165 175.831 41.7865 175.825C39.6465 175.352 38.5693 173.206 39.2975 170.964L40.2233 168.114L38.2039 168.247Z" stroke="#263238" stroke-width="0.5" stroke-linecap="round" stroke-linejoin="round"/>
<path d="M52.6074 101.207L36.3932 100.228C36.3932 100.228 35.3967 136.86 35.5417 138.884C35.9436 144.493 34.563 145.564 33.5401 150.509C31.7459 159.18 31.9885 157.515 31.7433 159.041C31.6266 159.765 30.7438 160.82 30.6739 161.542C30.6041 162.264 31.4013 162.584 31.2967 163.67C31.1921 164.755 30.5516 165.374 30.4591 166.334C30.3667 167.295 30.8606 168.452 32.0575 168.603C33.2545 168.754 38.9803 168.448 40.2237 168.115C41.4675 167.782 41.8017 166.807 42.2166 166.295C42.6315 165.784 42.181 165.475 42.1602 164.388C42.1394 163.302 42.6272 163.266 42.6957 162.554C42.707 162.435 42.6944 162.319 42.6658 162.206C42.3985 161.171 42.9969 159.299 43.6245 156.583C45.0966 150.214 46.8031 143.039 47.6555 137.917C48.0804 135.367 49.612 123.933 50.8606 114.495C50.8606 114.495 52.0576 112.561 52.6682 108.82" fill="#108ED6"/>
<mask id="mask4_54_4544" style="mask-type:luminance" maskUnits="userSpaceOnUse" x="30" y="100" width="23" height="69">
<path d="M52.6074 101.207L36.3932 100.228C36.3932 100.228 35.3967 136.86 35.5417 138.884C35.9436 144.493 34.563 145.564 33.5401 150.509C31.7459 159.18 31.9885 157.515 31.7433 159.041C31.6266 159.765 30.7438 160.82 30.6739 161.542C30.6041 162.264 31.4013 162.584 31.2967 163.67C31.1921 164.755 30.5516 165.374 30.4591 166.334C30.3667 167.295 30.8606 168.452 32.0575 168.603C33.2545 168.754 38.9803 168.448 40.2237 168.115C41.4675 167.782 41.8017 166.807 42.2166 166.295C42.6315 165.784 42.181 165.475 42.1602 164.388C42.1394 163.302 42.6272 163.266 42.6957 162.554C42.707 162.435 42.6944 162.319 42.6658 162.206C42.3985 161.171 42.9969 159.299 43.6245 156.583C45.0966 150.214 46.8031 143.039 47.6555 137.917C48.0804 135.367 49.612 123.933 50.8606 114.495C50.8606 114.495 52.0576 112.561 52.6682 108.82" fill="white"/>
</mask>
<g mask="url(#mask4_54_4544)">
<path opacity="0.3" d="M36.3588 101.5C36.3571 101.499 36.2139 106.973 36.2139 106.973C36.2139 106.973 40.2114 107.35 44.4416 106.973C49.8007 106.494 53.0565 104.12 53.0565 104.12L52.6078 101.207C52.6078 101.207 46.537 102.843 43.5402 102.614C40.543 102.384 37.7203 102.025 36.3588 101.5Z" fill="black"/>
</g>
<path d="M52.6074 101.207L36.3932 100.228C36.3932 100.228 35.3967 136.86 35.5417 138.884C35.9436 144.493 34.563 145.564 33.5401 150.509C31.7459 159.18 31.9885 157.515 31.7433 159.041C31.6266 159.765 30.7438 160.82 30.6739 161.542C30.6041 162.264 31.4013 162.584 31.2967 163.67C31.1921 164.755 30.5516 165.374 30.4591 166.334C30.3667 167.295 30.8606 168.452 32.0575 168.603C33.2545 168.754 38.9803 168.448 40.2237 168.115C41.4675 167.782 41.8017 166.807 42.2166 166.295C42.6315 165.784 42.181 165.475 42.1602 164.388C42.1394 163.302 42.6272 163.266 42.6957 162.554C42.707 162.435 42.6944 162.319 42.6658 162.206C42.3985 161.171 42.9969 159.299 43.6245 156.583C45.0966 150.214 46.8031 143.039 47.6555 137.917C48.0804 135.367 49.612 123.933 50.8606 114.495C50.8606 114.495 52.0576 112.561 52.6682 108.82" stroke="#263238" stroke-width="0.5" stroke-linecap="round" stroke-linejoin="round"/>
<path d="M44.6112 145.517C44.6112 145.517 39.0073 155.065 33.4717 158.185" stroke="#263238" stroke-width="0.5" stroke-linecap="round" stroke-linejoin="round"/>
<path d="M33.377 163.499C35.3829 163.753 37.3889 164.007 39.3948 164.261C39.8431 164.318 40.3904 164.491 40.3448 164.95C40.3058 165.349 39.837 165.62 39.4386 165.764C38.0407 166.267 36.5599 166.366 35.2484 166.043" stroke="#263238" stroke-width="0.5" stroke-linecap="round" stroke-linejoin="round"/>
<path d="M33.5547 160.607C35.6275 161.82 38.0783 162.493 40.651 162.557" stroke="#263238" stroke-width="0.5" stroke-linecap="round" stroke-linejoin="round"/>
<path d="M37.3283 143.229C37.3283 143.229 40.3741 143.344 41.9305 143.205C40.7708 144.795 38.9124 145.485 37.0762 145.576" stroke="#263238" stroke-width="0.5" stroke-linecap="round" stroke-linejoin="round"/>
<path d="M39.6116 104.751C39.6116 104.751 39.165 120.349 39.0209 126.835C38.8773 133.321 38.5878 140.888 38.5878 140.888C38.5878 140.888 38.073 141.668 38.3165 142.465C38.5596 143.262 38.5596 143.262 38.5596 143.262L38.4255 145.517C38.4255 145.517 37.8179 146.195 38.0257 147.017C38.2336 147.838 36.5488 153.553 36.5488 153.553L36.2563 153.933C35.6427 154.731 35.4664 155.724 35.7959 156.527L35.1935 161.421L35.1861 161.428C34.5082 162.073 34.345 163.038 34.8046 163.679L34.2374 166.228C33.6367 166.811 33.4909 167.671 33.8936 168.252L33.9921 168.394" stroke="#263238" stroke-width="0.5" stroke-linecap="round" stroke-linejoin="round"/>
<path d="M67.6901 76.0022C67.2492 76.9505 63.558 79.482 63.558 79.482C63.5541 79.065 63.6427 78.6522 63.8176 78.2738C64.0836 77.8689 64.2707 77.4761 64.4217 77.2348C64.4655 76.5747 64.2485 75.9241 63.8176 75.4224C63.3163 74.8665 62.9174 76.2622 62.7 77.1927C62.4826 78.1232 61.0265 79.5367 61.0929 80.2133C61.2157 81.0084 61.3793 81.797 61.5825 82.5756C61.5825 82.5756 55.4001 84.7478 54.7166 83.4275C53.2679 80.6304 51.6686 77.914 49.9261 75.29C48.47 77.3199 49.6179 80.1231 50.4395 83.5725C51.2611 87.0219 53.7835 91.8424 53.7835 91.8424C58.3071 89.6771 63.443 84.0139 63.443 84.0139C63.443 84.0139 64.6513 83.4761 66.1434 82.9627C67.6355 82.4493 67.418 82.0144 67.6598 80.5462C67.9015 79.078 69.1519 77.0786 69.0794 76.3173C69.0069 75.5548 68.1311 75.0535 67.6901 76.0022Z" fill="#FFC2A6" stroke="#263238" stroke-width="0.5" stroke-linecap="round" stroke-linejoin="round"/>
<path d="M53.0631 83.332C53.0066 86.4741 53.6273 97.1288 54.3 101.356L35.8919 100.891V100.582C37.2416 95.582 36.3671 90.1892 34.2361 85.4672C33.1077 82.9717 32.6065 79.7797 32.0249 76.759C30.545 69.0686 34.2587 66.6898 37.3618 66.3947C38.5597 66.3383 38.663 65.5336 39.5527 65.59C40.3512 65.6378 40.8547 65.5727 41.3234 65.373C41.7096 66.9485 43.8492 71.5749 44.5827 72.1044C45.3162 72.6339 46.3795 72.8031 47.1216 72.2867C47.8594 71.7702 48.0634 70.785 48.2327 69.8997C48.3195 69.431 48.4366 68.9362 48.6406 68.5065C49.7256 69.049 51.6178 69.6913 53.024 72.2216C54.7426 77.8071 53.8052 74.2266 55.1419 82.4206C55.3459 83.6748 53.0631 83.332 53.0631 83.332Z" fill="#FFC2A6" stroke="#263238" stroke-width="0.5" stroke-linecap="round" stroke-linejoin="round"/>
<path d="M50.1618 68.793L48.3829 68.1741C49.5911 72.3166 48.5465 77.0251 45.4942 75.1663C42.4418 73.3079 41.2323 67.9527 40.3191 65.6087C39.8404 65.4611 37.9022 65.3895 36.8966 66.1629C37.9469 68.0838 40.8044 71.9069 40.4654 75.007C40.087 78.4746 37.3562 81.563 32.2559 78.0745C32.952 83.3341 35.1572 87.1273 35.5816 88.9032C37.1332 95.3946 36.0972 96.3025 35.3715 102.727C42.7413 106.492 51.6765 104.62 55.5899 103.476C54.3968 96.9635 54.9185 80.4723 50.1618 68.793Z" fill="#108ED6"/>
<mask id="mask5_54_4544" style="mask-type:luminance" maskUnits="userSpaceOnUse" x="32" y="65" width="24" height="40">
<path d="M50.1618 68.793L48.3829 68.1741C49.5911 72.3166 48.5465 77.0251 45.4942 75.1663C42.4418 73.3079 41.2323 67.9527 40.3191 65.6087C39.8404 65.4611 37.9022 65.3895 36.8966 66.1629C37.9469 68.0838 40.8044 71.9069 40.4654 75.007C40.087 78.4746 37.3562 81.563 32.2559 78.0745C32.952 83.3341 35.1572 87.1273 35.5816 88.9032C37.1332 95.3946 36.0972 96.3025 35.3715 102.727C42.7413 106.492 51.6765 104.62 55.5899 103.476C54.3968 96.9635 54.9185 80.4723 50.1618 68.793Z" fill="white"/>
</mask>
<g mask="url(#mask5_54_4544)">
<path opacity="0.3" d="M38.916 96.4209C38.916 96.4209 50.9508 101.672 52.6677 96.5758C49.5021 97.2616 46.2528 97.3939 43.0473 96.969L38.916 96.4209Z" fill="black"/>
</g>
<mask id="mask6_54_4544" style="mask-type:luminance" maskUnits="userSpaceOnUse" x="32" y="65" width="24" height="40">
<path d="M50.1618 68.793L48.3829 68.1741C49.5911 72.3166 48.5465 77.0251 45.4942 75.1663C42.4418 73.3079 41.2323 67.9527 40.3191 65.6087C39.8404 65.4611 37.9022 65.3895 36.8966 66.1629C37.9469 68.0838 40.8044 71.9069 40.4654 75.007C40.087 78.4746 37.3562 81.563 32.2559 78.0745C32.952 83.3341 35.1572 87.1273 35.5816 88.9032C37.1332 95.3946 36.0972 96.3025 35.3715 102.727C42.7413 106.492 51.6765 104.62 55.5899 103.476C54.3968 96.9635 54.9185 80.4723 50.1618 68.793Z" fill="white"/>
</mask>
<g mask="url(#mask6_54_4544)">
<path opacity="0.3" d="M34.6533 85.0618L43.3949 78.1152C43.3949 78.1152 45.121 82.8962 40.4798 85.6291C37.3337 87.4818 34.6533 85.0618 34.6533 85.0618Z" fill="black"/>
</g>
<path d="M50.1618 68.793L48.3829 68.1741C49.5911 72.3166 48.5465 77.0251 45.4942 75.1663C42.4418 73.3079 41.2323 67.9527 40.3191 65.6087C39.8404 65.4611 37.9022 65.3895 36.8966 66.1629C37.9469 68.0838 40.8044 71.9069 40.4654 75.007C40.087 78.4746 37.3562 81.563 32.2559 78.0745C32.952 83.3341 35.1572 87.1273 35.5816 88.9032C37.1332 95.3946 36.0972 96.3025 35.3715 102.727C42.7413 106.492 51.6765 104.62 55.5899 103.476C54.3968 96.9635 54.9185 80.4723 50.1618 68.793Z" stroke="#263238" stroke-width="0.5" stroke-linecap="round" stroke-linejoin="round"/>
<path d="M52.6695 96.4023C52.5536 97.0612 52.0441 97.6002 51.4482 97.9044" stroke="#263238" stroke-width="0.5" stroke-linecap="round" stroke-linejoin="round"/>
<path d="M49.5083 98.373C45.8727 98.712 42.1429 97.9668 38.917 96.2568" stroke="#263238" stroke-width="0.5" stroke-linecap="round" stroke-linejoin="round"/>
<path d="M66.3719 68.9609L62.6195 79.0089C62.4819 79.3704 62.5227 79.781 62.7276 80.106L63.4267 81.2266C63.7683 81.7782 64.9787 81.944 65.5004 81.5851C65.6831 81.4597 65.8272 81.2809 65.9153 81.0704L69.6316 71.0311C69.8295 70.5619 69.7219 70.0108 69.3634 69.6614L68.1903 68.53C67.7329 68.0812 67.0185 68.1077 66.5941 68.589C66.499 68.697 66.4235 68.8233 66.3719 68.9609Z" fill="#263238"/>
<path d="M32.248 71.666C32.248 71.666 32.248 73.4836 33.3139 76.0169C35.1263 80.3239 42.0326 91.0393 43.5485 91.7637C45.0645 92.488 60.5448 84.1552 61.6633 83.0125C62.7817 81.8698 62.1572 80.3547 62.1572 80.3547C62.1572 80.3547 62.1385 81.4223 63.0482 81.2249C63.6223 81.1003 63.1471 79.33 63.1471 79.33C63.1471 79.33 64.1974 78.5883 63.1983 77.2147C63.1983 77.2147 64.6123 77.2147 64.5155 76.1492C64.4769 75.723 60.3105 75.6575 59.6712 76.8584C58.8939 78.3184 58.124 82.1206 58.124 82.1206C58.124 82.1206 48.0348 84.7246 45.9464 85.1113L40.4502 73.1295" fill="#FFC2A6"/>
<path d="M32.248 71.666C32.248 71.666 32.248 73.4836 33.3139 76.0169C35.1263 80.3239 42.0326 91.0393 43.5485 91.7637C45.0645 92.488 60.5448 84.1552 61.6633 83.0125C62.7817 81.8698 62.1572 80.3547 62.1572 80.3547C62.1572 80.3547 62.1385 81.4223 63.0482 81.2249C63.6223 81.1003 63.1471 79.33 63.1471 79.33C63.1471 79.33 64.1974 78.5883 63.1983 77.2147C63.1983 77.2147 64.6123 77.2147 64.5155 76.1492C64.4769 75.723 60.3105 75.6575 59.6712 76.8584C58.8939 78.3184 58.124 82.1206 58.124 82.1206C58.124 82.1206 48.0348 84.7246 45.9464 85.1113L40.4502 73.1295" stroke="#263238" stroke-width="0.5" stroke-linecap="round" stroke-linejoin="round"/>
<path d="M61.8242 83.6504C62.1367 82.8571 62.6796 82.1752 63.3827 81.6931C64.1995 81.3033 65.324 81.1853 66.212 81.013C66.212 81.013 66.9081 78.0739 67.2852 78.1529C68.4366 78.3942 67.5391 81.095 67.5391 81.095" fill="#FFC2A6"/>
<path d="M61.8242 83.6504C62.1367 82.8571 62.6796 82.1752 63.3827 81.6931C64.1995 81.3033 65.324 81.1853 66.212 81.013C66.212 81.013 66.9081 78.0739 67.2852 78.1529C68.4366 78.3942 67.5391 81.095 67.5391 81.095" stroke="#263238" stroke-width="0.5" stroke-linecap="round" stroke-linejoin="round"/>
<path d="M68.9221 77.096C68.6135 76.7869 68.1201 76.7661 67.7863 77.0478C67.2304 77.5551 66.3788 78.993 65.4727 79.7603" stroke="#263238" stroke-width="0.5" stroke-linecap="round" stroke-linejoin="round"/>
<path d="M60.8779 80.1868C61.1244 79.6391 62.8839 78.7129 63.2328 79.8999" stroke="#263238" stroke-width="0.5" stroke-linecap="round" stroke-linejoin="round"/>
<path d="M60.8535 78.7397C60.8535 78.7397 62.8898 77.6296 63.2978 79.0049" stroke="#263238" stroke-width="0.5" stroke-linecap="round" stroke-linejoin="round"/>
<path d="M61.125 77.4118C61.125 77.4118 61.9752 77.2481 62.1579 77.2299C62.8345 77.1622 63.5663 77.0771 63.9295 77.0771" stroke="#263238" stroke-width="0.5" stroke-linecap="round" stroke-linejoin="round"/>
<path d="M50.8611 114.495C50.8611 114.495 48.1512 112.102 46.5723 111.645L50.8611 114.495Z" fill="#108ED6"/>
<path d="M50.8611 114.495C50.8611 114.495 48.1512 112.102 46.5723 111.645" stroke="#263238" stroke-width="0.5" stroke-linecap="round" stroke-linejoin="round"/>
<path d="M37.167 170.349C37.167 170.349 38.4785 169.813 39.6686 169.823" stroke="#263238" stroke-width="0.5" stroke-linecap="round" stroke-linejoin="round"/>
<path d="M37.1025 172.023C37.1025 172.023 38.3138 171.599 39.1784 171.403" stroke="#263238" stroke-width="0.5" stroke-linecap="round" stroke-linejoin="round"/>
<path d="M37.1865 173.623L39.1326 173.046" stroke="#263238" stroke-width="0.5" stroke-linecap="round" stroke-linejoin="round"/>
<path d="M37.998 174.932L39.6117 174.309" stroke="#263238" stroke-width="0.5" stroke-linecap="round" stroke-linejoin="round"/>
<path d="M39.6689 176.058L40.6372 175.35" stroke="#263238" stroke-width="0.5" stroke-linecap="round" stroke-linejoin="round"/>
<path d="M37.6943 168.757C37.6943 168.757 37.167 173.185 38.4178 174.621C39.6686 176.058 41.116 176.101 40.9441 176.659" stroke="#263238" stroke-width="0.5" stroke-linecap="round" stroke-linejoin="round"/>
<path d="M48.2155 67.9926C48.2155 67.9926 50.0461 75.1341 47.1067 75.6757C43.103 76.4131 40.3193 65.6039 40.3193 65.6039C40.9326 65.5622 41.0046 65.3084 41.5376 65.002C41.5376 65.002 46.0152 73.9354 48.2155 67.9926Z" fill="#263238"/>
<path d="M36.0347 66.638C36.0347 66.638 31.8462 67.4704 31.8301 73.6961C31.8141 79.8767 34.5774 85.1125 34.5774 85.1125C34.5774 85.1125 37.8489 84.8456 39.9143 83.3336C44.2456 80.1623 43.5495 78.3833 43.5495 78.3833L41.2757 73.8776C41.2757 73.8776 40.531 70.9936 37.2842 66.3945L36.0347 66.638Z" fill="#263238"/>
<path d="M50.4209 69.0391C52.702 75.5209 52.8049 77.9443 53.2176 80.935C53.2176 80.935 55.4549 80.4858 55.796 80.0067C55.796 80.0067 54.7114 74.7036 53.5392 71.9607C52.7957 70.2217 51.8123 69.6059 50.4209 69.0391Z" fill="#263238"/>
<path d="M48.2101 61.6828C48.2101 61.6828 47.8829 67.6191 47.9059 68.0956C47.9441 68.9962 48.5955 70.1888 47.9957 70.8606C47.3916 71.5333 46.3179 71.6128 45.4829 71.2656C44.6474 70.9184 44.0086 70.2305 43.4335 69.5322C42.4054 68.2718 41.504 66.9056 40.7666 65.4608C40.9749 65.3046 41.5482 64.6262 41.8277 63.7252C41.8277 63.7252 41.941 63.2222 41.9488 63.1984C42.122 62.0027 42.0586 60.7111 41.8976 59.5185C41.5777 57.1015 40.8525 55.083 40.8525 55.083L48.2101 61.6828Z" fill="#FFC2A6" stroke="#263238" stroke-width="0.5" stroke-linecap="round" stroke-linejoin="round"/>
<path d="M42.04 67.3506C43.3169 67.7859 44.2448 68.1986 45.0147 68.6183L42.04 67.3506Z" fill="#263238"/>
<path d="M42.04 67.3506C43.3169 67.7859 44.2448 68.1986 45.0147 68.6183" stroke="#263238" stroke-width="0.5" stroke-linecap="round" stroke-linejoin="round"/>
<path d="M41.1303 47.3226C41.1303 47.3226 37.4335 49.4366 39.35 54.9536C41.2666 60.4706 45.5263 66.6317 49.3941 65.8062C53.2619 64.9808 54.2662 57.2972 52.2185 52.1756C50.1709 47.054 44.9686 44.2139 41.1303 47.3226Z" fill="#FFC2A6" stroke="#263238" stroke-width="0.5" stroke-linecap="round" stroke-linejoin="round"/>
<path d="M52.1593 57.503C52.1866 57.9574 52.0087 58.3393 51.7661 58.3537C51.5234 58.368 51.3017 58.0104 51.2743 57.556C51.247 57.1016 51.4193 56.7262 51.668 56.7114C51.9162 56.6962 52.1319 57.0482 52.1593 57.503Z" fill="#263238"/>
<path d="M48.3875 57.3259C48.4144 57.7742 48.2425 58.1557 47.9999 58.17C47.7573 58.1844 47.5355 57.8268 47.5086 57.3784C47.4817 56.9301 47.6532 56.5425 47.9018 56.5278C48.1501 56.513 48.3597 56.8654 48.3875 57.3259Z" fill="#263238"/>
<path d="M49.8074 48.2712C47.3297 45.8612 43.9557 45.113 41.2602 47.2977C41.2602 47.2977 37.5634 49.4117 39.4799 54.9288C39.9425 56.2455 40.5037 57.5254 41.1582 58.7575L41.228 58.8178C41.228 58.8178 40.0137 57.6074 44.8337 54.9439C46.4161 54.0473 48.7575 48.4739 49.8074 48.2712Z" fill="#263238" stroke="#263238" stroke-width="0.5" stroke-linecap="round" stroke-linejoin="round"/>
<path d="M45.9365 50.0707C45.9365 50.0707 46.2768 46.2272 48.9489 46.0965C50.3416 46.0284 52.1831 47.8981 52.4114 48.8854C52.7269 50.2499 53.795 51.3119 55.1699 51.5758C55.1699 51.5758 54.3948 54.1854 52.8883 54.3699C50.4015 54.6746 49.1134 54.0926 47.5098 51.9C47.0502 51.2716 46.5598 50.6657 45.9969 50.128L45.9365 50.0707Z" fill="#263238" stroke="#263238" stroke-width="0.5" stroke-linecap="round" stroke-linejoin="round"/>
<path d="M41.9546 57.4573C41.9546 57.4573 40.4924 54.444 39.1908 57.7624C38.381 59.8269 41.6247 61.4783 42.7371 60.9337" fill="#FFC2A6"/>
<path d="M41.9546 57.4573C41.9546 57.4573 40.4924 54.444 39.1908 57.7624C38.381 59.8269 41.6247 61.4783 42.7371 60.9337" stroke="#263238" stroke-width="0.5" stroke-linecap="round" stroke-linejoin="round"/>
<path d="M50.6607 55.6348C50.1616 56.1864 49.9589 56.945 50.1169 57.672C50.2284 58.4605 50.4945 59.2192 50.899 59.9049L49.0449 60.5082" stroke="#263238" stroke-width="0.5" stroke-linecap="round" stroke-linejoin="round"/>
<path d="M47.3936 61.8574C47.9925 62.4468 48.8757 62.6421 49.6673 62.36" stroke="#263238" stroke-width="0.5" stroke-linecap="round" stroke-linejoin="round"/>
<path d="M45.3359 55.5832C45.3359 55.5832 46.6293 54.1419 48.2095 54.835" stroke="#263238" stroke-width="0.5" stroke-linecap="round" stroke-linejoin="round"/>
<path d="M51.3809 55.1979C51.3809 55.1979 53.0847 54.6685 52.8686 56.1705" stroke="#263238" stroke-width="0.5" stroke-linecap="round" stroke-linejoin="round"/>
<path d="M41.9275 59.1105C41.6294 59.1609 41.3577 58.9109 41.2314 58.6362C41.1051 58.3615 41.0708 58.0516 40.9441 57.7773C40.8173 57.503 40.5448 57.253 40.2471 57.3047" fill="#263238"/>
<path d="M41.9275 59.1105C41.6294 59.1609 41.3577 58.9109 41.2314 58.6362C41.1051 58.3615 41.0708 58.0516 40.9441 57.7773C40.8173 57.503 40.5448 57.253 40.2471 57.3047" stroke="#263238" stroke-width="0.5" stroke-linecap="round" stroke-linejoin="round"/>
<path d="M47.3389 47.2046C47.1475 46.4295 46.8472 45.6817 46.4492 44.9895C46.4523 45.0051 47.1562 44.8085 47.5455 44.7256C47.4821 45.4864 47.4019 46.4438 47.3389 47.2046Z" fill="#263238" stroke="#263238" stroke-width="0.5" stroke-linecap="round" stroke-linejoin="round"/>
<path d="M48.0818 65.636L48.1104 66.951C47.8734 67.0634 47.5744 67.1159 47.1981 67.073C45.532 66.8803 43.8507 63.1856 43.7478 62.9556C43.747 62.9517 43.7431 62.9521 43.7422 62.9482C43.7569 62.9582 43.7682 62.973 43.7786 62.9838C45.7555 65.1534 47.2155 65.6221 48.0818 65.636Z" fill="#263238"/>
<path d="M104.383 78.1279H115.35" stroke="#263238" stroke-width="0.5" stroke-linecap="round" stroke-linejoin="round"/>
<path d="M91.8008 78.1279H102.939" stroke="#263238" stroke-width="0.5" stroke-linecap="round" stroke-linejoin="round"/>
<path d="M85.8701 78.1279H89.2935" stroke="#263238" stroke-width="0.5" stroke-linecap="round" stroke-linejoin="round"/>
<path d="M94.876 84.084H115.306" stroke="#263238" stroke-width="0.5" stroke-linecap="round" stroke-linejoin="round"/>
<path d="M89.2939 84.084H91.8012" stroke="#263238" stroke-width="0.5" stroke-linecap="round" stroke-linejoin="round"/>
<path d="M104.02 90.0391H115.262" stroke="#263238" stroke-width="0.5" stroke-linecap="round" stroke-linejoin="round"/>
<path d="M92.7168 90.0391H102.355" stroke="#263238" stroke-width="0.5" stroke-linecap="round" stroke-linejoin="round"/>
<path d="M102.478 95.9951H115.218" stroke="#263238" stroke-width="0.5" stroke-linecap="round" stroke-linejoin="round"/>
<path d="M96.1406 95.9951H100.67" stroke="#263238" stroke-width="0.5" stroke-linecap="round" stroke-linejoin="round"/>
<path d="M139.948 96.2122H108.017L109.618 77.9043H141.55L139.948 96.2122Z" fill="white" stroke="#263238" stroke-width="0.5" stroke-miterlimit="10" stroke-linecap="round" stroke-linejoin="round"/>
<path d="M141.55 77.9043H109.619" stroke="#263238" stroke-width="0.5" stroke-miterlimit="10" stroke-linecap="round" stroke-linejoin="round"/>
<path d="M139.948 96.2116H108.016L118.931 85.8477L124.477 90.5761L130.969 85.7578L139.948 96.2116Z" fill="white" stroke="#263238" stroke-width="0.5" stroke-miterlimit="10" stroke-linecap="round" stroke-linejoin="round"/>
<path d="M141.55 77.9043L130.968 85.7575L124.477 90.5758L118.93 85.8474L109.617 77.9043H141.55Z" fill="white" stroke="#263238" stroke-width="0.5" stroke-miterlimit="10" stroke-linecap="round" stroke-linejoin="round"/>
<path d="M82.8129 78.1279H74.7969" stroke="#263238" stroke-width="0.5" stroke-linecap="round" stroke-linejoin="round"/>
<path d="M113.529 57.1535C107.128 62.3724 95.3209 65.5406 95.3209 65.5406L101.273 59.1655V59.1612C95.8035 57.3991 91.8467 52.2688 91.8467 46.2111C91.8467 38.3765 98.4695 32.0896 106.423 32.6434C113.229 33.1173 118.697 38.7076 119.033 45.5227C119.266 50.2499 117.087 54.4792 113.617 57.0871" fill="white"/>
<path d="M113.529 57.1535C107.128 62.3724 95.3209 65.5406 95.3209 65.5406L101.273 59.1655V59.1612C95.8035 57.3991 91.8467 52.2688 91.8467 46.2111C91.8467 38.3765 98.4695 32.0896 106.423 32.6434C113.229 33.1173 118.697 38.7076 119.033 45.5227C119.266 50.2499 117.087 54.4792 113.617 57.0871" stroke="#263238" stroke-width="0.5" stroke-miterlimit="10" stroke-linecap="round" stroke-linejoin="round"/>
<path d="M113.853 40.3477C116.065 40.3477 117.858 38.5544 117.858 36.3423C117.858 34.1302 116.065 32.3369 113.853 32.3369C111.641 32.3369 109.848 34.1302 109.848 36.3423C109.848 38.5544 111.641 40.3477 113.853 40.3477Z" fill="#108ED6" stroke="#263238" stroke-width="0.5" stroke-linecap="round" stroke-linejoin="round"/>
<path d="M111.531 35.4496L113.853 38.061L119.134 31.8114L118.949 31.6152L113.853 35.9982L112.503 34.5287L111.531 35.4496Z" fill="#263238" stroke="#263238" stroke-width="0.5" stroke-linecap="round" stroke-linejoin="round"/>
<path d="M98.4043 42.915H113.361" stroke="#263238" stroke-width="0.5" stroke-miterlimit="10" stroke-linecap="round" stroke-linejoin="round"/>
<path d="M98.0664 46.7773H113.023" stroke="#263238" stroke-width="0.5" stroke-miterlimit="10" stroke-linecap="round" stroke-linejoin="round"/>
<path d="M97.7285 50.6406H112.685" stroke="#263238" stroke-width="0.5" stroke-miterlimit="10" stroke-linecap="round" stroke-linejoin="round"/>
<path d="M144.84 8.83372V15.6805L163.576 1.23828L144.84 8.83372Z" fill="#108ED6" stroke="#263238" stroke-width="0.5" stroke-miterlimit="10" stroke-linecap="round" stroke-linejoin="round"/>
<path d="M144.84 8.8337L164.007 1L137.837 3.71424L144.84 8.8337Z" fill="#108ED6" stroke="#263238" stroke-width="0.5" stroke-miterlimit="10" stroke-linecap="round" stroke-linejoin="round"/>
<path d="M147.094 10.2507L156.118 16.9274L164.007 1L147.094 10.2507Z" fill="#108ED6" stroke="#263238" stroke-width="0.5" stroke-miterlimit="10" stroke-linecap="round" stroke-linejoin="round"/>
<path d="M147.094 10.251L144.84 15.6808L149.64 12.135L147.094 10.251Z" fill="#108ED6" stroke="#263238" stroke-width="0.5" stroke-miterlimit="10" stroke-linecap="round" stroke-linejoin="round"/>
<path d="M73.0439 67.6457C73.0939 67.509 73.1433 67.3727 73.1919 67.2373" stroke="#263238" stroke-width="0.5" stroke-linecap="round" stroke-linejoin="round"/>
<path d="M73.7598 65.5991C77.7968 53.5452 77.0716 46.3035 83.6233 34.6267C84.9474 32.267 91.5186 21.0954 100.887 17.1131C105.756 15.0433 108.856 18.1334 107.601 20.3177C104.802 25.1907 94.5206 19.3516 104.802 13.5885C114.312 8.25772 134.563 18.6781 144.056 15.6891" stroke="#263238" stroke-width="0.5" stroke-linecap="round" stroke-linejoin="round" stroke-dasharray="2 3.99"/>
<path d="M144.869 15.3888C145.003 15.3315 145.134 15.2703 145.262 15.2061" stroke="#263238" stroke-width="0.5" stroke-linecap="round" stroke-linejoin="round"/>
</svg>
