<svg width="544" height="322" viewBox="0 0 544 322" fill="none" xmlns="http://www.w3.org/2000/svg">
<g clip-path="url(#clip0_34_3515)">
<path d="M492.738 321.624H514.439" stroke="#263238" stroke-miterlimit="10"/>
<path d="M31.958 321.624H488.282" stroke="#263238" stroke-miterlimit="10"/>
<path d="M60.8123 75.3867C58.3251 76.8472 57.3858 79.6627 56.9349 81.0177C56.3188 82.8847 54.1397 79.7681 49.7889 81.3264C45.4382 82.8847 44.807 86.3175 43.8752 87.251C42.9435 88.1845 36.7217 90.6763 36.7217 90.6763H99.1348" stroke="#263238" stroke-linecap="round" stroke-linejoin="round"/>
<path d="M102.238 90.6759H109.805C109.805 90.6759 111.045 83.8178 108.25 80.3925C105.455 76.9672 99.2327 81.9508 97.3617 76.9672C97.3617 76.9672 91.7636 68.867 84.9256 68.2421C78.0877 67.6173 75.2849 72.9171 73.1058 75.7176C70.9266 78.518 69.6868 74.4754 64.4043 74.4754" stroke="#263238" stroke-linecap="round" stroke-linejoin="round"/>
<path d="M72.3763 85.1128C71.6072 85.8482 71.1004 86.8162 70.9336 87.8681" stroke="#263238" stroke-linecap="round" stroke-linejoin="round"/>
<path d="M96.1216 79.7679C96.1216 79.7679 91.7634 75.4091 86.789 75.7178C81.8145 76.0265 83.6781 81.9511 81.529 83.818C79.3799 85.685 76.8627 83.2007 74.0674 84.1342" stroke="#263238" stroke-linecap="round" stroke-linejoin="round"/>
<path d="M229.799 6.31592C227.748 7.52042 226.974 9.8466 226.606 10.9608C226.095 12.504 224.299 9.92941 220.707 11.2167C217.115 12.504 216.604 15.3497 215.815 16.1025C215.026 16.8553 209.909 18.933 209.909 18.933H261.382" stroke="#263238" stroke-linecap="round" stroke-linejoin="round"/>
<path d="M263.975 18.9181H270.212C270.212 18.9181 271.234 13.2645 268.927 10.434C266.62 7.60339 261.488 11.7213 259.947 7.61092C259.947 7.61092 255.333 0.933481 249.69 0.414041C244.047 -0.105399 241.74 4.26843 239.922 6.57957C238.103 8.8907 237.119 5.56327 232.761 5.56327" stroke="#263238" stroke-linecap="round" stroke-linejoin="round"/>
<path d="M239.336 14.3262C238.707 14.9308 238.29 15.7231 238.148 16.5846" stroke="#263238" stroke-linecap="round" stroke-linejoin="round"/>
<path d="M258.924 9.92193C258.924 9.92193 255.333 6.32349 251.23 6.57944C247.127 6.8354 248.66 11.7211 246.864 13.2644C245.068 14.8077 243.024 12.7525 240.71 13.5204" stroke="#263238" stroke-linecap="round" stroke-linejoin="round"/>
<path d="M459.043 76.3276C456.992 77.5246 456.218 79.8508 455.85 80.965C455.339 82.5082 453.543 79.9411 449.951 81.2209C446.359 82.5007 445.848 85.3614 445.074 86.1142C444.3 86.867 439.176 88.9372 439.176 88.9372H490.648" stroke="#263238" stroke-linecap="round" stroke-linejoin="round"/>
<path d="M493.211 88.9598H499.448C499.448 88.9598 500.477 83.3062 498.17 80.4831C495.864 77.6601 490.731 81.7704 489.153 77.6526C489.153 77.6526 484.54 70.9751 478.896 70.4632C473.253 69.9513 470.946 74.3176 469.128 76.6287C467.309 78.9399 466.303 75.5974 461.944 75.5974" stroke="#263238" stroke-linecap="round" stroke-linejoin="round"/>
<path d="M468.58 84.375C467.949 84.9783 467.532 85.7712 467.393 86.6334" stroke="#263238" stroke-linecap="round" stroke-linejoin="round"/>
<path d="M488.169 79.9712C488.169 79.9712 484.577 76.3728 480.474 76.6288C476.371 76.8847 477.904 81.7705 476.108 83.3062C474.312 84.8419 472.261 82.7943 469.954 83.5622" stroke="#263238" stroke-linecap="round" stroke-linejoin="round"/>
<path d="M440.379 183.332L423.6 145.172L378.214 165.205L367.476 140.776L362.006 22.6372L395.211 7.97998L439.868 109.542L454.258 103.196L464.733 127.015L450.343 133.368L467.13 171.528L440.379 183.332ZM390.244 131.449L413.118 121.346L382.58 51.8915L390.244 131.449Z" fill="#263238" stroke="#263238" stroke-miterlimit="10"/>
<path d="M436.735 184.996L419.955 146.836L374.569 166.861L363.847 142.432L358.361 24.2933L391.567 9.64355L436.224 111.205L450.613 104.852L461.088 128.678L446.706 135.047L463.485 173.214L436.735 184.996ZM386.6 133.105L409.473 123.002L378.935 53.5475L386.6 133.105Z" fill="#1F51C6" stroke="#263238" stroke-miterlimit="10"/>
<path d="M297.849 216.576C288.201 218.353 279.807 217.658 272.669 214.491C265.439 211.248 259.326 205.937 255.101 199.224C250.532 192.198 247.331 183.704 245.498 173.741L231.01 94.9747C229.122 84.7063 228.986 75.4217 230.604 67.1207C232.222 58.8197 235.809 51.9139 241.365 46.4033C246.91 40.8827 254.64 37.2115 264.554 35.3897C274.332 33.5879 282.761 34.2755 289.839 37.4524C296.917 40.6292 302.678 45.8111 307.122 52.9979C311.585 60.1747 314.761 68.8973 316.65 79.1657L331.137 157.932C332.971 167.915 333.001 176.996 331.227 185.177C329.674 192.955 325.86 200.101 320.264 205.713C314.704 211.224 307.232 214.845 297.849 216.576ZM292.461 187.066C296.033 186.404 298.385 184.697 299.517 181.947C300.692 178.968 301.222 175.774 301.073 172.574C301.002 169.361 300.688 166.157 300.133 162.991L285.856 85.5269C285.231 82.1903 284.388 78.8985 283.332 75.6726C282.377 72.5518 280.762 69.6735 278.598 67.2336C276.544 65.0003 273.668 64.2223 269.971 64.8999C266.274 65.5774 263.83 67.334 262.637 70.1696C261.42 73.2117 260.906 76.4907 261.135 79.7604C261.284 83.1544 261.661 86.5346 262.262 89.8782L276.501 167.342C277.106 170.501 277.95 173.609 279.026 176.64C280.04 179.708 281.747 182.501 284.015 184.8C286.19 186.948 289.005 187.703 292.461 187.066Z" fill="#263238" stroke="#263238" stroke-miterlimit="10"/>
<path d="M293.544 217.57C283.895 219.357 275.499 218.662 268.356 215.485C261.129 212.24 255.02 206.928 250.795 200.218C246.227 193.191 243.025 184.697 241.192 174.735L226.705 95.9683C224.821 85.7 224.686 76.4153 226.299 68.1143C227.912 59.8133 231.494 52.9075 237.044 47.3969C242.59 41.8763 250.319 38.2051 260.233 36.3833C270.007 34.5816 278.435 35.2717 285.518 38.4536C292.602 41.6354 298.363 46.8148 302.801 53.9916C307.265 61.1734 310.441 69.8985 312.329 80.1668L326.809 158.926C328.643 168.908 328.673 177.99 326.899 186.17C325.339 193.951 321.517 201.096 315.913 206.707C310.383 212.217 302.926 215.838 293.544 217.57ZM288.118 188.06C291.69 187.402 294.042 185.698 295.174 182.948C296.348 179.967 296.878 176.77 296.73 173.568C296.66 170.354 296.343 167.15 295.783 163.985L281.543 86.5206C280.918 83.1832 280.072 79.8912 279.011 76.6663C278.06 73.5454 276.448 70.6669 274.285 68.2272C272.231 65.9939 269.355 65.216 265.658 65.8935C261.961 66.5711 259.517 68.3276 258.324 71.1632C257.11 74.2062 256.596 77.4845 256.822 80.754C256.985 84.1452 257.366 87.5223 257.964 90.8643L272.241 168.321C272.844 171.48 273.688 174.588 274.766 177.618C275.757 180.688 277.442 183.488 279.687 185.801C281.867 187.939 284.677 188.692 288.118 188.06Z" fill="#1F51C6" stroke="#263238" stroke-miterlimit="10"/>
<path d="M125.397 197.229L134.955 156.645L86.6914 145.232L92.8155 119.238L159.504 21.6733L194.821 30.022L169.37 138.058L184.677 141.671L178.703 167.011L163.404 163.398L153.839 203.982L125.397 197.229ZM116.628 125.554L140.929 131.283L158.325 57.4168L116.628 125.554Z" fill="#263238" stroke="#263238" stroke-miterlimit="10"/>
<path d="M121.505 196.371L131.071 155.787L82.8145 144.374L88.931 118.387L155.62 20.8076L190.937 29.1638L165.471 137.17L180.77 140.791L174.804 166.13L159.497 162.509L149.939 203.093L121.505 196.371ZM112.706 124.696L137.037 130.447L154.44 56.5737L112.706 124.696Z" fill="#1F51C6" stroke="#263238" stroke-miterlimit="10"/>
<path d="M392.093 204.306C392.093 204.306 389.418 222.215 390.425 228.245C391.432 234.275 404.792 261.053 404.792 261.053V264.734L394.595 269.755L397.601 276.613L401.779 275.612L397.766 294.696L406.453 296.533L417.649 272.096C417.649 272.096 437.028 266.074 437.359 264.568C437.689 263.063 434.188 239.793 434.188 239.793C434.188 239.793 429.844 218.715 427.004 211.676C425.127 207.103 423.01 202.632 420.662 198.283L392.093 204.306Z" fill="#263238" stroke="#263238" stroke-miterlimit="10"/>
<path d="M402.116 229.916L408.804 231.926L419.158 258.711L406.459 264.568" stroke="white" stroke-miterlimit="10"/>
<path d="M415.815 272.932L404.288 275.28" stroke="white" stroke-miterlimit="10"/>
<path d="M382.504 160.326L373.172 167.621L370.917 163.104L364.696 166.605C364.696 166.605 364.463 186.366 366.131 187.164C367.799 187.962 388.275 175.872 388.275 175.872C388.275 175.872 389.643 197.621 389.305 200.873C388.967 204.125 391.183 205.668 392.724 205.495C394.264 205.322 423.314 201.558 423.998 200.707C424.872 199.397 425.238 197.812 425.027 196.25C424.682 194.88 418.362 171.076 418.362 171.076C418.362 171.076 435.645 173.817 436.306 172.281C436.967 170.745 442.115 156.013 442.115 156.013L433.398 153.958L430.152 158.919C430.152 158.919 411.524 151.217 405.543 151.217C399.562 151.217 384.383 158.956 382.504 160.326Z" fill="#108ED6" stroke="#263238" stroke-miterlimit="10"/>
<path d="M430.189 158.964L434.593 160.748" stroke="#263238" stroke-miterlimit="10"/>
<path d="M407.752 169.646L418.4 171.121L406.745 172.868" stroke="#263238" stroke-miterlimit="10"/>
<path d="M367.784 173.764L366.371 175.375" stroke="#263238" stroke-miterlimit="10"/>
<path d="M373.171 167.628L369.219 172.13" stroke="#263238" stroke-miterlimit="10"/>
<path d="M413.763 179.771C410.044 185.041 402.394 195.407 397.465 198.72" stroke="#263238" stroke-miterlimit="10"/>
<path d="M415.928 176.64C415.928 176.64 415.537 177.219 414.854 178.205" stroke="#263238" stroke-miterlimit="10"/>
<path d="M397.547 196.213C396.584 197.248 395.544 198.209 394.437 199.089" stroke="#263238" stroke-miterlimit="10"/>
<path d="M404.423 188.143C404.423 188.143 401.538 191.907 398.532 195.136" stroke="#263238" stroke-miterlimit="10"/>
<path d="M364.733 166.605L363.907 147.845C363.907 147.845 360.548 141.408 360.473 140.904C360.861 138.257 361.403 135.635 362.096 133.052C362.456 131.96 364.35 133.052 365.319 135.002C366.289 136.952 365.815 139.601 365.815 139.601C365.815 139.601 368.024 142.914 368.415 144.412C368.592 145.651 368.479 146.913 368.085 148.101L370.955 163.082L364.733 166.605Z" fill="#F08D5F" stroke="#263238" stroke-miterlimit="10"/>
<path d="M363.688 132.962C363.549 132.986 363.415 133.038 363.296 133.115C363.176 133.192 363.073 133.292 362.993 133.409C362.912 133.526 362.856 133.658 362.827 133.797C362.798 133.936 362.797 134.08 362.824 134.219C363.05 135.235 364.124 139.263 363.966 140.415" stroke="#263238" stroke-miterlimit="10"/>
<path d="M433.436 153.19C433.436 153.19 446.413 131.102 447.6 130.462C448.787 129.823 457.872 130.063 457.872 130.063C457.872 130.063 461.373 125.2 461.847 125.757L462.328 126.322C462.328 126.322 463.598 125.569 463.996 125.998L464.394 126.397C464.394 126.397 465.273 125.682 465.747 125.923C466.22 126.164 466.228 126.879 466.228 126.879C466.228 126.879 467.182 126.322 466.979 127.353C466.776 128.385 463.793 133.496 462.606 134.211C461.419 134.927 449.23 134.964 449.23 134.964L442.625 154.582L433.436 153.19Z" fill="#F08D5F" stroke="#263238" stroke-miterlimit="10"/>
<path d="M462.328 126.322C462.328 126.322 459.323 131.983 458.669 132.54" stroke="#263238" stroke-miterlimit="10"/>
<path d="M464.395 126.397L460.66 133.255" stroke="#263238" stroke-miterlimit="10"/>
<path d="M466.228 126.879L462.644 132.939" stroke="#263238" stroke-miterlimit="10"/>
<path d="M362.531 165.717L364.357 171.167L373.765 164.595L371.503 159.739L362.531 165.717Z" fill="#F08D5F" stroke="#263238" stroke-miterlimit="10"/>
<path d="M418.911 131.388C418.891 133.472 418.603 135.544 418.054 137.554C417.198 140.294 419.595 142.688 418.911 143.576C418.039 144.39 417.06 145.081 416.003 145.631C416.003 145.631 414.981 150.254 413.268 150.901C411.554 151.548 406.775 149.531 406.775 149.531C406.775 149.531 402.5 144.05 405.408 139.263C408.316 134.475 418.911 131.388 418.911 131.388Z" fill="#F08D5F" stroke="#263238" stroke-miterlimit="10"/>
<path d="M415.83 139.88C415.627 140.52 415.252 140.964 414.996 140.881C414.741 140.799 414.688 140.219 414.891 139.579C415.094 138.939 415.47 138.495 415.725 138.578C415.98 138.661 416.033 139.248 415.83 139.88Z" fill="#263238"/>
<path d="M414.402 136.65C414.669 136.26 415.072 135.986 415.532 135.881C415.991 135.776 416.474 135.849 416.882 136.086" stroke="#263238" stroke-miterlimit="10"/>
<path d="M411.938 143.689C412.156 144.31 412.554 144.851 413.082 145.243C413.61 145.634 414.242 145.859 414.898 145.888" stroke="#263238" stroke-miterlimit="10"/>
<path d="M422.503 123.341C422.503 123.341 424.382 127.797 422.157 130.703C419.933 133.609 414.297 133.79 410.886 138.231C407.475 142.673 408.835 148.507 409.691 150.389C410.548 152.271 409.173 159.468 406.783 160.492C404.394 161.516 400.456 162.208 401.523 164.602C402.59 166.996 403.74 171.107 402.718 173.162C401.696 175.217 395.204 178.815 390.072 176.926C384.939 175.036 385.112 171.272 386.48 168.705C387.847 166.138 385.112 167.335 382.204 163.225C379.296 159.114 375.712 151.933 380.326 148.327C384.939 144.721 388.531 143.531 388.877 140.106C389.222 136.681 387.457 128.55 391.883 125.125C396.308 121.7 398.841 122.513 398.841 122.513C398.841 122.513 403.041 117.845 407.662 117.845C412.284 117.845 414.155 120.759 414.155 120.759C414.155 120.759 419.933 116.151 422.503 123.341Z" fill="#263238" stroke="#263238" stroke-miterlimit="10"/>
<path d="M432.759 151.255L431.219 155.192L442.325 159.129L443.865 152.964L432.759 151.255Z" fill="#F08D5F" stroke="#263238" stroke-miterlimit="10"/>
<path d="M394.594 269.755C394.594 269.755 372.63 277.471 372.901 279.06C373.171 280.648 378.326 294.583 380.415 296.841C382.504 299.099 383.466 300.424 383.857 298.565C384.247 296.706 383.729 294.455 383.729 293.521C383.729 292.588 384.788 281.981 385.187 281.476C385.585 280.972 397.578 276.636 397.578 276.636L394.594 269.755Z" fill="#F08D5F" stroke="#263238" stroke-miterlimit="10"/>
<path d="M381.64 282.515L379.175 275.62C375.584 277.125 372.803 278.495 372.901 279.06C373.164 280.656 378.326 294.583 380.415 296.841C382.504 299.1 383.466 300.425 383.857 298.565C384.247 296.706 383.729 294.455 383.729 293.521C383.729 292.588 384.788 281.981 385.187 281.477L381.64 282.515Z" fill="#263238" stroke="#263238" stroke-miterlimit="10"/>
<path d="M397.774 294.696C397.774 294.696 391.499 316.354 391.702 317.536C391.905 318.718 397.886 320.547 400.178 321.232C402.47 321.917 408.301 321.654 409.856 321.022C411.412 320.389 412.389 319.14 411.164 318.68C409.939 318.221 406.573 317.378 406.573 317.378L401.658 310.904L406.46 296.533L397.774 294.696Z" fill="#F08D5F" stroke="#263238" stroke-miterlimit="10"/>
<path d="M411.187 318.68C409.962 318.229 406.595 317.378 406.595 317.378L401.681 310.904L400.539 313.915L393.025 311.529C392.221 314.939 391.627 317.152 391.695 317.551C391.905 318.733 397.879 320.562 400.171 321.247C402.463 321.932 408.294 321.669 409.849 321.037C411.404 320.404 412.389 319.14 411.187 318.68Z" fill="#263238" stroke="#263238" stroke-miterlimit="10"/>
<path d="M245.467 118.251C245.467 118.251 252.11 124.214 253.079 124.214C254.049 124.214 255.018 121.3 256.543 123.378C258.069 125.456 256.543 127.82 256.543 127.82C256.543 127.82 262.637 134.482 261.668 135.732C260.699 136.981 256.13 139.616 256.13 139.616L255.161 151.27L242.695 147.799L242.559 143.501L236.045 139.195C236.045 139.195 232.588 133.368 234.94 127.684C237.292 122 245.467 118.251 245.467 118.251Z" fill="#F08D5F" stroke="#263238" stroke-miterlimit="10"/>
<path d="M245.468 118.251C245.468 118.251 238.953 123.935 239.652 124.628C240.35 125.32 243.807 126.291 243.251 127.263C242.695 128.234 241.17 131.29 241.17 131.29C241.17 131.29 243.942 132.796 243.807 133.646C243.672 134.497 242.973 135.31 242.56 135.152C242.146 134.994 238.126 133.646 237.713 135.845C237.3 138.043 239.096 140.143 240.621 140.843C242.146 141.543 244.634 140.008 244.634 140.008C244.634 140.008 242.973 143.335 242.56 143.478C242.146 143.621 234.662 140.286 231.754 139.037C228.846 137.787 226.216 135.988 226.908 132.931C227.599 129.875 228.41 125.998 231.063 123.777C232.776 122.308 234.395 120.731 235.91 119.057C235.91 119.057 232.152 116.979 234.94 115.865C236.78 115.228 238.781 115.228 240.621 115.865C240.621 115.865 239.652 112.816 242.124 113.373C244.596 113.93 245.873 115.609 245.468 118.251Z" fill="#263238" stroke="#263238" stroke-miterlimit="10"/>
<path d="M256.13 139.616L251.696 142.116L255.574 144.886L256.13 139.616Z" fill="#263238" stroke="#263238" stroke-miterlimit="10"/>
<path d="M247.684 122.686C247.684 122.686 244.911 122.686 245.19 125.32" stroke="#263238" stroke-miterlimit="10"/>
<path d="M250.803 126.073C251.306 126.698 251.404 127.459 251.021 127.775C250.637 128.091 249.909 127.835 249.405 127.21C248.902 126.585 248.804 125.825 249.187 125.509C249.57 125.193 250.299 125.449 250.803 126.073Z" fill="#263238"/>
<path d="M235.286 304.587C235.286 304.587 235.969 311.438 236.653 312.469C237.337 313.5 243.829 316.745 245.197 318.115C246.564 319.485 243.484 320.517 241.951 321.202C240.418 321.887 238.697 321.714 235.624 320.855C232.55 319.997 229.612 317.43 227.764 316.579C225.915 315.729 221.099 314.178 221.437 312.981C221.775 311.784 227.764 302.02 227.764 302.02L235.286 304.587Z" fill="#263238" stroke="#263238" stroke-miterlimit="10"/>
<path d="M302.628 308.013C302.628 308.013 310.142 317.799 310.661 317.95C311.893 318.356 316.935 312.823 317.919 312.018C320.813 309.705 323.345 306.972 325.434 303.91C326.275 302.63 328.83 298.279 326.749 296.886C324.164 295.162 321.038 299.212 318.889 300.138C317.664 300.665 314.252 302.171 314.252 302.171L302.628 308.013Z" fill="#263238" stroke="#263238" stroke-miterlimit="10"/>
<path d="M241.778 216.403C241.778 216.403 242.289 225.136 242.973 226.19C243.657 227.244 246.054 235.223 246.054 235.223L240.613 266.578L226.765 301.335L236.683 305.792L256.506 269.145C256.506 269.145 263.344 251.507 263.517 250.995C263.69 250.483 302.658 308.013 302.658 308.013L310.864 302.705L284.88 246.026L272.06 215.545L241.778 216.403Z" fill="#263238" stroke="#263238" stroke-miterlimit="10"/>
<path d="M226.908 295.177L225.54 302.878L236.481 307.674L240.584 301.508L226.908 295.177Z" fill="white" stroke="#263238" stroke-miterlimit="10"/>
<path d="M298.871 306.13L303.312 310.587L314.253 302.193L310.15 297.059L298.871 306.13Z" fill="white" stroke="#263238" stroke-miterlimit="10"/>
<path d="M240.891 150.298C240.891 150.298 236.322 167.222 236.879 171.663C237.435 176.105 235.909 218.006 235.909 218.006C242.943 219.908 250.262 220.517 257.513 219.805C269.167 218.556 275.93 216.35 275.93 216.35C275.93 216.35 264.298 170.15 262.359 164.602C260.421 159.054 255.596 152.67 255.596 152.67L240.891 150.298Z" fill="#108ED6" stroke="#263238" stroke-miterlimit="10"/>
<path d="M241.312 145.857L239.509 151.27L258.204 156.125L258.76 149.884L241.312 145.857Z" fill="#108ED6" stroke="#263238" stroke-miterlimit="10"/>
<path d="M284.376 212.872L288.261 213.843C288.261 213.843 289.922 211.48 291.169 211.066C292.416 210.652 293.934 210.93 295.46 210.93C296.985 210.93 298.368 208.845 299.615 209.816C300.862 210.787 298.924 211.901 298.225 212.18C297.526 212.458 294.212 213.151 294.212 213.151C294.212 213.151 302.102 215.507 302.658 215.507C303.214 215.507 302.245 216.892 301.554 217.306C300.862 217.72 298.473 217.856 298.473 217.856C298.473 217.856 294.595 219.249 292.657 219.362C290.718 219.474 285.593 217.856 285.593 217.856L282.407 216.606L280.469 215.914L284.376 212.872Z" fill="#F08D5F" stroke="#263238" stroke-miterlimit="10"/>
<path d="M245.325 157.932C245.325 157.932 239.509 163.202 241.034 168.057C242.56 172.913 279.259 219.362 279.259 219.362L286.871 212.15L254.891 158.76" fill="#108ED6"/>
<path d="M245.325 157.932C245.325 157.932 239.509 163.202 241.034 168.057C242.56 172.913 279.259 219.362 279.259 219.362L286.871 212.15L254.891 158.76" stroke="#263238" stroke-miterlimit="10"/>
<path d="M251.862 235.758L262.63 249.625" stroke="white" stroke-miterlimit="10"/>
<path d="M92.0188 121.745C92.0188 121.745 87.5629 126.104 87.2398 128.829C86.9167 131.554 83.107 142.876 84.4144 145.059C85.7219 147.243 92.6801 151.594 92.6801 151.594C92.6801 151.594 84.2041 153.769 84.8503 158.234C85.4965 162.698 88.5473 163.134 88.5473 163.134C88.5473 163.134 81.7018 167.169 83.9861 170.105C86.2705 173.041 91.7033 172.612 92.5749 170.218C93.4466 167.824 91.8235 164.768 91.8235 164.768C91.8235 164.768 96.1742 163.466 97.2638 161.614C97.9096 160.532 98.1742 159.265 98.0152 158.015C98.0152 158.015 101.825 158.67 104.109 157.037C106.394 155.403 107.37 150.261 107.37 150.261C107.37 150.261 115.411 145.684 118.236 138.277C121.061 130.869 120.084 127.82 118.236 125.539C116.387 123.258 102.907 116.505 98.7817 117.363C96.1124 118.05 93.7385 119.588 92.0188 121.745Z" fill="#263238" stroke="#263238" stroke-miterlimit="10"/>
<path d="M101.262 149.305L103.441 159.438L114.637 152.896L111.631 148.545C111.631 148.545 103.854 151.157 101.262 149.305Z" fill="#F08D5F" stroke="#263238" stroke-miterlimit="10"/>
<path d="M100.607 128.061L93.7617 140.151C93.7617 140.151 96.2639 145.707 97.7818 147.453C99.2997 149.2 101.156 151.376 106.265 151.918C111.375 152.46 114.418 147.453 114.636 144.186C114.854 140.919 111.368 131.223 111.368 131.223L100.607 128.061Z" fill="#F08D5F" stroke="#263238" stroke-miterlimit="10"/>
<path d="M94.6334 141.243C94.6334 141.243 91.3722 139.94 92.1311 142.658C92.8901 145.376 96.3692 145.383 96.3692 145.383L94.6334 141.243Z" fill="#F08D5F" stroke="#263238" stroke-miterlimit="10"/>
<path d="M112.247 134.053C112.277 133.828 112.368 133.616 112.51 133.439C112.652 133.262 112.839 133.127 113.052 133.049C113.265 132.972 113.496 132.954 113.718 132.998C113.94 133.043 114.146 133.147 114.313 133.301C115.944 134.392 113.765 138.42 113.765 138.42L112.247 134.053Z" fill="#F08D5F" stroke="#263238" stroke-miterlimit="10"/>
<path d="M103.764 139.94L105.176 143.208L107.355 142.334" stroke="#263238" stroke-miterlimit="10"/>
<path d="M103.546 145.488C103.546 145.488 108.002 147.453 109.745 142.658" stroke="#263238" stroke-miterlimit="10"/>
<path d="M106.701 137.652C106.701 137.652 108.114 135.8 109.962 136.342" stroke="#263238" stroke-miterlimit="10"/>
<path d="M104.417 133.541C104.935 132.918 105.619 132.455 106.388 132.204C107.158 131.954 107.983 131.927 108.768 132.126" stroke="#263238" stroke-miterlimit="10"/>
<path d="M100.502 134.927C100.502 134.927 97.4964 133.617 96.1514 137.102" stroke="#263238" stroke-miterlimit="10"/>
<path d="M101.186 139.707C101.464 140.279 101.381 140.889 101.005 141.07C100.63 141.25 100.096 140.949 99.8182 140.385C99.5401 139.82 99.6228 139.203 99.9985 139.022C100.374 138.841 100.908 139.143 101.186 139.707Z" fill="#263238"/>
<path d="M154.695 131.238C154.695 131.238 160.902 127.015 161.345 126.57C161.789 126.126 164.456 124.312 165.674 123.341C166.891 122.37 167.229 119.012 168.559 119.577C168.835 119.676 169.088 119.832 169.301 120.034C169.514 120.236 169.683 120.481 169.798 120.751C169.912 121.022 169.969 121.314 169.965 121.608C169.962 121.902 169.897 122.192 169.776 122.46C169.333 123.461 167.116 125.245 167.116 125.245C167.116 125.245 173.218 124.018 173.549 124.688C173.726 125.113 173.808 125.572 173.79 126.032C173.772 126.493 173.654 126.944 173.443 127.353C173 127.91 172.444 128.573 172.444 128.573C172.444 128.573 172.001 132.337 171.332 133.579C170.663 134.821 168.116 135.582 166.342 135.582C164.569 135.582 160.902 136.026 160.902 136.026L156.799 137.689L154.695 131.238Z" fill="#F08D5F" stroke="#263238" stroke-miterlimit="10"/>
<path d="M100.42 198.449L100.127 203.53L131.882 200.624L130.432 195.979L100.42 198.449Z" fill="#F08D5F" stroke="#263238" stroke-miterlimit="10"/>
<path d="M102.937 157.556C102.937 157.556 97.4138 160.793 95.9485 163.308C94.4833 165.822 82.9865 184.251 83.8206 186.351C84.6546 188.452 88.4193 190.958 90.0949 190.958C91.7706 190.958 106.626 193.262 106.626 193.262L104.274 159.89L102.937 157.556Z" fill="#108ED6" stroke="#263238" stroke-miterlimit="10"/>
<path d="M99.2925 182.994C99.2925 182.994 94.4834 186.758 90.2754 187.812" stroke="#263238" stroke-miterlimit="10"/>
<path d="M98.3684 183.912C98.3684 183.912 96.7379 187.368 94.6113 188.715" stroke="#263238" stroke-miterlimit="10"/>
<path d="M154.695 131.238C154.695 131.238 105.658 155.463 102.096 157.134C98.5341 158.806 94.8897 166.582 95.7764 172.695C96.6631 178.808 100.879 185.493 101.209 186.479C101.54 187.465 100.097 195.814 99.7665 197.372C99.4358 198.931 99.5486 200.15 100.991 200.813C102.434 201.475 129.831 197.703 130.83 197.146C131.83 196.589 132.716 195.257 132.055 192.923C131.394 190.589 128.614 184.477 128.614 183.889C128.614 183.302 123.842 168.08 123.842 168.08C123.842 168.08 146.249 149.072 148.804 145.955C151.359 142.839 156.792 137.622 156.792 137.622L154.695 131.238Z" fill="#108ED6" stroke="#263238" stroke-miterlimit="10"/>
<path d="M108.317 185.802C107.56 186.539 106.743 187.211 105.875 187.812" stroke="#263238" stroke-miterlimit="10"/>
<path d="M110.286 177.777C116.403 173.809 123.849 168.141 123.849 168.141C123.849 168.141 115.877 178.145 110.091 184.048" stroke="#263238" stroke-miterlimit="10"/>
<path d="M103.433 181.473C105.22 180.842 106.92 179.985 108.49 178.921" stroke="#263238" stroke-miterlimit="10"/>
<path d="M114.644 183.227C113.078 184.922 111.409 186.518 109.647 188.007" stroke="#263238" stroke-miterlimit="10"/>
<path d="M126.456 162.653C125.943 163.347 125.367 163.992 124.735 164.58" stroke="#263238" stroke-miterlimit="10"/>
<path d="M134.94 146.911C132.931 151.582 130.603 156.11 127.975 160.462" stroke="#263238" stroke-miterlimit="10"/>
<path d="M151.922 132.683L154.695 139.91" stroke="#263238" stroke-miterlimit="10"/>
<path d="M114.479 276.576L108.535 299.672L104.778 305.476L102.313 313.757L107.386 316.226C107.386 316.226 110.136 313.471 111.736 315.067C113.337 316.663 113.472 319.426 113.472 319.426C113.472 319.426 121.137 321.744 122.745 321.616C124.353 321.488 126.802 321.91 127.095 321.18C127.388 320.45 127.531 314.939 126.802 314.209C126.299 313.704 121.031 312.018 117.673 309.127C116.17 307.863 115.095 304.031 114.915 303.895C114.336 303.459 126.802 278.187 126.802 278.187L114.479 276.576Z" fill="#F08D5F" stroke="#263238" stroke-miterlimit="10"/>
<path d="M127.095 321.18C127.381 320.427 127.531 314.939 126.802 314.209C126.299 313.704 121.031 312.018 117.672 309.127C116.169 307.862 115.095 304.031 114.915 303.895C114.854 303.85 114.915 303.541 115.117 303.037L108.107 300.342L104.77 305.491L102.306 313.772L107.378 316.241C107.378 316.241 110.128 313.486 111.728 315.082C113.329 316.678 113.464 319.441 113.464 319.441C113.464 319.441 121.136 321.744 122.744 321.616C124.352 321.488 126.802 321.91 127.095 321.18Z" fill="#263238" stroke="#263238" stroke-miterlimit="10"/>
<path d="M136.519 269.469L150.713 304.956C150.713 304.956 149.796 310.316 150.713 311.732C151.827 313.903 152.83 316.129 153.719 318.402L161.285 316.572C161.285 316.572 160.639 313.953 162.721 314.088C164 314.174 165.248 314.531 166.38 315.134C166.38 315.134 172.512 311.86 174.338 310.813C176.164 309.767 177.08 308.337 176.945 307.802C176.81 307.268 174.991 303.225 172.902 303.616C170.813 304.008 166.891 305.709 164.945 305.709C162.999 305.709 158.678 304.271 157.769 302.698C156.86 301.125 150.735 274.806 150.735 274.806L148.992 262.174L142.763 240.817L136.519 269.469Z" fill="#F08D5F" stroke="#263238" stroke-miterlimit="10"/>
<path d="M176.937 307.832C176.809 307.313 174.983 303.255 172.894 303.647C170.805 304.038 166.883 305.739 164.937 305.739C162.99 305.739 158.67 304.302 157.76 302.728C157.592 302.359 157.454 301.976 157.347 301.584L150.509 304.452L150.712 304.949C150.712 304.949 149.795 310.309 150.712 311.724C151.826 313.895 152.829 316.121 153.718 318.394L161.285 316.565C161.285 316.565 160.638 313.945 162.72 314.081C164 314.167 165.247 314.524 166.379 315.127C166.379 315.127 172.511 311.852 174.337 310.806C176.163 309.76 177.072 308.359 176.937 307.832Z" fill="#263238" stroke="#263238" stroke-miterlimit="10"/>
<path d="M100.097 203.553L90.5615 279.06C99.4629 280.074 108.424 280.461 117.38 280.219C131.732 279.783 135.504 279.203 135.504 279.203L142.928 244.777L150.758 274.844L154.38 273.685C154.38 273.685 150.322 249.286 148 244.054C145.678 238.822 131.912 200.625 131.912 200.625L100.097 203.553Z" fill="#263238" stroke="#263238" stroke-miterlimit="10"/>
</g>
<defs>
<clipPath id="clip0_34_3515">
<rect width="544" height="322" fill="white"/>
</clipPath>
</defs>
</svg>
