<svg width="20" height="21" viewBox="0 0 20 21" fill="none" xmlns="http://www.w3.org/2000/svg">
<path d="M0 17.5303C0 19.2303 1.3 20.5303 3 20.5303H17C18.7 20.5303 20 19.2303 20 17.5303V9.53027H0V17.5303ZM17 2.53027H15V1.53027C15 0.930273 14.6 0.530273 14 0.530273C13.4 0.530273 13 0.930273 13 1.53027V2.53027H7V1.53027C7 0.930273 6.6 0.530273 6 0.530273C5.4 0.530273 5 0.930273 5 1.53027V2.53027H3C1.3 2.53027 0 3.83027 0 5.53027V7.53027H20V5.53027C20 3.83027 18.7 2.53027 17 2.53027Z" fill="#108ED6"/>
</svg>
