<svg width="15" height="13" viewBox="0 0 15 13" fill="none" xmlns="http://www.w3.org/2000/svg">
<path d="M12.9264 1.76318H10.9179L9.92656 0.275135C9.88827 0.217746 9.83639 0.170711 9.77554 0.138214C9.71468 0.105717 9.64674 0.0887654 9.57775 0.0888676H5.11291C5.04392 0.0887654 4.97597 0.105717 4.91512 0.138214C4.85426 0.170711 4.80238 0.217746 4.76409 0.275135L3.77206 1.76318H1.76428C1.35723 1.76318 0.96685 1.92488 0.679021 2.21271C0.391192 2.50054 0.229492 2.89092 0.229492 3.29797V11.1114C0.229492 11.5185 0.391192 11.9089 0.679021 12.1967C0.96685 12.4845 1.35723 12.6462 1.76428 12.6462H12.9264C13.3334 12.6462 13.7238 12.4845 14.0116 12.1967C14.2995 11.9089 14.4612 11.5185 14.4612 11.1114V3.29797C14.4612 2.89092 14.2995 2.50054 14.0116 2.21271C13.7238 1.92488 13.3334 1.76318 12.9264 1.76318ZM13.624 11.1114C13.624 11.2965 13.5505 11.4739 13.4197 11.6047C13.2888 11.7356 13.1114 11.8091 12.9264 11.8091H1.76428C1.57926 11.8091 1.40181 11.7356 1.27098 11.6047C1.14015 11.4739 1.06665 11.2965 1.06665 11.1114V3.29797C1.06665 3.11295 1.14015 2.9355 1.27098 2.80467C1.40181 2.67384 1.57926 2.60034 1.76428 2.60034H3.9967C4.06569 2.60044 4.13363 2.58349 4.19449 2.55099C4.25534 2.51849 4.30723 2.47146 4.34551 2.41407L5.33685 0.926025H9.35311L10.3451 2.41407C10.3834 2.47146 10.4353 2.51849 10.4962 2.55099C10.557 2.58349 10.625 2.60044 10.694 2.60034H12.9264C13.1114 2.60034 13.2888 2.67384 13.4197 2.80467C13.5505 2.9355 13.624 3.11295 13.624 3.29797V11.1114ZM7.34533 3.9956C6.76582 3.9956 6.19932 4.16744 5.71748 4.4894C5.23563 4.81136 4.86008 5.26897 4.63831 5.80437C4.41655 6.33977 4.35852 6.9289 4.47158 7.49727C4.58463 8.06565 4.86369 8.58773 5.27347 8.99751C5.68324 9.40728 6.20533 9.68634 6.7737 9.7994C7.34208 9.91245 7.93121 9.85443 8.46661 9.63266C9.00201 9.41089 9.45962 9.03534 9.78157 8.5535C10.1035 8.07165 10.2754 7.50516 10.2754 6.92565C10.2754 6.14855 9.96668 5.40328 9.41718 4.85379C8.86769 4.3043 8.12242 3.9956 7.34533 3.9956ZM7.34533 9.01854C6.93139 9.01854 6.52675 8.8958 6.18258 8.66583C5.8384 8.43586 5.57015 8.10899 5.41175 7.72656C5.25334 7.34414 5.21189 6.92333 5.29265 6.51735C5.3734 6.11137 5.57273 5.73845 5.86543 5.44575C6.15812 5.15305 6.53104 4.95373 6.93702 4.87297C7.34301 4.79222 7.76382 4.83366 8.14624 4.99207C8.52867 5.15048 8.85553 5.41873 9.0855 5.7629C9.31547 6.10708 9.43822 6.51171 9.43822 6.92565C9.43822 7.48072 9.21772 8.01305 8.82523 8.40555C8.43273 8.79804 7.9004 9.01854 7.34533 9.01854Z" fill="white"/>
</svg>
